<svg xmlns="http://www.w3.org/2000/svg" xmlns:xlink="http://www.w3.org/1999/xlink" width="1400" zoomAndPan="magnify" viewBox="0 0 1050 1049.999947" height="1400" preserveAspectRatio="xMidYMid meet" version="1.0"><defs><filter x="0%" y="0%" width="100%" height="100%" id="274c94f39d"><feColorMatrix values="0 0 0 0 1 0 0 0 0 1 0 0 0 0 1 0 0 0 1 0" color-interpolation-filters="sRGB"/></filter><mask id="59b9d2be00"><g filter="url(#274c94f39d)"><rect x="-105" width="1260" fill="#000000" y="-104.999995" height="1259.999936" fill-opacity="0.45"/></g></mask><clipPath id="75e30e5f74"><rect x="0" width="1050" y="0" height="1050"/></clipPath></defs><rect x="-105" width="1260" fill="#ffffff" y="-104.999995" height="1259.999936" fill-opacity="1"/><rect x="-105" width="1260" fill="#717c8f" y="-104.999995" height="1259.999936" fill-opacity="1"/><g mask="url(#59b9d2be00)"><g transform="matrix(1, 0, 0, 1, 0, 0.000000000000002297)"><g clip-path="url(#75e30e5f74)"><path fill="#ffffff" d="M 248.652344 365.285156 C 252.15625 358.84375 256.871094 353.003906 261.433594 347.351562 C 264.296875 343.800781 267.257812 340.132812 269.914062 336.328125 C 272.679688 332.367188 275.191406 328.15625 277.617188 324.089844 C 280.859375 318.640625 284.214844 313.023438 288.183594 308.003906 C 292.851562 302.105469 302.605469 292.128906 315.5 291.570312 C 315.8125 291.554688 316.125 291.546875 316.433594 291.546875 C 325.621094 291.546875 334.253906 297.402344 337.648438 306.042969 C 340.644531 313.671875 338.632812 321.464844 332.277344 326.871094 C 330.28125 328.566406 328.074219 330.117188 325.933594 331.621094 C 322.210938 334.234375 318.355469 336.941406 315.394531 340.570312 C 309.644531 347.589844 308.160156 356.730469 306.722656 365.5625 C 306.214844 368.671875 305.6875 371.878906 304.992188 374.921875 C 301.597656 389.699219 293.320312 401.28125 282.292969 406.6875 C 271.105469 412.164062 254.222656 410.222656 246.914062 398.582031 C 240.441406 388.269531 243.566406 374.621094 248.652344 365.285156 Z M 269.152344 411.691406 C 274.125 411.691406 279.046875 410.617188 283.210938 408.574219 C 294.820312 402.886719 303.5 390.789062 307.042969 375.390625 C 307.757812 372.28125 308.28125 369.042969 308.789062 365.910156 C 310.183594 357.335938 311.628906 348.476562 317.019531 341.898438 C 319.796875 338.492188 323.367188 335.992188 327.140625 333.34375 C 329.324219 331.816406 331.570312 330.234375 333.636719 328.46875 C 340.707031 322.457031 342.941406 313.777344 339.601562 305.277344 C 335.769531 295.515625 325.777344 289.011719 315.410156 289.472656 C 301.679688 290.0625 291.425781 300.519531 286.535156 306.699219 C 282.484375 311.824219 279.09375 317.511719 275.8125 323.015625 C 273.402344 327.050781 270.917969 331.226562 268.191406 335.121094 C 265.578125 338.871094 262.640625 342.511719 259.800781 346.03125 C 255.175781 351.757812 250.402344 357.679688 246.808594 364.277344 C 241.441406 374.136719 238.1875 388.621094 245.132812 399.695312 C 250.292969 407.917969 259.816406 411.691406 269.152344 411.691406 " fill-opacity="1" fill-rule="nonzero"/><path fill="#ffffff" d="M 219.53125 350.3125 L 282.695312 264.027344 C 296.648438 244.960938 310.847656 227.398438 331.054688 221.871094 C 335.605469 220.621094 340.160156 220.046875 344.695312 220.046875 C 368.042969 220.046875 390.828125 235.101562 410.851562 249.777344 C 419.910156 256.421875 429.277344 263.289062 435.726562 272.679688 C 441.230469 280.6875 445.421875 293.164062 440.6875 304.15625 C 436.292969 314.34375 425.855469 319.914062 417.875 322.792969 C 411.238281 325.1875 404.75 326.933594 398.484375 328.632812 C 381.035156 333.34375 364.5625 337.796875 350.707031 354.917969 C 345.546875 361.28125 341.0625 368.515625 336.984375 377.03125 C 331.382812 388.738281 327.4375 401.199219 324.628906 410.738281 C 323.441406 414.757812 322.308594 418.785156 321.167969 422.820312 C 316.804688 438.300781 312.292969 454.304688 305.1875 468.941406 C 302.933594 473.582031 300.285156 478.355469 296.238281 481.828125 C 277.535156 497.839844 243.863281 475.625 230.253906 465.332031 C 213.757812 452.851562 197.933594 438.628906 193.890625 419.238281 C 188.8125 394.882812 203.773438 371.832031 219.53125 350.3125 Z M 228.992188 467.003906 C 239.410156 474.886719 261.292969 489.519531 279.988281 489.519531 C 286.4375 489.519531 292.515625 487.78125 297.609375 483.417969 C 301.941406 479.703125 304.722656 474.707031 307.074219 469.859375 C 314.261719 455.058594 318.796875 438.957031 323.1875 423.394531 C 324.328125 419.367188 325.457031 415.339844 326.640625 411.328125 C 329.429688 401.863281 333.34375 389.507812 338.878906 377.933594 C 342.882812 369.574219 347.289062 362.472656 352.339844 356.238281 C 365.769531 339.640625 381.183594 335.484375 399.023438 330.660156 C 405.339844 328.953125 411.871094 327.191406 418.589844 324.769531 C 426.964844 321.75 437.921875 315.859375 442.617188 304.984375 C 446.855469 295.140625 444.886719 282.300781 437.457031 271.480469 C 430.804688 261.800781 421.296875 254.828125 412.09375 248.085938 C 387.792969 230.269531 359.4375 211.925781 330.496094 219.84375 C 309.644531 225.542969 295.179688 243.410156 281.007812 262.785156 L 217.835938 349.074219 C 202.503906 370.019531 186.582031 394.472656 191.839844 419.671875 C 196.015625 439.738281 212.164062 454.28125 228.992188 467.003906 " fill-opacity="1" fill-rule="nonzero"/><path fill="#ffffff" d="M 149.304688 388.5 C 150.675781 387.285156 152.046875 386.078125 153.398438 384.859375 C 206.210938 337.363281 246.167969 273.625 265.894531 205.382812 C 266.347656 203.832031 266.789062 202.265625 267.234375 200.699219 C 271.554688 185.457031 276.027344 169.699219 287.042969 158.679688 C 295.402344 150.339844 307.257812 145.65625 319.058594 145.65625 C 322.332031 145.65625 325.597656 146.015625 328.789062 146.753906 C 351.996094 152.152344 367.976562 171.886719 383.429688 190.976562 C 388.359375 197.0625 393.019531 202.8125 397.882812 208.089844 C 414.890625 226.503906 434.824219 241.878906 457.128906 253.78125 C 467.078125 259.085938 478.085938 262.785156 488.726562 266.355469 C 501.6875 270.703125 515.089844 275.199219 526.433594 282.613281 C 538.183594 290.285156 547.738281 305.699219 542.308594 319.140625 C 537.371094 331.382812 522.816406 336.03125 511.859375 336.296875 C 504.246094 336.492188 496.558594 335.179688 489.121094 333.917969 C 484.199219 333.078125 479.113281 332.21875 474.050781 331.773438 C 463.117188 330.832031 452.707031 331.496094 443.132812 333.742188 C 411.910156 341.070312 380.296875 365.777344 362.59375 396.679688 C 350.691406 417.449219 343.316406 440.523438 336.1875 462.84375 C 334.726562 467.398438 333.40625 472.992188 332.003906 478.914062 C 328.339844 494.433594 324.179688 512.039062 315.640625 520.636719 C 303.464844 532.882812 275.625 535.328125 260.644531 533.128906 C 240.15625 530.09375 221.46875 518.542969 204.980469 508.347656 L 138.027344 466.960938 C 133.097656 463.917969 127.992188 460.761719 124.320312 456.242188 C 115.015625 444.804688 117.46875 427.972656 124.03125 416.375 C 130.207031 405.457031 139.921875 396.835938 149.304688 388.5 Z M 122.203125 415.339844 C 115.285156 427.5625 112.761719 445.355469 122.6875 457.570312 C 126.589844 462.359375 131.839844 465.609375 136.917969 468.75 L 203.878906 510.136719 C 220.53125 520.429688 239.417969 532.105469 260.34375 535.203125 C 263.738281 535.703125 267.683594 535.984375 271.925781 535.984375 C 287.519531 535.984375 307.050781 532.25 317.125 522.113281 C 326.089844 513.097656 330.324219 495.191406 334.046875 479.390625 C 335.441406 473.515625 336.753906 467.964844 338.183594 463.484375 C 345.285156 441.269531 352.628906 418.300781 364.414062 397.726562 C 381.847656 367.304688 412.929688 342.988281 443.609375 335.785156 C 452.96875 333.589844 463.15625 332.949219 473.871094 333.867188 C 478.839844 334.300781 483.894531 335.15625 488.765625 335.984375 C 496.304688 337.261719 504.097656 338.59375 511.90625 338.394531 C 523.507812 338.117188 538.9375 333.105469 544.261719 319.929688 C 550.109375 305.441406 540.035156 288.988281 527.582031 280.851562 C 516.007812 273.296875 502.480469 268.75 489.398438 264.363281 C 478.832031 260.816406 467.90625 257.152344 458.121094 251.925781 C 436.019531 240.136719 416.277344 224.90625 399.425781 206.660156 C 394.609375 201.445312 389.976562 195.71875 385.0625 189.65625 C 369.386719 170.289062 353.175781 150.273438 329.265625 144.710938 C 313.882812 141.132812 296.730469 146.039062 285.558594 157.195312 C 274.15625 168.597656 269.613281 184.621094 265.214844 200.125 C 264.773438 201.691406 264.328125 203.25 263.878906 204.800781 C 244.257812 272.664062 204.519531 336.058594 151.996094 383.300781 C 150.640625 384.511719 149.28125 385.71875 147.917969 386.933594 C 138.394531 395.382812 128.550781 404.117188 122.203125 415.339844 " fill-opacity="1" fill-rule="nonzero"/><path fill="#ffffff" d="M 223.25 217.160156 C 225.183594 204.683594 226.75 191.902344 228.261719 179.542969 C 232.164062 147.746094 236.191406 114.867188 246.929688 84.285156 C 250.589844 73.859375 256.050781 60.605469 265.847656 50.515625 C 274.402344 41.710938 285.246094 36.773438 295.640625 36.773438 C 297.230469 36.773438 298.816406 36.890625 300.375 37.128906 C 311.921875 38.867188 320.964844 46.398438 330.519531 54.363281 C 339.183594 61.582031 348.140625 69.046875 359.101562 71.703125 C 368.417969 73.976562 378.484375 72.621094 388.222656 71.324219 C 401.847656 69.496094 414.71875 67.773438 424.75 75.609375 C 436.242188 84.574219 436.882812 100.710938 437.496094 116.320312 C 437.570312 118.28125 437.644531 120.214844 437.742188 122.121094 C 439.507812 156.179688 453.929688 189.941406 477.316406 214.773438 C 494.492188 233.007812 507.804688 243.117188 532.851562 247.785156 C 549.722656 250.925781 565.621094 254.738281 574.660156 266.742188 C 579.261719 272.859375 581.347656 280.160156 583.554688 287.886719 C 584.816406 292.351562 586.136719 296.960938 587.976562 301.285156 C 594.203125 315.886719 607.359375 328.648438 625.011719 337.230469 C 634.296875 341.742188 645.289062 344.6875 655.921875 347.542969 C 676.191406 352.980469 697.152344 358.597656 709.414062 375.21875 C 713.457031 380.699219 715.378906 388.835938 714.179688 395.449219 C 713.3125 400.253906 710.914062 404.054688 707.242188 406.449219 C 694.894531 414.496094 672.84375 404.136719 666.378906 400.773438 C 659.007812 396.933594 652.007812 392.125 645.234375 387.484375 C 640.386719 384.152344 635.382812 380.714844 630.246094 377.640625 C 604.570312 362.234375 573.792969 355.417969 533.433594 356.171875 C 510.859375 356.597656 488.207031 358.984375 466.109375 363.257812 C 444.976562 367.351562 428.554688 376.089844 413.953125 384.914062 C 385.808594 401.9375 373.890625 432.699219 363.21875 465.386719 C 354.71875 491.425781 346.246094 517.46875 337.78125 543.523438 L 325.425781 581.511719 C 321.347656 594.039062 316.097656 606.144531 305.359375 609.84375 C 294.5 613.59375 282.558594 606.710938 275.527344 598.230469 C 271.121094 592.90625 267.742188 586.664062 264.476562 580.625 C 262.230469 576.464844 259.90625 572.167969 257.242188 568.15625 C 242.230469 545.53125 217.292969 532.421875 194.875 522.589844 C 190.253906 520.5625 185.578125 518.59375 180.910156 516.632812 C 161.945312 508.652344 142.332031 500.398438 125.992188 487.644531 C 107.945312 473.550781 90.234375 448.824219 94.679688 421.722656 C 97.28125 405.875 107.519531 390.296875 125.105469 375.425781 C 131.144531 370.320312 137.640625 365.53125 143.914062 360.90625 C 152.792969 354.351562 161.972656 347.582031 170.058594 339.78125 C 197.457031 313.359375 214.355469 274.402344 223.25 217.160156 Z M 142.667969 359.214844 C 136.359375 363.867188 129.847656 368.671875 123.753906 373.824219 C 105.769531 389.023438 95.296875 405.027344 92.605469 421.386719 C 88.019531 449.390625 106.171875 474.828125 124.703125 489.300781 C 141.257812 502.226562 161.003906 510.53125 180.089844 518.558594 C 184.757812 520.527344 189.417969 522.488281 194.035156 524.507812 C 216.167969 534.226562 240.777344 547.148438 255.496094 569.320312 C 258.101562 573.25 260.410156 577.507812 262.632812 581.625 C 265.945312 587.753906 269.367188 594.085938 273.910156 599.574219 C 279.941406 606.84375 289.429688 612.988281 299.0625 612.988281 C 301.398438 612.988281 303.746094 612.632812 306.050781 611.839844 C 317.648438 607.828125 323.179688 595.203125 327.425781 582.160156 L 339.78125 544.171875 C 348.246094 518.125 356.710938 492.074219 365.210938 466.035156 C 375.761719 433.738281 387.507812 403.363281 415.046875 386.710938 C 431.722656 376.621094 446.855469 369.125 466.511719 365.324219 C 488.488281 361.070312 511.023438 358.699219 533.472656 358.269531 C 573.390625 357.523438 603.847656 364.242188 629.171875 379.433594 C 634.242188 382.480469 639.226562 385.898438 644.042969 389.214844 C 650.867188 393.890625 657.921875 398.738281 665.414062 402.632812 C 672.132812 406.136719 695.082031 416.875 708.390625 408.203125 C 712.554688 405.488281 715.269531 401.207031 716.246094 395.824219 C 717.558594 388.558594 715.542969 379.984375 711.105469 373.972656 C 698.40625 356.761719 677.085938 351.042969 656.472656 345.507812 C 645.445312 342.554688 635.027344 339.765625 625.929688 335.34375 C 608.730469 326.984375 595.941406 314.589844 589.910156 300.457031 C 588.121094 296.253906 586.820312 291.710938 585.570312 287.3125 C 583.40625 279.742188 581.175781 271.910156 576.335938 265.476562 C 566.851562 252.878906 550.535156 248.941406 533.242188 245.722656 C 508.757812 241.164062 495.714844 231.238281 478.839844 213.332031 C 455.796875 188.867188 441.582031 155.582031 439.84375 122.011719 C 439.746094 120.117188 439.671875 118.183594 439.597656 116.238281 C 438.988281 100.898438 438.300781 83.515625 426.046875 73.949219 C 415.308594 65.582031 401.394531 67.4375 387.941406 69.242188 C 378.402344 70.515625 368.535156 71.84375 359.601562 69.667969 C 349.109375 67.117188 340.339844 59.808594 331.867188 52.746094 C 322.503906 44.945312 312.824219 36.882812 300.695312 35.050781 C 288.257812 33.171875 274.683594 38.40625 264.335938 49.054688 C 254.257812 59.429688 248.6875 72.957031 244.953125 83.589844 C 234.132812 114.382812 230.089844 147.378906 226.175781 179.289062 C 224.667969 191.632812 223.101562 204.390625 221.171875 216.839844 C 212.355469 273.597656 195.652344 312.1875 168.605469 338.273438 C 160.617188 345.976562 151.496094 352.703125 142.667969 359.214844 " fill-opacity="1" fill-rule="nonzero"/><path fill="#ffffff" d="M 837.34375 732.113281 C 838.761719 750.445312 839.300781 769.96875 833.722656 788.542969 C 827.785156 808.292969 814.816406 824.011719 799.023438 830.582031 C 783.242188 837.152344 763.539062 835.800781 740.453125 826.5625 C 733.367188 823.726562 726.320312 820.386719 719.503906 817.144531 C 708.183594 811.773438 696.46875 806.21875 684.15625 802.789062 C 638.449219 790.082031 591.101562 806.992188 542.570312 827.007812 C 492.328125 847.726562 447.09375 863.921875 402.394531 852.222656 C 369.828125 843.707031 341.765625 818.53125 327.320312 784.898438 C 313.890625 753.613281 314.695312 720.25 329.519531 693.34375 C 334.703125 683.945312 341.511719 675.019531 348.097656 666.378906 C 355.828125 656.257812 363.816406 645.78125 369.191406 634.511719 C 378.222656 615.585938 383.898438 593.667969 389.378906 572.472656 C 392.085938 561.996094 394.644531 552.101562 397.589844 542.496094 C 401.65625 529.234375 406.257812 514.1875 411.847656 500.144531 C 417.671875 485.527344 424.003906 473.351562 431.207031 462.941406 C 450.308594 435.355469 480.824219 414.824219 514.933594 406.628906 C 534.121094 402.019531 561.808594 399.148438 584.785156 411.664062 C 596.546875 418.070312 607.015625 426.867188 617.128906 435.363281 C 624.609375 441.648438 632.347656 448.144531 640.582031 453.671875 C 657.242188 464.847656 676.234375 472.277344 694.597656 479.457031 C 707.421875 484.476562 720.695312 489.667969 733.046875 496.082031 C 807.128906 534.589844 830.648438 645.691406 837.34375 732.113281 Z M 695.363281 477.503906 C 677.101562 470.359375 658.21875 462.976562 641.753906 451.925781 C 633.609375 446.464844 625.921875 440.007812 618.484375 433.757812 C 608.285156 425.191406 597.738281 416.332031 585.785156 409.820312 C 562.21875 396.980469 533.980469 399.886719 514.441406 404.585938 C 479.839844 412.902344 448.875 433.738281 429.484375 461.746094 C 422.183594 472.285156 415.773438 484.597656 409.902344 499.375 C 404.28125 513.492188 399.65625 528.578125 395.578125 541.882812 C 392.617188 551.535156 389.933594 561.90625 387.34375 571.945312 C 381.886719 593.042969 376.246094 614.863281 367.292969 633.609375 C 362.011719 644.675781 354.097656 655.070312 346.433594 665.109375 C 339.796875 673.804688 332.933594 682.796875 327.683594 692.335938 C 312.539062 719.808594 311.710938 753.851562 325.394531 785.726562 C 340.09375 819.953125 368.679688 845.570312 401.863281 854.257812 C 412.445312 857.019531 423.035156 858.261719 433.707031 858.261719 C 468.742188 858.261719 504.582031 844.9375 543.367188 828.941406 C 591.542969 809.074219 638.523438 792.28125 683.597656 804.816406 C 695.730469 808.1875 707.363281 813.707031 718.601562 819.050781 C 725.441406 822.289062 732.523438 825.652344 739.675781 828.507812 C 763.285156 837.964844 783.53125 839.3125 799.828125 832.527344 C 816.195312 825.710938 829.613281 809.5 835.734375 789.148438 C 841.410156 770.25 840.871094 750.488281 839.433594 731.949219 C 832.699219 644.996094 808.949219 533.171875 734.015625 494.222656 C 721.5625 487.75 708.242188 482.539062 695.363281 477.503906 " fill-opacity="1" fill-rule="nonzero"/><path fill="#ffffff" d="M 792.390625 680.5625 C 796.605469 700.070312 797.089844 715.640625 793.914062 729.554688 C 789.984375 746.796875 779.632812 761.183594 766.230469 768.035156 C 753.261719 774.660156 736.640625 775.269531 716.820312 769.847656 C 709.300781 767.789062 701.816406 765.074219 694.589844 762.457031 C 685.960938 759.332031 677.042969 756.097656 667.949219 753.925781 C 623.503906 743.324219 584.851562 761.300781 542.503906 784.054688 C 539.789062 785.515625 537.074219 786.992188 534.359375 788.460938 C 511.53125 800.828125 487.921875 813.625 462.507812 819.933594 C 435.511719 826.570312 393.863281 822.191406 369.871094 800.96875 C 356.410156 789.058594 350.683594 773.769531 352.855469 755.523438 C 354.398438 742.585938 361.050781 729.929688 367.484375 717.675781 C 371.296875 710.421875 375.234375 702.925781 377.957031 695.582031 C 386.113281 673.640625 392.722656 650.589844 399.121094 628.300781 C 402.035156 618.171875 405.039062 607.695312 408.136719 597.507812 C 422.847656 549.167969 440.621094 500.003906 481.433594 476.585938 C 497.257812 467.503906 516.28125 462.886719 536.542969 462.886719 C 550.140625 462.886719 564.308594 464.960938 578.441406 469.160156 C 611.550781 479.003906 641.410156 498.882812 666.25 517.035156 C 696.773438 539.332031 722.941406 561.644531 746.253906 585.242188 C 775.746094 615.085938 788.34375 661.84375 792.390625 680.5625 Z M 579.042969 467.152344 C 543.285156 456.527344 507.332031 459.300781 480.382812 474.765625 C 438.90625 498.570312 420.960938 548.148438 406.128906 596.890625 C 403.027344 607.105469 400.015625 617.589844 397.105469 627.71875 C 390.722656 649.972656 384.109375 672.984375 375.988281 694.855469 C 373.316406 702.0625 369.574219 709.175781 365.628906 716.699219 C 359.109375 729.117188 352.363281 741.957031 350.773438 755.269531 C 348.542969 773.980469 354.660156 790.320312 368.476562 802.542969 C 386.144531 818.171875 413.132812 824.882812 437.128906 824.882812 C 446.445312 824.882812 455.3125 823.863281 463.015625 821.96875 C 488.683594 815.59375 512.417969 802.742188 535.359375 790.304688 C 538.074219 788.835938 540.789062 787.367188 543.496094 785.910156 C 585.457031 763.359375 623.757812 745.539062 667.464844 755.96875 C 676.445312 758.117188 685.304688 761.324219 693.871094 764.433594 C 701.144531 767.066406 708.667969 769.789062 716.265625 771.871094 C 736.597656 777.433594 753.734375 776.769531 767.179688 769.902344 C 781.132812 762.777344 791.898438 747.863281 795.964844 730.027344 C 799.207031 715.796875 798.730469 699.941406 794.441406 680.121094 C 790.355469 661.222656 777.632812 614.003906 747.746094 583.765625 C 724.351562 560.09375 698.101562 537.707031 667.488281 515.335938 C 642.5 497.085938 612.453125 477.078125 579.042969 467.152344 " fill-opacity="1" fill-rule="nonzero"/><path fill="#ffffff" d="M 739.050781 687.585938 C 730.914062 700.769531 713.917969 709.390625 693.582031 710.644531 C 681.648438 711.382812 669.496094 709.898438 657.757812 708.460938 C 651.925781 707.75 645.90625 707.011719 639.957031 706.550781 C 591.09375 702.753906 540.800781 717.707031 501.933594 747.542969 C 498.667969 750.042969 495.417969 752.703125 492.277344 755.269531 C 484.199219 761.875 475.847656 768.699219 466.511719 773.546875 C 451.820312 781.191406 436.339844 782.183594 425.09375 776.21875 C 411.15625 768.8125 405.519531 752.53125 404.90625 739.757812 C 404.175781 724.886719 408.597656 710.390625 412.871094 696.378906 L 451.582031 569.460938 C 456.609375 552.972656 462.304688 534.292969 475.050781 520.980469 C 484.28125 511.351562 493.128906 506.574219 502.128906 506.386719 C 502.316406 506.386719 502.5 506.378906 502.6875 506.378906 C 517.789062 506.378906 531.0625 519.125 545.089844 532.605469 L 546.417969 533.875 C 571.183594 557.648438 601.246094 575.816406 633.355469 586.433594 C 641.46875 589.117188 649.910156 591.402344 658.070312 593.609375 C 677.363281 598.828125 697.304688 604.226562 714.105469 615.257812 C 738.019531 630.941406 753.753906 663.753906 739.050781 687.585938 Z M 634.011719 584.441406 C 602.199219 573.921875 572.414062 555.917969 547.871094 532.367188 L 546.550781 531.085938 C 532.652344 517.75 518.347656 503.984375 502.089844 504.285156 C 492.507812 504.484375 483.164062 509.472656 473.535156 519.527344 C 460.441406 533.203125 454.667969 552.136719 449.570312 568.84375 L 410.863281 695.765625 C 406.539062 709.957031 402.058594 724.621094 402.804688 739.855469 C 403.453125 753.210938 409.394531 770.257812 424.109375 778.074219 C 429.277344 780.8125 435.273438 782.175781 441.664062 782.175781 C 449.925781 782.175781 458.851562 779.894531 467.480469 775.410156 C 477.011719 770.460938 485.445312 763.5625 493.605469 756.894531 C 496.730469 754.34375 499.964844 751.691406 503.210938 749.207031 C 541.667969 719.683594 591.453125 704.910156 639.792969 708.644531 C 645.699219 709.101562 651.695312 709.832031 657.503906 710.546875 C 669.34375 711.988281 681.582031 713.492188 693.714844 712.738281 C 715.042969 711.425781 732.21875 702.65625 740.832031 688.683594 C 756.179688 663.820312 739.996094 629.730469 715.261719 613.503906 C 698.175781 602.289062 678.070312 596.851562 658.628906 591.585938 C 650.492188 589.378906 642.074219 587.105469 634.011719 584.441406 " fill-opacity="1" fill-rule="nonzero"/><path fill="#ffffff" d="M 614.300781 672.214844 C 606.078125 675.675781 596.800781 675.945312 587.835938 676.207031 C 585.636719 676.265625 583.445312 676.332031 581.28125 676.4375 C 551.824219 677.898438 522.496094 688.28125 498.699219 705.699219 C 497.578125 706.519531 496.460938 707.363281 495.34375 708.207031 C 490.375 711.941406 485.238281 715.8125 479.441406 718.019531 C 473.5 720.273438 464.492188 720.996094 458.644531 715.582031 L 458.644531 715.589844 C 454.863281 712.070312 453.132812 705.902344 453.507812 697.234375 C 454.847656 666.644531 482.464844 613.945312 496.558594 603.003906 C 512.21875 590.855469 524.984375 595.570312 541.75 607.828125 C 565.992188 625.539062 578.164062 629.253906 607.457031 632.828125 C 615.972656 633.871094 626.136719 638.105469 629.082031 646.867188 C 632.550781 657.210938 624.109375 668.078125 614.300781 672.214844 Z M 607.710938 630.746094 C 578.84375 627.21875 566.84375 623.558594 542.988281 606.128906 C 528.953125 595.867188 513.695312 587.039062 495.273438 601.347656 C 480.554688 612.773438 452.796875 665.4375 451.417969 697.132812 C 451.007812 706.453125 452.960938 713.179688 457.226562 717.125 C 460.554688 720.21875 465.289062 721.824219 470.441406 721.824219 C 473.597656 721.824219 476.929688 721.21875 480.1875 719.980469 C 486.265625 717.667969 491.523438 713.710938 496.609375 709.882812 C 497.714844 709.046875 498.824219 708.207031 499.9375 707.394531 C 523.410156 690.21875 552.332031 679.972656 581.378906 678.539062 C 583.539062 678.429688 585.710938 678.367188 587.894531 678.308594 C 597.054688 678.039062 606.53125 677.765625 615.109375 674.148438 C 625.792969 669.644531 634.921875 657.675781 631.066406 646.199219 C 627.816406 636.511719 616.867188 631.871094 607.710938 630.746094 " fill-opacity="1" fill-rule="nonzero"/><path fill="#ffffff" d="M 535.632812 661.777344 C 531.101562 665.878906 523.925781 667.421875 516.894531 665.804688 C 511.113281 664.484375 505.902344 660.308594 504.230469 655.652344 C 503.074219 652.417969 503.65625 649.269531 505.960938 646.265625 C 509.078125 642.214844 516.707031 640.230469 522.167969 639.089844 C 523.441406 638.828125 524.792969 638.6875 526.171875 638.6875 C 530.773438 638.6875 535.648438 640.277344 538.421875 644.230469 C 541.90625 649.21875 540.625 657.257812 535.632812 661.777344 Z M 521.742188 637.039062 C 515.953125 638.242188 507.839844 640.386719 504.296875 644.988281 C 501.5625 648.539062 500.859375 652.46875 502.253906 656.363281 C 504.15625 661.648438 509.980469 666.378906 516.417969 667.855469 C 518.414062 668.308594 520.414062 668.539062 522.382812 668.539062 C 528.003906 668.539062 533.308594 666.707031 537.035156 663.335938 C 542.882812 658.054688 544.277344 648.941406 540.144531 643.035156 C 535.992188 637.105469 527.910156 635.75 521.742188 637.039062 " fill-opacity="1" fill-rule="nonzero"/><path fill="#ffffff" d="M 813.273438 254.609375 C 812.230469 256.789062 810.574219 258.175781 808.222656 258.859375 C 795.496094 262.539062 766.933594 244.453125 749.871094 233.65625 C 744.710938 230.394531 740.644531 227.816406 738.019531 226.457031 C 733.972656 224.347656 729.332031 221.386719 729.339844 217.070312 C 729.355469 211.746094 736.261719 209.054688 742.667969 208.800781 C 743.03125 208.785156 743.40625 208.785156 743.800781 208.785156 C 759.109375 208.785156 800.417969 219.335938 812.058594 237.011719 C 815.757812 242.625 816.160156 248.546875 813.273438 254.609375 Z M 742.585938 206.703125 C 735.203125 206.996094 727.257812 210.359375 727.238281 217.0625 C 727.222656 222.507812 732.472656 225.9375 737.050781 228.316406 C 739.59375 229.636719 743.628906 232.1875 748.75 235.429688 C 765.441406 245.996094 789.835938 261.441406 804.457031 261.433594 C 806.023438 261.433594 807.484375 261.261719 808.804688 260.875 C 811.730469 260.03125 813.871094 258.234375 815.167969 255.519531 C 818.402344 248.734375 817.949219 242.125 813.816406 235.855469 C 801.265625 216.800781 757.625 206.09375 742.585938 206.703125 " fill-opacity="1" fill-rule="nonzero"/><path fill="#ffffff" d="M 1019.835938 603.542969 C 1018.828125 609.476562 1011.863281 612.699219 1005.925781 611.984375 C 977.828125 608.589844 941.742188 583.554688 924.425781 562.308594 C 906.863281 540.773438 897.144531 519.398438 892.902344 492.992188 C 892.121094 488.152344 891.15625 482.128906 893.378906 477.183594 C 894.632812 474.378906 897.234375 472.507812 901.105469 471.613281 C 902.785156 471.226562 904.609375 471.046875 906.476562 471.046875 C 913.523438 471.046875 921.277344 473.542969 924.953125 476.609375 C 930.183594 480.988281 933.277344 487.480469 935.148438 491.972656 C 938.109375 499.128906 940.332031 506.921875 942.480469 514.457031 C 947.191406 530.996094 952.054688 548.082031 965.097656 559.421875 C 969.945312 563.628906 975.636719 566.730469 981.152344 569.730469 C 985.910156 572.324219 990.839844 575.007812 995.121094 578.371094 C 996.546875 579.484375 998.441406 580.78125 1000.640625 582.289062 C 1008.769531 587.867188 1021.074219 596.292969 1019.835938 603.542969 Z M 996.417969 576.710938 C 991.996094 573.242188 986.992188 570.519531 982.152344 567.886719 C 976.746094 564.941406 971.144531 561.890625 966.476562 557.828125 C 953.898438 546.910156 949.332031 530.875 944.5 513.882812 C 942.332031 506.289062 940.09375 498.4375 937.082031 491.171875 C 935.132812 486.46875 931.890625 479.675781 926.296875 475 C 921.261719 470.792969 909.488281 467.519531 900.628906 469.5625 C 896.148438 470.605469 892.976562 472.933594 891.457031 476.324219 C 888.988281 481.84375 890.007812 488.207031 890.828125 493.320312 C 895.074219 519.75 905.230469 542.09375 922.792969 563.636719 C 940.375 585.195312 977.058594 610.609375 1005.671875 614.070312 C 1006.285156 614.144531 1006.910156 614.183594 1007.53125 614.183594 C 1013.9375 614.183594 1020.8125 610.378906 1021.914062 603.898438 C 1023.363281 595.316406 1010.921875 586.785156 1001.832031 580.550781 C 999.65625 579.074219 997.796875 577.796875 996.417969 576.710938 " fill-opacity="1" fill-rule="nonzero"/><path fill="#ffffff" d="M 15.882812 210.140625 C 17.660156 206.898438 21.023438 204.28125 24.660156 203.304688 C 25.921875 202.96875 27.136719 202.832031 28.34375 202.832031 C 30.957031 202.832031 33.492188 203.488281 36.136719 204.175781 C 39.242188 204.988281 42.453125 205.816406 45.796875 205.429688 C 50.597656 204.855469 56.207031 200.386719 61.144531 196.433594 C 62.976562 194.980469 64.699219 193.601562 66.140625 192.632812 C 70.015625 190.035156 74.484375 187.359375 78.699219 188.582031 C 81.554688 189.410156 83.949219 192.09375 84.960938 195.585938 C 85.929688 198.949219 85.632812 202.542969 85.171875 205.929688 C 83.761719 216.300781 80.5625 226.25 75.683594 235.503906 C 72.828125 240.910156 68.054688 247.390625 61.507812 247.621094 C 57.5625 247.773438 53.894531 245.625 49.867188 243.042969 L 23.707031 226.273438 C 19.777344 223.757812 16.152344 221.171875 14.960938 217.351562 C 14.050781 214.4375 14.960938 211.820312 15.882812 210.140625 Z M 22.574219 228.039062 L 48.734375 244.8125 C 52.15625 247.003906 56.398438 249.726562 61.15625 249.726562 C 61.292969 249.726562 61.441406 249.71875 61.582031 249.71875 C 67.5625 249.515625 73.074219 244.9375 77.535156 236.488281 C 82.539062 227.011719 85.804688 216.824219 87.257812 206.210938 C 87.722656 202.773438 88.050781 198.753906 86.96875 195.003906 C 85.773438 190.820312 82.828125 187.589844 79.285156 186.5625 C 74.214844 185.09375 69.234375 188.023438 64.96875 190.886719 C 63.460938 191.902344 61.703125 193.304688 59.84375 194.800781 C 55.347656 198.382812 49.761719 202.847656 45.550781 203.339844 C 42.605469 203.691406 39.71875 202.9375 36.660156 202.140625 C 32.722656 201.117188 28.644531 200.058594 24.117188 201.28125 C 19.949219 202.394531 16.085938 205.40625 14.042969 209.128906 C 12.4375 212.050781 12.058594 215.109375 12.953125 217.972656 C 14.355469 222.476562 18.308594 225.308594 22.574219 228.039062 " fill-opacity="1" fill-rule="nonzero"/><path fill="#ffffff" d="M 929.042969 1011.050781 C 925.082031 1009.789062 912.203125 1004.933594 912.792969 995.605469 C 913.046875 991.542969 915.871094 987.984375 921.179688 985.03125 C 924.039062 983.441406 927.117188 982.003906 930.085938 980.617188 C 932.507812 979.484375 935 978.320312 937.410156 977.058594 C 949.765625 970.601562 962.644531 964.851562 975.695312 959.980469 C 984.441406 956.722656 993.847656 953.644531 1003.40625 953.261719 C 1003.90625 953.234375 1004.40625 953.226562 1004.90625 953.226562 C 1019.632812 953.226562 1037.171875 961.792969 1040.960938 976.3125 C 1043.871094 987.484375 1037.433594 998.746094 1029.753906 1004.949219 C 1022.503906 1010.796875 1012.75 1014.503906 999.058594 1016.589844 C 975.738281 1020.148438 951.519531 1018.238281 929.042969 1011.050781 Z M 1031.199219 1006.738281 C 1039.449219 1000.074219 1046.359375 987.902344 1043.183594 975.738281 C 1038.976562 959.601562 1019.277344 950.332031 1003.316406 950.964844 C 993.429688 951.355469 983.808594 954.492188 974.890625 957.820312 C 961.75 962.726562 948.78125 968.511719 936.34375 975.015625 C 933.984375 976.253906 931.503906 977.410156 929.109375 978.535156 C 926.109375 979.9375 923 981.378906 920.054688 983.019531 C 914.015625 986.382812 910.800781 990.558594 910.488281 995.457031 C 909.816406 1006.144531 922.746094 1011.460938 928.339844 1013.242188 C 943.695312 1018.15625 959.839844 1020.640625 975.976562 1020.640625 C 983.816406 1020.640625 991.667969 1020.050781 999.410156 1018.867188 C 1013.519531 1016.710938 1023.617188 1012.855469 1031.199219 1006.738281 " fill-opacity="1" fill-rule="nonzero"/><path fill="#ffffff" d="M 645.914062 1002.585938 C 643.289062 1003.488281 640.375 1003.308594 637.5625 1003.128906 L 607.65625 1001.265625 C 603.265625 1000.996094 598.722656 1000.714844 594.519531 999.335938 C 589.953125 997.84375 586.449219 995.171875 584.644531 991.796875 C 582.601562 987.960938 583.0625 983.210938 585.742188 980.511719 C 587.730469 978.519531 590.429688 977.8125 593.390625 977.8125 C 596.253906 977.8125 599.351562 978.46875 602.304688 979.238281 L 609.871094 981.234375 C 620.269531 983.972656 631.023438 986.8125 641.671875 989.3125 C 646.136719 990.363281 650.621094 994.144531 651.082031 997.246094 C 651.5 1000.066406 648.507812 1001.707031 645.914062 1002.585938 Z M 642.199219 987.074219 C 631.582031 984.578125 620.84375 981.742188 610.460938 979 L 602.886719 977.007812 C 596.253906 975.269531 588.828125 974.136719 584.113281 978.886719 C 580.730469 982.292969 580.101562 988.171875 582.617188 992.882812 C 584.703125 996.777344 588.671875 999.847656 593.800781 1001.527344 C 598.285156 1002.996094 602.980469 1003.292969 607.515625 1003.570312 L 637.414062 1005.433594 C 638.5625 1005.496094 639.769531 1005.570312 641 1005.570312 C 642.878906 1005.570312 644.816406 1005.398438 646.660156 1004.777344 C 653.171875 1002.542969 653.65625 998.886719 653.363281 996.910156 C 652.699219 992.4375 647.054688 988.214844 642.199219 987.074219 " fill-opacity="1" fill-rule="nonzero"/><path fill="#ffffff" d="M 44.273438 0 C 29.941406 9.164062 15.152344 17.242188 0 24.207031 L 0 26.488281 C 16.734375 18.898438 32.925781 10.023438 48.390625 0 L 44.273438 0 " fill-opacity="1" fill-rule="nonzero"/><path fill="#ffffff" d="M 1032.78125 152.882812 C 1021.339844 152.519531 1011.230469 149.246094 1001.460938 146.082031 C 993.941406 143.644531 984.152344 143.539062 972.367188 145.761719 C 952.667969 149.484375 933.605469 167.253906 936.632812 187.761719 C 939.585938 207.769531 960.042969 218.144531 978.109375 227.300781 C 980.824219 228.679688 983.503906 230.039062 986.089844 231.410156 C 1013.957031 246.183594 1036.496094 269.851562 1050 298.304688 L 1050 293.546875 C 1036.136719 266.40625 1014.070312 243.871094 987.074219 229.554688 C 984.480469 228.179688 981.78125 226.816406 979.058594 225.429688 C 960.59375 216.070312 941.503906 206.382812 938.714844 187.457031 C 935.863281 168.140625 954.015625 151.371094 972.757812 147.828125 C 978.179688 146.804688 983.242188 146.285156 987.820312 146.285156 C 992.757812 146.285156 997.140625 146.886719 1000.8125 148.074219 C 1010.722656 151.28125 1020.96875 154.605469 1032.714844 154.980469 C 1038.375 155.160156 1044.160156 154.734375 1050 153.75 L 1050 151.617188 C 1044.183594 152.617188 1038.425781 153.0625 1032.78125 152.882812 " fill-opacity="1" fill-rule="nonzero"/><path fill="#ffffff" d="M 898.710938 129.914062 C 894.589844 131.054688 890.652344 132.226562 886.839844 133.359375 C 868.6875 138.753906 853.019531 143.414062 832.050781 139.960938 C 809.96875 136.328125 788.886719 127.140625 768.5 118.246094 C 766.128906 117.214844 763.769531 116.1875 761.414062 115.171875 C 728.40625 100.90625 680.316406 84.632812 643.921875 107.820312 C 636.71875 112.40625 630.214844 118.445312 623.921875 124.285156 C 612.632812 134.753906 601.976562 144.636719 587.648438 146.933594 C 561.921875 151.058594 539.660156 127.492188 529.027344 102.300781 C 525.84375 94.761719 523.152344 86.765625 520.546875 79.027344 C 514.566406 61.261719 508.378906 42.894531 495.820312 28.660156 C 486.714844 18.539062 473.023438 8.6875 457.855469 0 L 453.601562 0 C 469.851562 9.007812 484.648438 19.382812 494.253906 30.054688 C 506.527344 43.96875 512.636719 62.128906 518.558594 79.691406 C 521.175781 87.46875 523.882812 95.507812 527.089844 103.113281 C 537.191406 127.035156 557.582031 149.511719 581.75 149.511719 C 583.800781 149.511719 585.882812 149.347656 587.984375 149.007812 C 602.945312 146.613281 614.332031 136.039062 625.347656 125.820312 C 631.566406 120.042969 638.007812 114.082031 645.042969 109.59375 C 680.613281 86.9375 728.011719 103.03125 760.578125 117.097656 C 762.941406 118.117188 765.292969 119.140625 767.664062 120.175781 C 788.164062 129.117188 809.371094 138.363281 831.707031 142.035156 C 853.15625 145.574219 869.039062 140.839844 887.429688 135.375 C 891.246094 134.242188 895.164062 133.070312 899.265625 131.9375 C 924.941406 124.859375 951.929688 122.949219 978.035156 121.085938 C 1001.804688 119.40625 1026.34375 117.617188 1050 111.980469 L 1050 109.824219 C 1026.359375 115.507812 1001.734375 117.304688 977.878906 118.996094 C 951.675781 120.855469 924.582031 122.785156 898.710938 129.914062 " fill-opacity="1" fill-rule="nonzero"/><path fill="#ffffff" d="M 824.5625 46.167969 C 810.042969 42.5 795.367188 37.785156 781.167969 33.222656 C 750.117188 23.238281 718.152344 12.953125 685.542969 12.953125 C 681.113281 12.953125 676.660156 13.148438 672.195312 13.550781 C 665.585938 14.160156 658.890625 15.25 652.410156 16.308594 C 638.523438 18.570312 624.152344 20.917969 610.253906 18.449219 C 595.25 15.78125 581.414062 7.539062 569.117188 0 L 564.792969 0 C 565.34375 0.335938 565.890625 0.6875 566.433594 1.023438 C 579.28125 8.910156 593.824219 17.839844 609.851562 20.6875 C 624.125 23.222656 638.695312 20.84375 652.78125 18.554688 C 659.210938 17.503906 665.871094 16.414062 672.402344 15.816406 C 709.152344 12.460938 745.417969 24.109375 780.46875 35.386719 C 794.703125 39.957031 809.417969 44.691406 824.003906 48.375 C 850.222656 54.984375 877.488281 58.300781 904.953125 58.300781 C 929.355469 58.300781 953.925781 55.683594 978.035156 50.441406 C 1002.617188 45.09375 1026.800781 37.003906 1050 26.488281 L 1050 24.207031 C 978.722656 56.96875 899.667969 65.125 824.5625 46.167969 " fill-opacity="1" fill-rule="nonzero"/><path fill="#ffffff" d="M 921.890625 16.019531 C 949.445312 16.019531 976.992188 9.046875 1003.628906 0 L 996.308594 0 C 961.546875 11.261719 925.386719 18.292969 889.964844 10.246094 C 879.464844 7.859375 869.253906 4.140625 859.269531 0 L 853.339844 0 C 865.003906 5.011719 877.003906 9.664062 889.457031 12.492188 C 900.234375 14.9375 911.0625 16.019531 921.890625 16.019531 " fill-opacity="1" fill-rule="nonzero"/><path fill="#ffffff" d="M 769.28125 72.171875 C 757.96875 68.988281 746.542969 64.917969 735.492188 60.980469 C 710.964844 52.246094 685.691406 43.238281 659.679688 43.238281 C 656.765625 43.238281 653.855469 43.351562 650.925781 43.589844 C 641.925781 44.320312 632.765625 46.242188 623.90625 48.101562 C 605.429688 51.984375 587.984375 55.640625 571.101562 49.777344 C 555.023438 44.183594 543.160156 30.820312 531.703125 17.890625 C 529.757812 15.699219 527.828125 13.519531 525.878906 11.386719 C 522.316406 7.480469 518.632812 3.691406 514.867188 0 L 511.867188 0 C 516.148438 4.125 520.308594 8.390625 524.328125 12.804688 C 526.269531 14.929688 528.191406 17.101562 530.125 19.285156 C 541.773438 32.410156 553.816406 45.988281 570.414062 51.761719 C 587.84375 57.824219 606.398438 53.925781 624.339844 50.160156 C 633.132812 48.316406 642.230469 46.40625 651.097656 45.683594 C 679.742188 43.351562 707.734375 53.320312 734.792969 62.957031 C 745.867188 66.90625 757.328125 70.988281 768.707031 74.1875 C 799.089844 82.738281 830.828125 85.425781 862.289062 85.425781 C 880.574219 85.425781 898.773438 84.515625 916.566406 83.328125 C 960.644531 80.375 1006.792969 75.402344 1050 60.734375 L 1050 58.511719 C 1006.820312 73.277344 960.585938 78.265625 916.429688 81.226562 C 868.21875 84.460938 817.015625 85.597656 769.28125 72.171875 " fill-opacity="1" fill-rule="nonzero"/><path fill="#ffffff" d="M 976.328125 279.234375 C 962.667969 260.054688 947.664062 240.039062 927.832031 224.675781 C 886.945312 193.011719 837.277344 171.109375 797.359375 153.496094 C 767.433594 140.296875 730.199219 123.882812 692.394531 126.953125 C 657.019531 129.839844 618.292969 156.410156 617.417969 194.300781 C 616.882812 217.226562 630.96875 241.367188 655.085938 258.875 C 669.316406 269.203125 685.511719 276.765625 701.160156 284.082031 C 708.398438 287.46875 715.878906 290.964844 723.054688 294.679688 C 758.5 313.046875 778.253906 335.246094 783.449219 362.546875 C 786.84375 380.386719 782.699219 397.449219 778.691406 413.953125 C 775.800781 425.832031 772.824219 438.121094 772.5625 450.785156 C 772.078125 473.945312 783.355469 494.140625 794.277344 513.671875 C 795.652344 516.140625 797.03125 518.609375 798.386719 521.078125 C 810.820312 543.785156 823.316406 566.476562 835.800781 589.164062 L 854.125 622.46875 C 863.699219 639.894531 874.550781 659.628906 888.546875 676.699219 C 902.984375 694.296875 919.070312 698.332031 939.4375 703.441406 C 941.390625 703.933594 943.390625 704.433594 945.441406 704.960938 C 969.742188 711.203125 994.996094 714.96875 1019.417969 718.609375 C 1029.53125 720.109375 1039.769531 721.652344 1050 723.367188 L 1050 721.234375 C 1039.867188 719.546875 1029.738281 718.019531 1019.730469 716.535156 C 995.359375 712.902344 970.160156 709.144531 945.960938 702.925781 C 943.910156 702.402344 941.90625 701.898438 939.945312 701.40625 C 919.957031 696.386719 904.164062 692.425781 890.171875 675.363281 C 876.296875 658.449219 865.496094 638.792969 855.972656 621.460938 L 837.636719 588.148438 C 825.152344 565.464844 812.667969 542.777344 800.222656 520.0625 C 798.871094 517.601562 797.492188 515.125 796.105469 512.644531 C 785.335938 493.359375 774.1875 473.417969 774.660156 450.828125 C 774.917969 438.390625 777.871094 426.21875 780.730469 414.445312 C 784.792969 397.726562 788.992188 380.4375 785.507812 362.152344 C 780.191406 334.179688 760.078125 311.496094 724.023438 292.820312 C 716.804688 289.078125 709.308594 285.574219 702.046875 282.179688 C 686.488281 274.902344 670.390625 267.378906 656.324219 257.175781 C 632.757812 240.074219 619 216.585938 619.515625 194.347656 C 620.371094 157.621094 658.105469 131.855469 692.566406 129.042969 C 695.640625 128.789062 698.71875 128.675781 701.777344 128.675781 C 735.878906 128.675781 769.257812 143.398438 796.515625 155.425781 C 836.324219 172.980469 885.871094 194.832031 926.542969 226.332031 C 946.15625 241.523438 961.054688 261.402344 974.621094 280.449219 C 984.507812 294.328125 995.195312 307.601562 1005.539062 320.429688 C 1021.707031 340.503906 1037.367188 360.003906 1050 381.378906 L 1050 377.230469 C 1037.636719 356.941406 1022.625 338.296875 1007.171875 319.117188 C 996.851562 306.304688 986.179688 293.066406 976.328125 279.234375 " fill-opacity="1" fill-rule="nonzero"/><path fill="#ffffff" d="M 1001.488281 523.472656 C 996.320312 516.519531 991.371094 509.125 986.597656 501.980469 C 974.6875 484.199219 962.382812 465.804688 945.417969 452.261719 C 939.4375 447.496094 932.792969 443.246094 926.371094 439.136719 C 913.089844 430.648438 899.347656 421.863281 891.507812 408.292969 C 883.246094 393.988281 883.863281 379.925781 884.453125 366.328125 C 884.511719 365.015625 884.566406 363.71875 884.617188 362.414062 C 884.96875 353.0625 885.011719 343.085938 881.359375 332.988281 C 878.734375 325.753906 872.214844 319.578125 864.722656 317.265625 C 859.082031 315.515625 853.617188 316.246094 849.351562 319.324219 C 838.992188 326.761719 840.523438 341.398438 843.714844 356.105469 C 851.351562 391.257812 849.792969 424.707031 846.972656 455.617188 C 844.535156 482.277344 854.214844 507.003906 862.910156 525.558594 C 884.730469 572.09375 923.859375 609.269531 970.265625 627.554688 C 995.726562 637.597656 1023.117188 641.15625 1050 643.960938 L 1050 641.851562 C 1023.332031 639.0625 996.179688 635.511719 971.035156 625.601562 C 925.125 607.507812 886.414062 570.714844 864.8125 524.664062 C 856.226562 506.347656 846.675781 481.972656 849.0625 455.816406 C 851.902344 424.734375 853.460938 391.09375 845.765625 355.664062 C 842.730469 341.652344 841.207031 327.765625 850.574219 321.019531 C 852.960938 319.304688 855.78125 318.4375 858.824219 318.4375 C 860.53125 318.4375 862.304688 318.714844 864.109375 319.273438 C 870.875 321.367188 877.019531 327.164062 879.382812 333.710938 C 882.910156 343.441406 882.859375 353.183594 882.515625 362.332031 C 882.46875 363.628906 882.410156 364.933594 882.351562 366.226562 C 881.746094 380.132812 881.121094 394.503906 889.695312 409.34375 C 897.789062 423.355469 911.746094 432.28125 925.238281 440.902344 C 931.621094 444.988281 938.214844 449.203125 944.105469 453.902344 C 960.816406 467.242188 973.039062 485.492188 984.851562 503.15625 C 989.640625 510.316406 994.605469 517.722656 999.804688 524.730469 C 1013.347656 542.957031 1030.222656 560.429688 1050 576.8125 L 1050 574.054688 C 1030.9375 558.117188 1014.628906 541.152344 1001.488281 523.472656 " fill-opacity="1" fill-rule="nonzero"/><path fill="#ffffff" d="M 1012.378906 427.628906 C 1005.734375 420.53125 998.410156 413.921875 991.324219 407.523438 C 982.929688 399.933594 974.253906 392.101562 966.714844 383.464844 C 950.667969 365.078125 939.445312 342.75 928.59375 321.160156 C 925.007812 314.03125 921.308594 306.664062 917.488281 299.554688 C 893.871094 255.578125 854.40625 224.265625 822.667969 201.894531 C 779.902344 171.757812 732.292969 164.824219 695.320312 183.363281 C 690.152344 185.949219 685.617188 189.148438 681.835938 192.871094 C 677.25 197.375 674.019531 202.429688 672.222656 207.882812 C 669.964844 214.691406 670.246094 221.835938 672.984375 227.457031 C 677.273438 236.28125 691.664062 242.238281 702.171875 246.59375 C 703.910156 247.316406 705.519531 247.980469 706.914062 248.59375 C 712.441406 251.023438 718.117188 253.394531 723.597656 255.683594 C 739.625 262.386719 756.214844 269.316406 771.183594 278.570312 C 787.277344 288.527344 808.15625 305.664062 816.167969 330.773438 C 822.527344 350.667969 819.753906 372.191406 817.070312 393.011719 C 816.457031 397.792969 815.824219 402.730469 815.308594 407.5625 C 809.664062 460.828125 818.5 512.039062 840.878906 555.664062 C 864.855469 602.414062 904.945312 639.128906 950.882812 656.382812 C 982.429688 668.242188 1016.597656 671.292969 1050 673.625 L 1050 671.515625 C 1016.792969 669.210938 982.847656 666.152344 951.613281 654.421875 C 906.167969 637.339844 866.488281 600.992188 842.746094 554.703125 C 820.558594 511.449219 811.789062 460.636719 817.398438 407.785156 C 817.910156 402.976562 818.539062 398.046875 819.15625 393.28125 C 821.863281 372.234375 824.667969 350.46875 818.171875 330.144531 C 809.960938 304.410156 788.6875 286.929688 772.28125 276.789062 C 757.171875 267.445312 740.519531 260.480469 724.402344 253.746094 C 718.929688 251.457031 713.269531 249.097656 707.757812 246.675781 C 706.347656 246.050781 704.730469 245.378906 702.984375 244.65625 C 693.359375 240.671875 678.816406 234.640625 674.871094 226.539062 C 672.378906 221.402344 672.132812 214.839844 674.214844 208.539062 C 675.90625 203.40625 678.964844 198.636719 683.304688 194.371094 C 686.929688 190.796875 691.292969 187.726562 696.257812 185.242188 C 709.644531 178.53125 724.457031 175.234375 739.945312 175.234375 C 766.425781 175.234375 794.875 184.882812 821.460938 203.609375 C 853.011719 225.847656 892.230469 256.953125 915.632812 300.539062 C 919.445312 307.632812 923.136719 314.992188 926.714844 322.105469 C 937.625 343.816406 948.914062 366.261719 965.128906 384.839844 C 972.75 393.570312 981.480469 401.453125 989.921875 409.082031 C 996.964844 415.445312 1004.257812 422.035156 1010.847656 429.0625 C 1029.140625 448.585938 1037.253906 474.042969 1045.09375 498.652344 C 1046.6875 503.648438 1048.292969 508.683594 1050 513.710938 L 1050 507.027344 C 1049.015625 504.015625 1048.046875 501.003906 1047.097656 498.011719 C 1039.179688 473.179688 1030.992188 447.503906 1012.378906 427.628906 " fill-opacity="1" fill-rule="nonzero"/><path fill="#ffffff" d="M 931.195312 742.070312 C 916.410156 741.613281 900.90625 741.792969 888.121094 749.460938 C 872.261719 758.96875 871.148438 772.070312 869.964844 785.949219 C 869.457031 791.871094 868.941406 798 867.234375 804.0625 C 862.230469 821.796875 846.882812 840.960938 828.136719 852.871094 C 790.65625 876.667969 741.503906 872.394531 708.011719 860.457031 C 704.535156 859.21875 701.039062 857.941406 697.542969 856.660156 C 673.507812 847.84375 648.644531 838.726562 623.058594 841.035156 C 603.519531 842.796875 585.324219 851.140625 567.730469 859.203125 C 560.191406 862.65625 552.398438 866.234375 544.605469 869.226562 C 490.351562 890.128906 411.707031 898.792969 367.230469 868.390625 C 341.75 850.96875 320.019531 839.84375 290.515625 838.203125 C 270.210938 837.0625 252.066406 843.304688 240.730469 855.324219 C 228.171875 868.644531 221.84375 885.683594 222.429688 904.597656 C 223.175781 928.9375 235.175781 954.285156 254.527344 972.421875 C 268.375 985.398438 283.230469 989.109375 298.953125 993.019531 C 304.941406 994.515625 311.136719 996.054688 317.542969 998.15625 C 334.703125 1003.792969 352.035156 1009.894531 368.796875 1015.800781 C 380.609375 1019.960938 392.832031 1024.265625 404.898438 1028.367188 C 420.15625 1033.5625 437.578125 1041.117188 453.601562 1050 L 457.855469 1050 C 440.84375 1040.246094 421.960938 1031.960938 405.570312 1026.382812 C 393.519531 1022.28125 381.304688 1017.984375 369.492188 1013.816406 C 352.726562 1007.910156 335.382812 1001.796875 318.199219 996.164062 C 311.71875 994.039062 305.484375 992.480469 299.464844 990.976562 C 283.335938 986.96875 269.40625 983.496094 255.960938 970.890625 C 237.011719 953.128906 225.257812 928.324219 224.527344 904.535156 C 223.960938 886.183594 230.089844 869.671875 242.253906 856.765625 C 252.3125 846.101562 268.011719 840.171875 285.828125 840.171875 C 287.339844 840.171875 288.863281 840.214844 290.398438 840.296875 C 319.421875 841.910156 340.855469 852.902344 366.046875 870.128906 C 411.148438 900.949219 490.613281 892.285156 545.359375 871.195312 C 553.210938 868.167969 561.035156 864.578125 568.609375 861.105469 C 586.039062 853.117188 604.070312 844.855469 623.25 843.125 C 648.367188 840.859375 673 849.902344 696.824219 858.628906 C 700.324219 859.910156 703.820312 861.195312 707.304688 862.433594 C 741.265625 874.535156 791.140625 878.839844 829.261719 854.640625 C 848.425781 842.46875 864.117188 822.839844 869.253906 804.628906 C 871.015625 798.378906 871.539062 792.152344 872.058594 786.121094 C 873.238281 772.226562 874.265625 760.222656 889.203125 751.257812 C 901.5 743.882812 916.65625 743.710938 931.128906 744.171875 C 947.035156 744.671875 962.675781 745.523438 977.640625 746.722656 C 1001.363281 748.617188 1025.867188 751.539062 1050 755.867188 L 1050 753.742188 C 1025.914062 749.429688 1001.476562 746.515625 977.8125 744.628906 C 962.816406 743.433594 947.132812 742.570312 931.195312 742.070312 " fill-opacity="1" fill-rule="nonzero"/><path fill="#ffffff" d="M 913.46875 903.351562 C 887.257812 921.390625 860.148438 940.046875 829.386719 948.789062 C 809.871094 954.328125 795.777344 954.671875 775.539062 950.078125 L 712.210938 935.722656 C 669.40625 926.019531 625.175781 916 580.339844 917.324219 C 556.121094 918.050781 498.09375 923.128906 482.15625 954.375 C 472.121094 974.046875 479.0625 998.03125 497.953125 1008.976562 C 513.382812 1017.910156 528.789062 1027.554688 543.6875 1036.875 C 550.714844 1041.28125 557.746094 1045.660156 564.792969 1050 L 569.117188 1050 C 568.617188 1049.695312 568.117188 1049.382812 567.632812 1049.089844 C 560.035156 1044.421875 552.464844 1039.6875 544.902344 1034.945312 C 529.980469 1025.613281 514.558594 1015.957031 499.09375 1007 C 481.246094 996.671875 474.699219 974.007812 484.179688 955.410156 C 499.5625 925.246094 556.597656 920.316406 580.402344 919.59375 C 624.953125 918.257812 669.046875 928.265625 711.710938 937.9375 L 775.03125 952.300781 C 795.695312 956.984375 810.074219 956.640625 830.007812 950.972656 C 861.121094 942.128906 888.390625 923.367188 914.761719 905.230469 C 921.234375 900.769531 927.9375 896.160156 934.566406 891.785156 C 966.394531 870.792969 1008.992188 849.210938 1050 848.761719 L 1050 846.488281 C 1008.441406 846.949219 965.433594 868.703125 933.320312 889.890625 C 926.664062 894.28125 919.957031 898.890625 913.46875 903.351562 " fill-opacity="1" fill-rule="nonzero"/><path fill="#ffffff" d="M 996.320312 1050 L 1003.621094 1050 C 1009.671875 1047.941406 1015.667969 1045.785156 1021.609375 1043.570312 C 1031 1040.074219 1040.664062 1036.292969 1050 1031.691406 L 1050 1029.121094 C 1040.433594 1033.921875 1030.476562 1037.808594 1020.8125 1041.410156 C 1012.742188 1044.414062 1004.570312 1047.324219 996.320312 1050 " fill-opacity="1" fill-rule="nonzero"/><path fill="#ffffff" d="M 949.050781 934.605469 C 938.980469 940.421875 928.929688 946.796875 919.210938 952.964844 C 892.917969 969.640625 865.734375 986.894531 835.398438 994.769531 C 803.117188 1003.160156 766.277344 1001.578125 719.472656 989.789062 C 704.207031 985.941406 688.847656 981.339844 673.992188 976.894531 C 651.804688 970.242188 628.859375 963.359375 605.71875 958.863281 C 597.023438 957.171875 586.925781 955.539062 577.179688 957.5 C 566.546875 959.640625 557.960938 966.214844 554.769531 974.664062 C 550.519531 985.902344 556.066406 998.007812 563.441406 1005.03125 C 571.980469 1013.144531 583.503906 1016.785156 592.59375 1019.042969 C 625.890625 1027.328125 661.023438 1025.375 694.992188 1023.496094 C 731.019531 1021.492188 768.261719 1019.425781 803.019531 1029.6875 C 816.285156 1033.601562 829.210938 1039.351562 841.722656 1044.898438 C 845.5625 1046.605469 849.425781 1048.316406 853.339844 1050 L 859.269531 1050 C 853.65625 1047.679688 848.121094 1045.226562 842.65625 1042.796875 C 830.082031 1037.210938 817.082031 1031.4375 803.667969 1027.472656 C 782.808594 1021.320312 761.125 1019.550781 739.363281 1019.550781 C 724.492188 1019.550781 709.578125 1020.378906 694.871094 1021.191406 C 661.066406 1023.070312 626.101562 1025.011719 593.144531 1016.808594 C 584.332031 1014.613281 573.175781 1011.109375 565.03125 1003.355469 C 558.207031 996.859375 553.046875 985.726562 556.917969 975.472656 C 559.839844 967.761719 567.769531 961.742188 577.632812 959.757812 C 586.972656 957.878906 596.800781 959.476562 605.277344 961.128906 C 628.308594 965.597656 651.195312 972.457031 673.335938 979.09375 C 688.210938 983.554688 703.589844 988.171875 718.90625 992.027344 C 766.105469 1003.90625 803.300781 1005.488281 835.972656 997.007812 C 866.660156 989.035156 894 971.683594 920.441406 954.910156 C 930.144531 948.757812 940.167969 942.398438 950.199219 936.601562 C 985.253906 916.355469 1015.175781 906.988281 1041.589844 907.953125 C 1044.429688 908.0625 1047.234375 908.371094 1050 908.832031 L 1050 906.496094 C 1047.261719 906.058594 1044.488281 905.757812 1041.683594 905.65625 C 1014.71875 904.65625 984.488281 914.140625 949.050781 934.605469 " fill-opacity="1" fill-rule="nonzero"/><path fill="#ffffff" d="M 982.703125 803.726562 C 952.300781 814.242188 925.507812 833.742188 899.605469 852.589844 C 869.488281 874.511719 838.34375 897.167969 801.863281 905.171875 C 767.351562 912.746094 731.570312 906.414062 696.960938 900.292969 C 670.644531 895.632812 643.429688 890.835938 616.585938 891.964844 C 584.6875 893.328125 553.597656 903.089844 523.539062 912.523438 C 515.015625 915.199219 506.214844 917.960938 497.535156 920.488281 C 448.628906 934.730469 411.109375 936.15625 375.898438 925.132812 C 363.203125 921.160156 351.316406 914.058594 339.824219 907.175781 C 323.105469 897.183594 305.820312 886.847656 285.320312 885.484375 C 275.839844 884.847656 267.957031 888.710938 263.082031 896.332031 C 256.273438 906.988281 256.371094 923.300781 263.320312 936 C 271.054688 950.152344 286.414062 961.136719 306.566406 966.917969 C 318.796875 970.429688 331.636719 971.929688 344.039062 973.382812 C 349.207031 973.988281 354.539062 974.613281 359.757812 975.375 C 416.988281 983.734375 470.375 1010.027344 511.875 1050 L 514.867188 1050 C 472.835938 1008.878906 418.441406 981.824219 360.058594 973.300781 C 354.816406 972.53125 349.460938 971.90625 344.285156 971.300781 C 331.964844 969.855469 319.214844 968.363281 307.148438 964.902344 C 287.535156 959.265625 272.621094 948.648438 265.15625 934.992188 C 258.570312 922.933594 258.441406 907.503906 264.855469 897.460938 C 267.996094 892.550781 274.058594 886.855469 285.179688 887.578125 C 305.171875 888.90625 322.234375 899.113281 338.738281 908.980469 C 350.339844 915.917969 362.339844 923.089844 375.269531 927.140625 C 410.902344 938.289062 448.792969 936.863281 498.117188 922.507812 C 506.820312 919.972656 515.640625 917.207031 524.164062 914.523438 C 554.097656 905.132812 585.046875 895.421875 616.679688 894.066406 C 643.289062 892.917969 670.390625 897.71875 696.601562 902.359375 C 731.40625 908.519531 767.394531 914.886719 802.316406 907.222656 C 839.230469 899.121094 870.546875 876.332031 900.84375 854.289062 C 926.617188 835.527344 953.277344 816.128906 983.382812 805.710938 C 1004.644531 798.351562 1027.5625 796.039062 1050 798.335938 L 1050 796.226562 C 1027.328125 793.9375 1004.175781 796.292969 982.703125 803.726562 " fill-opacity="1" fill-rule="nonzero"/><path fill="#ffffff" d="M 269.324219 1010.46875 C 239.253906 1009 213.324219 1026.382812 196.023438 1050 L 198.621094 1050 C 215.527344 1027.507812 240.441406 1011.125 269.21875 1012.5625 C 288.898438 1013.535156 307.585938 1022.914062 324.074219 1031.171875 L 361.609375 1050 L 366.300781 1050 L 325.015625 1029.296875 C 308.339844 1020.9375 289.445312 1011.460938 269.324219 1010.46875 " fill-opacity="1" fill-rule="nonzero"/><path fill="#ffffff" d="M 0 753.742188 L 0 755.867188 C 107.15625 775.105469 207.160156 822.273438 200.214844 932.046875 C 197.195312 979.773438 174.195312 1016.105469 145.636719 1050 L 148.378906 1050 C 176.644531 1016.210938 199.296875 979.871094 202.3125 932.179688 C 209.359375 820.78125 108.199219 773.09375 0 753.742188 " fill-opacity="1" fill-rule="nonzero"/><path fill="#ffffff" d="M 106.222656 936.589844 C 100.25 899.839844 74.042969 867.210938 39.441406 853.460938 C 26.726562 848.40625 13.4375 846.339844 0 846.488281 L 0 848.761719 C 13.167969 848.613281 26.175781 850.632812 38.605469 855.570312 C 72.476562 869.03125 98.132812 900.972656 103.976562 936.953125 C 110.011719 974.144531 95.074219 1013.316406 66.804688 1034.429688 C 59.441406 1039.933594 51.917969 1045.109375 44.273438 1050 L 48.390625 1050 C 55.125 1045.628906 61.738281 1041.058594 68.167969 1036.257812 C 97.09375 1014.644531 112.382812 974.589844 106.222656 936.589844 " fill-opacity="1" fill-rule="nonzero"/><path fill="#ffffff" d="M 40.777344 929.972656 C 31.148438 917.550781 16.308594 909.121094 0 906.496094 L 0 908.832031 C 15.59375 911.425781 29.753906 919.511719 38.957031 931.382812 C 48.675781 943.917969 52.105469 959.609375 48.621094 975.574219 C 45.191406 991.25 34.566406 1006.285156 18.6875 1017.902344 C 12.796875 1022.214844 6.488281 1025.875 0 1029.121094 L 0 1031.691406 C 6.949219 1028.261719 13.722656 1024.390625 20.046875 1019.761719 C 36.382812 1007.8125 47.324219 992.289062 50.867188 976.058594 C 54.5 959.421875 50.925781 943.046875 40.777344 929.972656 " fill-opacity="1" fill-rule="nonzero"/><path fill="#ffffff" d="M 89.027344 834.355469 C 64.835938 812.699219 32.9375 799.558594 0 796.226562 L 0 798.335938 C 32.425781 801.648438 63.820312 814.601562 87.625 835.921875 C 129.085938 873.035156 146.703125 933.300781 131.488281 985.890625 C 124.746094 1009.179688 111.890625 1030.960938 94.121094 1050 L 96.976562 1050 C 114.285156 1031.058594 126.835938 1009.5 133.507812 986.476562 C 148.945312 933.121094 131.070312 871.992188 89.027344 834.355469 " fill-opacity="1" fill-rule="nonzero"/><path fill="#ffffff" d="M 202.378906 799.535156 C 216.441406 808.597656 238.726562 822.953125 258.75 822.953125 C 261.753906 822.953125 264.714844 822.625 267.578125 821.910156 C 277.511719 819.441406 285.722656 812.519531 291.980469 801.339844 C 299.734375 787.5 301.21875 769.453125 296.15625 750.535156 C 291.664062 733.726562 282.957031 718.460938 274.542969 703.703125 C 269.734375 695.28125 265.09375 686.304688 260.605469 677.628906 C 239.992188 637.769531 218.671875 596.546875 171.429688 584.972656 C 158.445312 581.789062 144.589844 581.183594 131.183594 580.59375 C 108.929688 579.617188 87.898438 578.6875 70.179688 567.066406 C 49.890625 553.75 40.71875 529.847656 36.601562 512.128906 C 33.746094 499.832031 32.296875 487.042969 30.894531 474.671875 C 29.828125 465.28125 28.726562 455.578125 27.011719 446.117188 C 22.289062 419.976562 12.511719 397.761719 0 377.230469 L 0 381.378906 C 11.515625 400.886719 20.515625 421.945312 24.945312 446.488281 C 26.644531 455.878906 27.742188 465.550781 28.800781 474.910156 C 30.210938 487.339844 31.671875 500.195312 34.558594 512.605469 C 38.761719 530.691406 48.152344 555.128906 69.03125 568.820312 C 87.230469 580.765625 109.527344 581.742188 131.09375 582.691406 C 144.390625 583.273438 158.148438 583.882812 170.929688 587.015625 C 217.242188 598.359375 238.34375 639.144531 258.742188 678.59375 C 263.238281 687.289062 267.890625 696.28125 272.714844 704.746094 C 281.070312 719.382812 289.710938 734.523438 294.132812 751.078125 C 299.042969 769.46875 297.632812 786.949219 290.152344 800.3125 C 284.1875 810.96875 276.421875 817.546875 267.078125 819.878906 C 245.980469 825.128906 219.402344 808.007812 203.519531 797.777344 C 153.964844 765.859375 101.636719 747.609375 56.988281 733.957031 C 38.472656 728.304688 19.226562 724.449219 0 721.234375 L 0 723.367188 C 19.039062 726.550781 38.078125 730.382812 56.371094 735.96875 C 100.882812 749.570312 153.039062 767.761719 202.378906 799.535156 " fill-opacity="1" fill-rule="nonzero"/><path fill="#ffffff" d="M 30.933594 675.824219 C 72.128906 679.128906 119.019531 686.214844 154.472656 713.664062 C 158.671875 716.921875 162.765625 720.496094 166.71875 723.964844 C 174.332031 730.644531 182.214844 737.542969 191.296875 742.457031 C 198.3125 746.246094 206.882812 748.75 215.25 748.75 C 222.894531 748.75 230.375 746.65625 236.332031 741.546875 C 252.894531 727.347656 247.683594 699.519531 233.066406 680.816406 C 207.210938 647.734375 165.6875 633.386719 125.523438 619.515625 L 124.457031 619.140625 C 84.089844 605.195312 42.796875 588.648438 20.3125 553.636719 C 11.132812 539.339844 5.25 523.144531 0 507.035156 L 0 513.710938 C 4.816406 527.9375 10.386719 542.0625 18.546875 554.777344 C 41.394531 590.347656 83.058594 607.054688 123.769531 621.125 L 124.835938 621.492188 C 164.710938 635.273438 205.941406 649.515625 231.417969 682.113281 C 245.421875 700.039062 250.574219 726.566406 234.960938 739.953125 C 223.25 750.003906 205.09375 747.519531 192.296875 740.609375 C 183.421875 735.8125 175.628906 728.988281 168.097656 722.382812 C 164.128906 718.898438 160.011719 715.296875 155.761719 712.007812 C 119.871094 684.214844 72.605469 677.0625 31.097656 673.730469 C 23.566406 673.125 15.863281 672.597656 8.425781 672.097656 C 5.621094 671.902344 2.8125 671.710938 0 671.515625 L 0 673.625 C 2.765625 673.8125 5.527344 674 8.277344 674.191406 C 15.71875 674.691406 23.410156 675.214844 30.933594 675.824219 " fill-opacity="1" fill-rule="nonzero"/><path fill="#ffffff" d="M 13.8125 645.371094 C 24.914062 646.765625 36.125 649.316406 45.625 651.632812 C 57.234375 654.453125 68.472656 654.730469 80.375 655.035156 L 84.105469 655.132812 C 84.796875 655.152344 85.5 655.160156 86.199219 655.160156 C 90.816406 655.160156 95.640625 654.59375 98.808594 651.230469 C 101.136719 648.769531 102.113281 645.996094 101.6875 643.019531 C 100.988281 637.996094 96.429688 633.660156 92.398438 631.28125 C 88.5625 629.007812 84.277344 627.628906 80.136719 626.300781 C 78.996094 625.929688 77.855469 625.5625 76.714844 625.175781 C 56.234375 618.195312 37.949219 603.929688 20.261719 590.132812 C 17.53125 588.007812 14.832031 585.890625 12.148438 583.839844 C 7.964844 580.632812 3.945312 577.359375 0 574.054688 L 0 576.800781 C 3.542969 579.738281 7.144531 582.644531 10.878906 585.507812 C 13.542969 587.558594 16.242188 589.664062 18.964844 591.789062 C 36.792969 605.695312 55.214844 620.066406 76.042969 627.160156 C 77.191406 627.554688 78.339844 627.925781 79.496094 628.292969 C 83.523438 629.597656 87.691406 630.933594 91.332031 633.085938 C 94.941406 635.21875 99.011719 639.03125 99.609375 643.3125 C 99.9375 645.625 99.152344 647.808594 97.28125 649.792969 C 94.222656 653.035156 89.128906 653.171875 84.171875 653.035156 L 80.421875 652.9375 C 68.636719 652.640625 57.511719 652.363281 46.117188 649.589844 C 36.5625 647.257812 25.273438 644.691406 14.050781 643.289062 L 9.84375 642.863281 C 6.570312 642.535156 3.289062 642.199219 0 641.851562 L 0 643.960938 C 3.214844 644.304688 6.429688 644.625 9.628906 644.953125 L 13.8125 645.371094 " fill-opacity="1" fill-rule="nonzero"/><path fill="#ffffff" d="M 5.011719 309.742188 C 11.902344 326.261719 19.03125 343.351562 35.371094 349.246094 C 38.6875 350.4375 42.238281 351.011719 45.898438 351.011719 C 55.445312 351.011719 65.699219 347.082031 74.066406 339.839844 C 84.617188 330.707031 91.292969 318.257812 97.222656 306.28125 C 117.519531 265.304688 133.203125 221.976562 143.832031 177.5 C 147.515625 162.0625 151.117188 144.167969 147.105469 127.15625 C 143.53125 111.996094 131.28125 94.785156 112.851562 92.828125 C 94.582031 90.882812 79.972656 103.792969 65.839844 116.277344 C 62.550781 119.191406 59.136719 122.203125 55.796875 124.910156 C 38.070312 139.265625 18.753906 148.425781 0 151.625 L 0 153.757812 C 19.226562 150.550781 38.996094 141.207031 57.117188 126.542969 C 60.5 123.800781 63.917969 120.78125 67.234375 117.855469 C 81.023438 105.664062 95.269531 93.074219 112.628906 94.917969 C 130.042969 96.765625 141.652344 113.179688 145.0625 127.640625 C 148.96875 144.203125 145.425781 161.804688 141.792969 177.007812 C 131.191406 221.335938 115.566406 264.507812 95.34375 305.34375 C 89.503906 317.132812 82.949219 329.378906 72.6875 338.253906 C 61.6875 347.78125 47.316406 351.316406 36.085938 347.269531 C 20.613281 341.691406 13.667969 325.039062 6.949219 308.9375 C 5.847656 306.296875 4.757812 303.679688 3.640625 301.144531 C 2.511719 298.570312 1.28125 296.050781 0 293.546875 L 0 298.304688 C 0.582031 299.527344 1.171875 300.75 1.714844 301.988281 C 2.832031 304.515625 3.914062 307.117188 5.011719 309.742188 " fill-opacity="1" fill-rule="nonzero"/><path fill="#ffffff" d="M 25.472656 273.320312 C 26.078125 274.515625 26.667969 275.722656 27.25 276.9375 C 29.316406 281.195312 31.460938 285.589844 34.4375 289.421875 C 38.816406 295.042969 44.625 298.273438 51.238281 298.765625 C 51.792969 298.808594 52.359375 298.832031 52.925781 298.832031 C 59.761719 298.832031 66.804688 295.804688 72.5 290.382812 C 81.523438 281.792969 85.804688 269.539062 89.59375 258.71875 C 91.539062 253.164062 93.410156 247.4375 95.222656 241.894531 C 98.863281 230.777344 102.621094 219.285156 107.164062 208.472656 C 113.316406 193.847656 117.871094 181.4375 115.917969 166.070312 C 115.007812 158.933594 112.351562 149.386719 104.828125 144.472656 C 103.910156 143.875 102.925781 143.347656 101.898438 142.921875 C 92.597656 139.042969 81.226562 142.511719 74.871094 151.183594 C 69.5625 158.425781 63.132812 163.621094 53.371094 168.558594 C 36.71875 176.980469 18.023438 180.4375 0 178.523438 L 0 180.640625 C 18.351562 182.535156 37.375 179 54.3125 170.4375 C 64.394531 165.332031 71.046875 159.945312 76.566406 152.429688 C 82.359375 144.53125 92.671875 141.347656 101.085938 144.859375 C 101.996094 145.234375 102.867188 145.695312 103.679688 146.230469 C 110.527344 150.707031 112.980469 159.640625 113.835938 166.34375 C 115.722656 181.183594 111.257812 193.332031 105.230469 207.660156 C 100.652344 218.546875 96.878906 230.089844 93.230469 241.246094 C 91.414062 246.773438 89.546875 252.492188 87.609375 258.027344 C 83.910156 268.621094 79.710938 280.621094 71.046875 288.863281 C 65.320312 294.328125 58.152344 297.175781 51.394531 296.675781 C 45.386719 296.222656 40.097656 293.269531 36.09375 288.125 C 33.246094 284.476562 31.164062 280.175781 29.136719 276.019531 C 28.546875 274.796875 27.957031 273.574219 27.339844 272.367188 C 20.722656 259.292969 11.304688 247.28125 0 237.257812 L 0 240.082031 C 10.484375 249.671875 19.238281 261.015625 25.472656 273.320312 " fill-opacity="1" fill-rule="nonzero"/><path fill="#ffffff" d="M 113.21875 350.304688 C 104.007812 359.863281 94.484375 369.738281 85.945312 380.066406 C 60.621094 410.679688 40.761719 456.535156 60.957031 493.441406 C 78.371094 525.285156 118.085938 536.558594 153.941406 544.613281 C 189.320312 552.570312 228.472656 563.667969 245.371094 594.980469 C 249.671875 602.953125 252.238281 611.902344 254.714844 620.550781 C 256.882812 628.105469 259.121094 635.921875 262.515625 643.164062 C 269.449219 657.898438 281.753906 667.308594 294.640625 667.710938 C 294.933594 667.71875 295.238281 667.726562 295.535156 667.726562 C 306.683594 667.726562 316.445312 661.097656 323.097656 648.980469 C 331.144531 634.304688 335.285156 616.726562 339.289062 599.730469 C 341.226562 591.527344 343.054688 583.773438 345.292969 576.308594 C 360.9375 524.179688 384.316406 477.027344 412.914062 439.964844 C 441.394531 403.050781 468.109375 385.800781 505.140625 380.4375 C 543.203125 374.921875 583.101562 382.90625 614.609375 402.355469 C 621.976562 406.90625 629.105469 412.140625 635.996094 417.195312 C 645.347656 424.058594 655.019531 431.15625 665.46875 436.691406 C 687.078125 448.136719 708.855469 450.007812 725.238281 441.820312 C 745.066406 431.917969 756.140625 406.980469 751.585938 382.527344 C 747.746094 361.914062 733.949219 342.375 712.738281 327.5 C 703.105469 320.75 692.082031 316.363281 681.425781 312.121094 C 671.433594 308.140625 661.105469 304.03125 652.296875 298.042969 C 639.65625 289.445312 627.636719 276.976562 616.011719 264.910156 C 611.894531 260.644531 608.007812 256.609375 604.136719 252.789062 C 566.867188 216.011719 541.683594 182.503906 524.886719 147.335938 C 521.621094 140.503906 518.578125 133.375 515.625 126.476562 C 508.050781 108.757812 500.210938 90.4375 487.921875 75.214844 C 468.59375 51.300781 439.726562 36.824219 414.265625 24.050781 L 366.292969 0 L 361.609375 0 L 413.324219 25.929688 C 438.597656 38.605469 467.25 52.976562 486.28125 76.535156 C 498.398438 91.53125 506.171875 109.714844 513.695312 127.304688 C 516.648438 134.21875 519.707031 141.371094 522.988281 148.246094 C 539.90625 183.636719 565.21875 217.332031 602.660156 254.28125 C 606.515625 258.085938 610.394531 262.113281 614.496094 266.371094 C 626.195312 278.511719 638.292969 291.0625 651.113281 299.773438 C 660.121094 305.894531 670.554688 310.054688 680.644531 314.074219 C 691.195312 318.265625 702.105469 322.613281 711.53125 329.222656 C 732.292969 343.777344 745.785156 362.839844 749.519531 382.914062 C 753.84375 406.085938 742.996094 430.597656 724.304688 439.941406 C 708.527344 447.816406 687.445312 445.953125 666.453125 434.839844 C 656.144531 429.375 646.527344 422.320312 637.234375 415.503906 C 630.3125 410.417969 623.148438 405.167969 615.710938 400.574219 C 583.792969 380.863281 543.382812 372.765625 504.835938 378.359375 C 467.207031 383.808594 440.097656 401.289062 411.246094 438.6875 C 382.496094 475.953125 358.992188 523.335938 343.285156 575.703125 C 341.027344 583.234375 339.109375 591.371094 337.246094 599.246094 C 333.277344 616.113281 329.167969 633.542969 321.25 647.980469 C 314.828125 659.679688 305.402344 665.929688 294.707031 665.609375 C 282.613281 665.230469 271.007812 656.289062 264.417969 642.273438 C 261.089844 635.183594 258.875 627.449219 256.734375 619.976562 C 254.222656 611.214844 251.632812 602.160156 247.21875 593.988281 C 229.902344 561.898438 190.230469 550.617188 154.40625 542.5625 C 118.996094 534.605469 79.800781 523.515625 62.796875 492.433594 C 43.117188 456.453125 62.679688 411.484375 87.558594 381.414062 C 96.050781 371.140625 105.550781 361.289062 114.730469 351.765625 C 133.589844 332.210938 153.085938 311.980469 164.882812 287.101562 C 183.316406 248.226562 180.765625 202.191406 176.933594 162.101562 L 176.089844 153.472656 C 172.28125 114.5 168.34375 74.207031 179.796875 36.808594 C 183.71875 23.976562 190.191406 11.230469 198.640625 0 L 196.03125 0 C 187.882812 11.125 181.632812 23.617188 177.785156 36.191406 C 166.210938 73.992188 170.175781 114.5 174.003906 153.675781 L 174.839844 162.296875 C 178.648438 202.117188 181.191406 247.808594 162.988281 286.199219 C 151.339844 310.773438 131.957031 330.871094 113.21875 350.304688 " fill-opacity="1" fill-rule="nonzero"/><path fill="#ffffff" d="M 96.984375 0 L 94.132812 0 C 75.640625 19.820312 51.828125 36.667969 24.011719 49.121094 C 16.144531 52.648438 8.121094 55.730469 0 58.511719 L 0 60.734375 C 8.410156 57.871094 16.71875 54.691406 24.871094 51.039062 C 53.617188 38.167969 78.117188 20.640625 96.984375 0 " fill-opacity="1" fill-rule="nonzero"/><path fill="#ffffff" d="M 127.394531 23.847656 C 134.582031 15.964844 141.644531 8.054688 148.378906 0 L 145.636719 0 C 139.265625 7.5625 132.613281 15.011719 125.84375 22.433594 C 88.570312 63.304688 55.855469 95.640625 2.871094 109.160156 C 1.917969 109.40625 0.953125 109.59375 0 109.824219 L 0 111.980469 C 1.125 111.710938 2.265625 111.480469 3.386719 111.191406 C 56.9375 97.527344 89.882812 64.976562 127.394531 23.847656 " fill-opacity="1" fill-rule="nonzero"/><path fill="#ffffff" d="M 1033.289062 175.359375 C 1026.0625 173.617188 1018.613281 171.839844 1011.003906 172.042969 C 1000.101562 172.355469 987.730469 178.476562 985.1875 189.566406 C 982.667969 200.484375 988.648438 209.589844 1000.421875 212.765625 C 1011.074219 215.636719 1021.28125 219.984375 1030.761719 225.683594 C 1037.636719 229.820312 1044.09375 234.675781 1050 240.082031 L 1050 237.257812 C 1044.371094 232.269531 1038.292969 227.769531 1031.847656 223.886719 C 1022.191406 218.078125 1011.804688 213.660156 1000.96875 210.738281 C 992.546875 208.464844 984.515625 201.835938 987.230469 190.035156 C 989.542969 179.984375 1000.96875 174.429688 1011.066406 174.144531 C 1011.46875 174.136719 1011.871094 174.128906 1012.265625 174.128906 C 1019.179688 174.128906 1026.097656 175.792969 1032.796875 177.402344 C 1035.972656 178.164062 1039.253906 178.949219 1042.519531 179.566406 C 1044.988281 180.027344 1047.488281 180.386719 1050 180.640625 L 1050 178.523438 C 1047.621094 178.277344 1045.25 177.941406 1042.894531 177.5 C 1039.695312 176.898438 1036.441406 176.113281 1033.289062 175.359375 " fill-opacity="1" fill-rule="nonzero"/></g></g></g></svg>