<svg id="visual" viewBox="0 0 900 600" width="900" height="600" xmlns="http://www.w3.org/2000/svg" xmlns:xlink="http://www.w3.org/1999/xlink" version="1.1"><path d="M0 55L13.7 62C27.3 69 54.7 83 82 85C109.3 87 136.7 77 163.8 78C191 79 218 91 245.2 86C272.3 81 299.7 59 327 58C354.3 57 381.7 77 409 88C436.3 99 463.7 101 491 99C518.3 97 545.7 91 573 80C600.3 69 627.7 53 654.8 51C682 49 709 61 736.2 68C763.3 75 790.7 77 818 72C845.3 67 872.7 55 886.3 49L900 43L900 0L886.3 0C872.7 0 845.3 0 818 0C790.7 0 763.3 0 736.2 0C709 0 682 0 654.8 0C627.7 0 600.3 0 573 0C545.7 0 518.3 0 491 0C463.7 0 436.3 0 409 0C381.7 0 354.3 0 327 0C299.7 0 272.3 0 245.2 0C218 0 191 0 163.8 0C136.7 0 109.3 0 82 0C54.7 0 27.3 0 13.7 0L0 0Z" fill="#8a919b"></path><path d="M0 109L13.7 127C27.3 145 54.7 181 82 182C109.3 183 136.7 149 163.8 143C191 137 218 159 245.2 164C272.3 169 299.7 157 327 150C354.3 143 381.7 141 409 141C436.3 141 463.7 143 491 141C518.3 139 545.7 133 573 123C600.3 113 627.7 99 654.8 100C682 101 709 117 736.2 134C763.3 151 790.7 169 818 169C845.3 169 872.7 151 886.3 142L900 133L900 41L886.3 47C872.7 53 845.3 65 818 70C790.7 75 763.3 73 736.2 66C709 59 682 47 654.8 49C627.7 51 600.3 67 573 78C545.7 89 518.3 95 491 97C463.7 99 436.3 97 409 86C381.7 75 354.3 55 327 56C299.7 57 272.3 79 245.2 84C218 89 191 77 163.8 76C136.7 75 109.3 85 82 83C54.7 81 27.3 67 13.7 60L0 53Z" fill="#767e8a"></path><path d="M0 349L13.7 353C27.3 357 54.7 365 82 356C109.3 347 136.7 321 163.8 327C191 333 218 371 245.2 380C272.3 389 299.7 369 327 350C354.3 331 381.7 313 409 319C436.3 325 463.7 355 491 355C518.3 355 545.7 325 573 308C600.3 291 627.7 287 654.8 295C682 303 709 323 736.2 318C763.3 313 790.7 283 818 281C845.3 279 872.7 305 886.3 318L900 331L900 131L886.3 140C872.7 149 845.3 167 818 167C790.7 167 763.3 149 736.2 132C709 115 682 99 654.8 98C627.7 97 600.3 111 573 121C545.7 131 518.3 137 491 139C463.7 141 436.3 139 409 139C381.7 139 354.3 141 327 148C299.7 155 272.3 167 245.2 162C218 157 191 135 163.8 141C136.7 147 109.3 181 82 180C54.7 179 27.3 143 13.7 125L0 107Z" fill="#636c79"></path><path d="M0 511L13.7 514C27.3 517 54.7 523 82 522C109.3 521 136.7 513 163.8 514C191 515 218 525 245.2 532C272.3 539 299.7 543 327 529C354.3 515 381.7 483 409 483C436.3 483 463.7 515 491 522C518.3 529 545.7 511 573 494C600.3 477 627.7 461 654.8 467C682 473 709 501 736.2 504C763.3 507 790.7 485 818 471C845.3 457 872.7 451 886.3 448L900 445L900 329L886.3 316C872.7 303 845.3 277 818 279C790.7 281 763.3 311 736.2 316C709 321 682 301 654.8 293C627.7 285 600.3 289 573 306C545.7 323 518.3 353 491 353C463.7 353 436.3 323 409 317C381.7 311 354.3 329 327 348C299.7 367 272.3 387 245.2 378C218 369 191 331 163.8 325C136.7 319 109.3 345 82 354C54.7 363 27.3 355 13.7 351L0 347Z" fill="#565d69"></path><path d="M0 601L13.7 601C27.3 601 54.7 601 82 601C109.3 601 136.7 601 163.8 601C191 601 218 601 245.2 601C272.3 601 299.7 601 327 601C354.3 601 381.7 601 409 601C436.3 601 463.7 601 491 601C518.3 601 545.7 601 573 601C600.3 601 627.7 601 654.8 601C682 601 709 601 736.2 601C763.3 601 790.7 601 818 601C845.3 601 872.7 601 886.3 601L900 601L900 443L886.3 446C872.7 449 845.3 455 818 469C790.7 483 763.3 505 736.2 502C709 499 682 471 654.8 465C627.7 459 600.3 475 573 492C545.7 509 518.3 527 491 520C463.7 513 436.3 481 409 481C381.7 481 354.3 513 327 527C299.7 541 272.3 537 245.2 530C218 523 191 513 163.8 512C136.7 511 109.3 519 82 520C54.7 521 27.3 515 13.7 512L0 509Z" fill="#494f59"></path></svg>