<svg id="visual" viewBox="0 0 1920 1080" width="1920" height="1080" xmlns="http://www.w3.org/2000/svg" xmlns:xlink="http://www.w3.org/1999/xlink" version="1.1"><path d="M0 77L29.2 77C58.3 77 116.7 77 174.8 69.7C233 62.3 291 47.7 349.2 49.3C407.3 51 465.7 69 523.8 70.8C582 72.7 640 58.3 698.2 60.2C756.3 62 814.7 80 872.8 87.2C931 94.3 989 90.7 1047.2 79.8C1105.3 69 1163.7 51 1221.8 45.7C1280 40.3 1338 47.7 1396.2 51.3C1454.3 55 1512.7 55 1570.8 53.2C1629 51.3 1687 47.7 1745.2 45.8C1803.3 44 1861.7 44 1890.8 44L1920 44L1920 0L1890.8 0C1861.7 0 1803.3 0 1745.2 0C1687 0 1629 0 1570.8 0C1512.7 0 1454.3 0 1396.2 0C1338 0 1280 0 1221.8 0C1163.7 0 1105.3 0 1047.2 0C989 0 931 0 872.8 0C814.7 0 756.3 0 698.2 0C640 0 582 0 523.8 0C465.7 0 407.3 0 349.2 0C291 0 233 0 174.8 0C116.7 0 58.3 0 29.2 0L0 0Z" fill="#8fa9bf"></path><path d="M0 131L29.2 125.5C58.3 120 116.7 109 174.8 100C233 91 291 84 349.2 93C407.3 102 465.7 127 523.8 128.7C582 130.3 640 108.7 698.2 103.3C756.3 98 814.7 109 872.8 116.3C931 123.7 989 127.3 1047.2 116.5C1105.3 105.7 1163.7 80.3 1221.8 78.5C1280 76.7 1338 98.3 1396.2 105.5C1454.3 112.7 1512.7 105.3 1570.8 96.3C1629 87.3 1687 76.7 1745.2 76.7C1803.3 76.7 1861.7 87.3 1890.8 92.7L1920 98L1920 42L1890.8 42C1861.7 42 1803.3 42 1745.2 43.8C1687 45.7 1629 49.3 1570.8 51.2C1512.7 53 1454.3 53 1396.2 49.3C1338 45.7 1280 38.3 1221.8 43.7C1163.7 49 1105.3 67 1047.2 77.8C989 88.7 931 92.3 872.8 85.2C814.7 78 756.3 60 698.2 58.2C640 56.3 582 70.7 523.8 68.8C465.7 67 407.3 49 349.2 47.3C291 45.7 233 60.3 174.8 67.7C116.7 75 58.3 75 29.2 75L0 75Z" fill="#a1b8cc"></path><path d="M0 411L29.2 389.5C58.3 368 116.7 325 174.8 285.5C233 246 291 210 349.2 213.5C407.3 217 465.7 260 523.8 281.5C582 303 640 303 698.2 288.7C756.3 274.3 814.7 245.7 872.8 267.3C931 289 989 361 1047.2 361C1105.3 361 1163.7 289 1221.8 272.8C1280 256.7 1338 296.3 1396.2 321.5C1454.3 346.7 1512.7 357.3 1570.8 344.7C1629 332 1687 296 1745.2 301.5C1803.3 307 1861.7 354 1890.8 377.5L1920 401L1920 96L1890.8 90.7C1861.7 85.3 1803.3 74.7 1745.2 74.7C1687 74.7 1629 85.3 1570.8 94.3C1512.7 103.3 1454.3 110.7 1396.2 103.5C1338 96.3 1280 74.7 1221.8 76.5C1163.7 78.3 1105.3 103.7 1047.2 114.5C989 125.3 931 121.7 872.8 114.3C814.7 107 756.3 96 698.2 101.3C640 106.7 582 128.3 523.8 126.7C465.7 125 407.3 100 349.2 91C291 82 233 89 174.8 98C116.7 107 58.3 118 29.2 123.5L0 129Z" fill="#b3c8d9"></path><path d="M0 487L29.2 458.2C58.3 429.3 116.7 371.7 174.8 326.7C233 281.7 291 249.3 349.2 251.2C407.3 253 465.7 289 523.8 314.2C582 339.3 640 353.7 698.2 344.7C756.3 335.7 814.7 303.3 872.8 325C931 346.7 989 422.3 1047.2 422.3C1105.3 422.3 1163.7 346.7 1221.8 330.5C1280 314.3 1338 357.7 1396.2 379.3C1454.3 401 1512.7 401 1570.8 384.7C1629 368.3 1687 335.7 1745.2 341C1803.3 346.3 1861.7 389.7 1890.8 411.3L1920 433L1920 399L1890.8 375.5C1861.7 352 1803.3 305 1745.2 299.5C1687 294 1629 330 1570.8 342.7C1512.7 355.3 1454.3 344.7 1396.2 319.5C1338 294.3 1280 254.7 1221.8 270.8C1163.7 287 1105.3 359 1047.2 359C989 359 931 287 872.8 265.3C814.7 243.7 756.3 272.3 698.2 286.7C640 301 582 301 523.8 279.5C465.7 258 407.3 215 349.2 211.5C291 208 233 244 174.8 283.5C116.7 323 58.3 366 29.2 387.5L0 409Z" fill="#bfd1e0"></path><path d="M0 573L29.2 549.7C58.3 526.3 116.7 479.7 174.8 431.2C233 382.7 291 332.3 349.2 328.7C407.3 325 465.7 368 523.8 400.3C582 432.7 640 454.3 698.2 441.8C756.3 429.3 814.7 382.7 872.8 400.7C931 418.7 989 501.3 1047.2 504.8C1105.3 508.3 1163.7 432.7 1221.8 411.2C1280 389.7 1338 422.3 1396.2 449.3C1454.3 476.3 1512.7 497.7 1570.8 492.2C1629 486.7 1687 454.3 1745.2 449C1803.3 443.7 1861.7 465.3 1890.8 476.2L1920 487L1920 431L1890.8 409.3C1861.7 387.7 1803.3 344.3 1745.2 339C1687 333.7 1629 366.3 1570.8 382.7C1512.7 399 1454.3 399 1396.2 377.3C1338 355.7 1280 312.3 1221.8 328.5C1163.7 344.7 1105.3 420.3 1047.2 420.3C989 420.3 931 344.7 872.8 323C814.7 301.3 756.3 333.7 698.2 342.7C640 351.7 582 337.3 523.8 312.2C465.7 287 407.3 251 349.2 249.2C291 247.3 233 279.7 174.8 324.7C116.7 369.7 58.3 427.3 29.2 456.2L0 485Z" fill="#cad8e5"></path><path d="M0 638L29.2 612.8C58.3 587.7 116.7 537.3 174.8 488.8C233 440.3 291 393.7 349.2 390C407.3 386.3 465.7 425.7 523.8 454.3C582 483 640 501 698.2 484.8C756.3 468.7 814.7 418.3 872.8 434.7C931 451 989 534 1047.2 544.8C1105.3 555.7 1163.7 494.3 1221.8 470.8C1280 447.3 1338 461.7 1396.2 490.5C1454.3 519.3 1512.7 562.7 1570.8 566.3C1629 570 1687 534 1745.2 526.8C1803.3 519.7 1861.7 541.3 1890.8 552.2L1920 563L1920 485L1890.8 474.2C1861.7 463.3 1803.3 441.7 1745.2 447C1687 452.3 1629 484.7 1570.8 490.2C1512.7 495.7 1454.3 474.3 1396.2 447.3C1338 420.3 1280 387.7 1221.8 409.2C1163.7 430.7 1105.3 506.3 1047.2 502.8C989 499.3 931 416.7 872.8 398.7C814.7 380.7 756.3 427.3 698.2 439.8C640 452.3 582 430.7 523.8 398.3C465.7 366 407.3 323 349.2 326.7C291 330.3 233 380.7 174.8 429.2C116.7 477.7 58.3 524.3 29.2 547.7L0 571Z" fill="#cedbe7"></path><path d="M0 681L29.2 654C58.3 627 116.7 573 174.8 526.3C233 479.7 291 440.3 349.2 435C407.3 429.7 465.7 458.3 523.8 487C582 515.7 640 544.3 698.2 530C756.3 515.7 814.7 458.3 872.8 469.2C931 480 989 559 1047.2 568C1105.3 577 1163.7 516 1221.8 498C1280 480 1338 505 1396.2 535.5C1454.3 566 1512.7 602 1570.8 605.7C1629 609.3 1687 580.7 1745.2 573.5C1803.3 566.3 1861.7 580.7 1890.8 587.8L1920 595L1920 561L1890.8 550.2C1861.7 539.3 1803.3 517.7 1745.2 524.8C1687 532 1629 568 1570.8 564.3C1512.7 560.7 1454.3 517.3 1396.2 488.5C1338 459.7 1280 445.3 1221.8 468.8C1163.7 492.3 1105.3 553.7 1047.2 542.8C989 532 931 449 872.8 432.7C814.7 416.3 756.3 466.7 698.2 482.8C640 499 582 481 523.8 452.3C465.7 423.7 407.3 384.3 349.2 388C291 391.7 233 438.3 174.8 486.8C116.7 535.3 58.3 585.7 29.2 610.8L0 636Z" fill="#cedbe7"></path><path d="M0 725L29.2 696.2C58.3 667.3 116.7 609.7 174.8 561C233 512.3 291 472.7 349.2 465.5C407.3 458.3 465.7 483.7 523.8 510.7C582 537.7 640 566.3 698.2 551.8C756.3 537.3 814.7 479.7 872.8 492.3C931 505 989 588 1047.2 604.2C1105.3 620.3 1163.7 569.7 1221.8 555.2C1280 540.7 1338 562.3 1396.2 585.8C1454.3 609.3 1512.7 634.7 1570.8 632.8C1629 631 1687 602 1745.2 600.2C1803.3 598.3 1861.7 623.7 1890.8 636.3L1920 649L1920 593L1890.8 585.8C1861.7 578.7 1803.3 564.3 1745.2 571.5C1687 578.7 1629 607.3 1570.8 603.7C1512.7 600 1454.3 564 1396.2 533.5C1338 503 1280 478 1221.8 496C1163.7 514 1105.3 575 1047.2 566C989 557 931 478 872.8 467.2C814.7 456.3 756.3 513.7 698.2 528C640 542.3 582 513.7 523.8 485C465.7 456.3 407.3 427.7 349.2 433C291 438.3 233 477.7 174.8 524.3C116.7 571 58.3 625 29.2 652L0 679Z" fill="#cad8e5"></path><path d="M0 800L29.2 764C58.3 728 116.7 656 174.8 612.8C233 569.7 291 555.3 349.2 550C407.3 544.7 465.7 548.3 523.8 570C582 591.7 640 631.3 698.2 622.3C756.3 613.3 814.7 555.7 872.8 566.3C931 577 989 656 1047.2 670.3C1105.3 684.7 1163.7 634.3 1221.8 616.3C1280 598.3 1338 612.7 1396.2 639.7C1454.3 666.7 1512.7 706.3 1570.8 711.8C1629 717.3 1687 688.7 1745.2 686.8C1803.3 685 1861.7 710 1890.8 722.5L1920 735L1920 647L1890.8 634.3C1861.7 621.7 1803.3 596.3 1745.2 598.2C1687 600 1629 629 1570.8 630.8C1512.7 632.7 1454.3 607.3 1396.2 583.8C1338 560.3 1280 538.7 1221.8 553.2C1163.7 567.7 1105.3 618.3 1047.2 602.2C989 586 931 503 872.8 490.3C814.7 477.7 756.3 535.3 698.2 549.8C640 564.3 582 535.7 523.8 508.7C465.7 481.7 407.3 456.3 349.2 463.5C291 470.7 233 510.3 174.8 559C116.7 607.7 58.3 665.3 29.2 694.2L0 723Z" fill="#bfd1e0"></path><path d="M0 897L29.2 879C58.3 861 116.7 825 174.8 796.3C233 767.7 291 746.3 349.2 737.3C407.3 728.3 465.7 731.7 523.8 746C582 760.3 640 785.7 698.2 776.7C756.3 767.7 814.7 724.3 872.8 724.3C931 724.3 989 767.7 1047.2 782.2C1105.3 796.7 1163.7 782.3 1221.8 768C1280 753.7 1338 739.3 1396.2 748.3C1454.3 757.3 1512.7 789.7 1570.8 805.8C1629 822 1687 822 1745.2 820.2C1803.3 818.3 1861.7 814.7 1890.8 812.8L1920 811L1920 733L1890.8 720.5C1861.7 708 1803.3 683 1745.2 684.8C1687 686.7 1629 715.3 1570.8 709.8C1512.7 704.3 1454.3 664.7 1396.2 637.7C1338 610.7 1280 596.3 1221.8 614.3C1163.7 632.3 1105.3 682.7 1047.2 668.3C989 654 931 575 872.8 564.3C814.7 553.7 756.3 611.3 698.2 620.3C640 629.3 582 589.7 523.8 568C465.7 546.3 407.3 542.7 349.2 548C291 553.3 233 567.7 174.8 610.8C116.7 654 58.3 726 29.2 762L0 798Z" fill="#b3c8d9"></path><path d="M0 1027L29.2 1023.3C58.3 1019.7 116.7 1012.3 174.8 1012.3C233 1012.3 291 1019.7 349.2 1007.2C407.3 994.7 465.7 962.3 523.8 955.2C582 948 640 966 698.2 973.2C756.3 980.3 814.7 976.7 872.8 971.2C931 965.7 989 958.3 1047.2 956.5C1105.3 954.7 1163.7 958.3 1221.8 971C1280 983.7 1338 1005.3 1396.2 1003.5C1454.3 1001.7 1512.7 976.3 1570.8 967.3C1629 958.3 1687 965.7 1745.2 974.7C1803.3 983.7 1861.7 994.3 1890.8 999.7L1920 1005L1920 809L1890.8 810.8C1861.7 812.7 1803.3 816.3 1745.2 818.2C1687 820 1629 820 1570.8 803.8C1512.7 787.7 1454.3 755.3 1396.2 746.3C1338 737.3 1280 751.7 1221.8 766C1163.7 780.3 1105.3 794.7 1047.2 780.2C989 765.7 931 722.3 872.8 722.3C814.7 722.3 756.3 765.7 698.2 774.7C640 783.7 582 758.3 523.8 744C465.7 729.7 407.3 726.3 349.2 735.3C291 744.3 233 765.7 174.8 794.3C116.7 823 58.3 859 29.2 877L0 895Z" fill="#a1b8cc"></path><path d="M0 1081L29.2 1081C58.3 1081 116.7 1081 174.8 1081C233 1081 291 1081 349.2 1081C407.3 1081 465.7 1081 523.8 1081C582 1081 640 1081 698.2 1081C756.3 1081 814.7 1081 872.8 1081C931 1081 989 1081 1047.2 1081C1105.3 1081 1163.7 1081 1221.8 1081C1280 1081 1338 1081 1396.2 1081C1454.3 1081 1512.7 1081 1570.8 1081C1629 1081 1687 1081 1745.2 1081C1803.3 1081 1861.7 1081 1890.8 1081L1920 1081L1920 1003L1890.8 997.7C1861.7 992.3 1803.3 981.7 1745.2 972.7C1687 963.7 1629 956.3 1570.8 965.3C1512.7 974.3 1454.3 999.7 1396.2 1001.5C1338 1003.3 1280 981.7 1221.8 969C1163.7 956.3 1105.3 952.7 1047.2 954.5C989 956.3 931 963.7 872.8 969.2C814.7 974.7 756.3 978.3 698.2 971.2C640 964 582 946 523.8 953.2C465.7 960.3 407.3 992.7 349.2 1005.2C291 1017.7 233 1010.3 174.8 1010.3C116.7 1010.3 58.3 1017.7 29.2 1021.3L0 1025Z" fill="#8fa9bf"></path></svg>