<svg id="visual" viewBox="0 0 1920 1200" width="1920" height="1200" xmlns="http://www.w3.org/2000/svg" xmlns:xlink="http://www.w3.org/1999/xlink" version="1.1"><rect x="0" y="0" width="1920" height="1200" fill="#73839b"></rect><defs><linearGradient id="grad1_0" x1="37.5%" y1="0%" x2="100%" y2="100%"><stop offset="17.999999999999996%" stop-color="#c8c6c3" stop-opacity="1"></stop><stop offset="82%" stop-color="#c8c6c3" stop-opacity="1"></stop></linearGradient></defs><defs><linearGradient id="grad1_1" x1="37.5%" y1="0%" x2="100%" y2="100%"><stop offset="17.999999999999996%" stop-color="#c8c6c3" stop-opacity="1"></stop><stop offset="82%" stop-color="#c2bbb6" stop-opacity="1"></stop></linearGradient></defs><defs><linearGradient id="grad1_2" x1="37.5%" y1="0%" x2="100%" y2="100%"><stop offset="17.999999999999996%" stop-color="#bdafad" stop-opacity="1"></stop><stop offset="82%" stop-color="#c2bbb6" stop-opacity="1"></stop></linearGradient></defs><defs><linearGradient id="grad1_3" x1="37.5%" y1="0%" x2="100%" y2="100%"><stop offset="17.999999999999996%" stop-color="#bdafad" stop-opacity="1"></stop><stop offset="82%" stop-color="#b7a4a6" stop-opacity="1"></stop></linearGradient></defs><defs><linearGradient id="grad1_4" x1="37.5%" y1="0%" x2="100%" y2="100%"><stop offset="17.999999999999996%" stop-color="#ad99a3" stop-opacity="1"></stop><stop offset="82%" stop-color="#b7a4a6" stop-opacity="1"></stop></linearGradient></defs><defs><linearGradient id="grad1_5" x1="37.5%" y1="0%" x2="100%" y2="100%"><stop offset="17.999999999999996%" stop-color="#ad99a3" stop-opacity="1"></stop><stop offset="82%" stop-color="#9e90a2" stop-opacity="1"></stop></linearGradient></defs><defs><linearGradient id="grad1_6" x1="37.5%" y1="0%" x2="100%" y2="100%"><stop offset="17.999999999999996%" stop-color="#8b89a0" stop-opacity="1"></stop><stop offset="82%" stop-color="#9e90a2" stop-opacity="1"></stop></linearGradient></defs><defs><linearGradient id="grad1_7" x1="37.5%" y1="0%" x2="100%" y2="100%"><stop offset="17.999999999999996%" stop-color="#8b89a0" stop-opacity="1"></stop><stop offset="82%" stop-color="#73839b" stop-opacity="1"></stop></linearGradient></defs><defs><linearGradient id="grad2_0" x1="0%" y1="0%" x2="62.5%" y2="100%"><stop offset="17.999999999999996%" stop-color="#c8c6c3" stop-opacity="1"></stop><stop offset="82%" stop-color="#c8c6c3" stop-opacity="1"></stop></linearGradient></defs><defs><linearGradient id="grad2_1" x1="0%" y1="0%" x2="62.5%" y2="100%"><stop offset="17.999999999999996%" stop-color="#c2bbb6" stop-opacity="1"></stop><stop offset="82%" stop-color="#c8c6c3" stop-opacity="1"></stop></linearGradient></defs><defs><linearGradient id="grad2_2" x1="0%" y1="0%" x2="62.5%" y2="100%"><stop offset="17.999999999999996%" stop-color="#c2bbb6" stop-opacity="1"></stop><stop offset="82%" stop-color="#bdafad" stop-opacity="1"></stop></linearGradient></defs><defs><linearGradient id="grad2_3" x1="0%" y1="0%" x2="62.5%" y2="100%"><stop offset="17.999999999999996%" stop-color="#b7a4a6" stop-opacity="1"></stop><stop offset="82%" stop-color="#bdafad" stop-opacity="1"></stop></linearGradient></defs><defs><linearGradient id="grad2_4" x1="0%" y1="0%" x2="62.5%" y2="100%"><stop offset="17.999999999999996%" stop-color="#b7a4a6" stop-opacity="1"></stop><stop offset="82%" stop-color="#ad99a3" stop-opacity="1"></stop></linearGradient></defs><defs><linearGradient id="grad2_5" x1="0%" y1="0%" x2="62.5%" y2="100%"><stop offset="17.999999999999996%" stop-color="#9e90a2" stop-opacity="1"></stop><stop offset="82%" stop-color="#ad99a3" stop-opacity="1"></stop></linearGradient></defs><defs><linearGradient id="grad2_6" x1="0%" y1="0%" x2="62.5%" y2="100%"><stop offset="17.999999999999996%" stop-color="#9e90a2" stop-opacity="1"></stop><stop offset="82%" stop-color="#8b89a0" stop-opacity="1"></stop></linearGradient></defs><defs><linearGradient id="grad2_7" x1="0%" y1="0%" x2="62.5%" y2="100%"><stop offset="17.999999999999996%" stop-color="#73839b" stop-opacity="1"></stop><stop offset="82%" stop-color="#8b89a0" stop-opacity="1"></stop></linearGradient></defs><g transform="translate(1920, 0)"><path d="M0 1023C-47.6 1078.5 -95.3 1133.9 -136.5 1123.8C-177.6 1113.7 -212.4 1038 -242.2 982.6C-272 927.1 -297 891.9 -333 878C-369 864 -416.1 871.4 -451.2 859.8C-486.4 848.2 -509.7 817.6 -568.1 823C-626.4 828.4 -719.8 869.8 -733.4 827.9C-747 785.9 -680.9 660.5 -681.1 603.4C-681.4 546.4 -748 557.6 -783.5 540.8C-818.9 524 -823.2 479.2 -844.7 443.3C-866.2 407.5 -904.9 380.6 -907 344C-909 307.4 -874.4 261 -919.5 226.6C-964.5 192.2 -1089.2 169.7 -1102.9 133.9C-1116.6 98.1 -1019.3 49.1 -922 0L0 0Z" fill="#7f869e"></path><path d="M0 895.1C-41.7 943.7 -83.4 992.2 -119.4 983.3C-155.4 974.5 -185.8 908.3 -211.9 859.8C-238 811.2 -259.8 780.4 -291.4 768.2C-322.9 756 -364.1 762.5 -394.8 752.3C-425.6 742.1 -446 715.4 -497.1 720.1C-548.1 724.9 -629.8 761.1 -641.7 724.4C-653.7 687.6 -595.8 578 -596 528C-596.2 478.1 -654.5 487.9 -685.5 473.2C-716.6 458.5 -720.3 419.3 -739.1 387.9C-757.9 356.6 -791.8 333 -793.6 301C-795.4 268.9 -765.1 228.4 -804.5 198.3C-844 168.2 -953.1 148.5 -965 117.2C-977 85.9 -891.9 42.9 -806.7 0L0 0Z" fill="#958da1"></path><path d="M0 767.3C-35.7 808.8 -71.5 850.4 -102.3 842.9C-133.2 835.3 -159.3 778.5 -181.6 736.9C-204 695.4 -222.7 668.9 -249.7 658.5C-276.7 648 -312 653.5 -338.4 644.8C-364.8 636.1 -382.3 613.2 -426 617.2C-469.8 621.3 -539.8 652.4 -550.1 620.9C-560.3 589.4 -510.7 495.4 -510.9 452.6C-511 409.8 -561 418.2 -587.6 405.6C-614.2 393 -617.4 359.4 -633.5 332.5C-649.7 305.6 -678.7 285.4 -680.2 258C-681.8 230.5 -655.8 195.8 -689.6 170C-723.4 144.2 -816.9 127.3 -827.2 100.4C-837.4 73.6 -764.5 36.8 -691.5 0L0 0Z" fill="#a695a2"></path><path d="M0 639.4C-29.8 674 -59.5 708.7 -85.3 702.4C-111 696.1 -132.7 648.8 -151.4 614.1C-170 579.5 -185.6 557.4 -208.1 548.7C-230.6 540 -260 544.6 -282 537.4C-304 530.1 -318.6 511 -355 514.4C-391.5 517.8 -449.9 543.6 -458.4 517.4C-466.9 491.2 -425.6 412.8 -425.7 377.2C-425.9 341.5 -467.5 348.5 -489.7 338C-511.8 327.5 -514.5 299.5 -528 277.1C-541.4 254.7 -565.6 237.9 -566.9 215C-568.1 192.1 -546.5 163.2 -574.7 141.6C-602.8 120.1 -680.8 106.1 -689.3 83.7C-697.9 61.3 -637.1 30.7 -576.2 0L0 0Z" fill="#b29ea4"></path><path d="M0 511.5C-23.8 539.2 -47.6 567 -68.2 561.9C-88.8 556.9 -106.2 519 -121.1 491.3C-136 463.6 -148.5 446 -166.5 439C-184.5 432 -208 435.7 -225.6 429.9C-243.2 424.1 -254.9 408.8 -284 411.5C-313.2 414.2 -359.9 434.9 -366.7 413.9C-373.5 392.9 -340.4 330.3 -340.6 301.7C-340.7 273.2 -374 278.8 -391.7 270.4C-409.5 262 -411.6 239.6 -422.4 221.7C-433.1 203.7 -452.5 190.3 -453.5 172C-454.5 153.7 -437.2 130.5 -459.7 113.3C-482.3 96.1 -544.6 84.9 -551.4 67C-558.3 49.1 -509.6 24.5 -461 0L0 0Z" fill="#baa9a9"></path><path d="M0 383.6C-17.9 404.4 -35.7 425.2 -51.2 421.4C-66.6 417.6 -79.6 389.3 -90.8 368.5C-102 347.7 -111.4 334.5 -124.9 329.2C-138.4 324 -156 326.8 -169.2 322.4C-182.4 318.1 -191.1 306.6 -213 308.6C-234.9 310.7 -269.9 326.2 -275 310.4C-280.1 294.7 -255.3 247.7 -255.4 226.3C-255.5 204.9 -280.5 209.1 -293.8 202.8C-307.1 196.5 -308.7 179.7 -316.8 166.3C-324.8 152.8 -339.3 142.7 -340.1 129C-340.9 115.3 -327.9 97.9 -344.8 85C-361.7 72.1 -408.5 63.6 -413.6 50.2C-418.7 36.8 -382.2 18.4 -345.7 0L0 0Z" fill="#c0b5b1"></path><path d="M0 255.8C-11.9 269.6 -23.8 283.5 -34.1 281C-44.4 278.4 -53.1 259.5 -60.5 245.6C-68 231.8 -74.2 223 -83.2 219.5C-92.2 216 -104 217.8 -112.8 214.9C-121.6 212 -127.4 204.4 -142 205.7C-156.6 207.1 -179.9 217.5 -183.4 207C-186.8 196.5 -170.2 165.1 -170.3 150.9C-170.3 136.6 -187 139.4 -195.9 135.2C-204.7 131 -205.8 119.8 -211.2 110.8C-216.6 101.9 -226.2 95.1 -226.7 86C-227.3 76.8 -218.6 65.3 -229.9 56.7C-241.1 48.1 -272.3 42.4 -275.7 33.5C-279.1 24.5 -254.8 12.3 -230.5 0L0 0Z" fill="#c5c0bc"></path><path d="M0 127.9C-6 134.8 -11.9 141.7 -17.1 140.5C-22.2 139.2 -26.5 129.8 -30.3 122.8C-34 115.9 -37.1 111.5 -41.6 109.7C-46.1 108 -52 108.9 -56.4 107.5C-60.8 106 -63.7 102.2 -71 102.9C-78.3 103.6 -90 108.7 -91.7 103.5C-93.4 98.2 -85.1 82.6 -85.1 75.4C-85.2 68.3 -93.5 69.7 -97.9 67.6C-102.4 65.5 -102.9 59.9 -105.6 55.4C-108.3 50.9 -113.1 47.6 -113.4 43C-113.6 38.4 -109.3 32.6 -114.9 28.3C-120.6 24 -136.2 21.2 -137.9 16.7C-139.6 12.3 -127.4 6.1 -115.2 0L0 0Z" fill="#c8c6c3"></path></g><g transform="translate(0, 1200)"><path d="M0 -939C46.9 -1022.7 93.9 -1106.5 135.7 -1117.8C177.6 -1129.1 214.3 -1067.9 258.7 -1049.6C303.1 -1031.2 355.1 -1055.7 397.2 -1047.2C439.2 -1038.8 471.4 -997.4 509.3 -970.5C547.3 -943.5 591 -931.1 622 -901.2C653.1 -871.2 671.4 -823.8 702.9 -793.4C734.4 -763 779.1 -749.7 822.6 -728.8C866.2 -707.8 908.6 -679.3 912.7 -630C916.8 -580.7 882.6 -510.8 889.9 -467C897.2 -423.3 945.9 -405.9 996.7 -378C1047.5 -350.1 1100.4 -311.9 1070 -263.7C1039.5 -215.6 925.8 -157.6 922.2 -112C918.7 -66.4 1025.4 -33.2 1132.1 0L0 0Z" fill="#7f869e"></path><path d="M0 -821.6C41.1 -894.9 82.1 -968.2 118.8 -978.1C155.4 -988 187.5 -934.4 226.4 -918.4C265.2 -902.3 310.7 -923.7 347.5 -916.3C384.3 -908.9 412.5 -872.7 445.7 -849.2C478.9 -825.6 517.1 -814.7 544.3 -788.5C571.4 -762.3 587.5 -720.8 615 -694.2C642.6 -667.7 681.7 -656 719.8 -637.7C757.9 -619.3 795 -594.3 798.6 -551.2C802.2 -508.1 772.3 -446.9 778.6 -408.7C785 -370.4 827.7 -355.1 872.1 -330.8C916.6 -306.4 962.9 -272.9 936.2 -230.8C909.6 -188.6 810 -137.9 806.9 -98C803.9 -58.1 897.2 -29 990.6 0L0 0Z" fill="#958da1"></path><path d="M0 -704.2C35.2 -767.1 70.4 -829.9 101.8 -838.3C133.2 -846.8 160.7 -801 194 -787.2C227.3 -773.4 266.3 -791.8 297.9 -785.4C329.4 -779.1 353.5 -748 382 -727.8C410.5 -707.7 443.2 -698.3 466.5 -675.9C489.8 -653.4 503.6 -617.8 527.2 -595.1C550.8 -572.3 584.3 -562.3 617 -546.6C649.6 -530.9 681.4 -509.4 684.5 -472.5C687.6 -435.5 662 -383.1 667.4 -350.3C672.9 -317.5 709.4 -304.4 747.5 -283.5C785.7 -262.6 825.3 -233.9 802.5 -197.8C779.6 -161.7 694.3 -118.2 691.7 -84C689 -49.8 769 -24.9 849.1 0L0 0Z" fill="#a695a2"></path><path d="M0 -586.9C29.3 -639.2 58.7 -691.6 84.8 -698.6C111 -705.7 134 -667.5 161.7 -656C189.4 -644.5 221.9 -659.8 248.2 -654.5C274.5 -649.2 294.6 -623.4 318.3 -606.5C342 -589.7 369.4 -581.9 388.8 -563.2C408.2 -544.5 419.6 -514.9 439.3 -495.9C459 -476.9 486.9 -468.6 514.1 -455.5C541.3 -442.4 567.9 -424.5 570.4 -393.7C573 -362.9 551.6 -319.2 556.2 -291.9C560.7 -264.6 591.2 -253.7 623 -236.3C654.7 -218.8 687.8 -194.9 668.7 -164.8C649.7 -134.7 578.6 -98.5 576.4 -70C574.2 -41.5 640.9 -20.7 707.5 0L0 0Z" fill="#b29ea4"></path><path d="M0 -469.5C23.5 -511.4 46.9 -553.2 67.9 -558.9C88.8 -564.5 107.2 -534 129.4 -524.8C151.5 -515.6 177.5 -527.8 198.6 -523.6C219.6 -519.4 235.7 -498.7 254.7 -485.2C273.6 -471.8 295.5 -465.6 311 -450.6C326.5 -435.6 335.7 -411.9 351.5 -396.7C367.2 -381.5 389.5 -374.9 411.3 -364.4C433.1 -353.9 454.3 -339.6 456.3 -315C458.4 -290.4 441.3 -255.4 444.9 -233.5C448.6 -211.7 473 -202.9 498.4 -189C523.8 -175.1 550.2 -155.9 535 -131.9C519.8 -107.8 462.9 -78.8 461.1 -56C459.3 -33.2 512.7 -16.6 566 0L0 0Z" fill="#baa9a9"></path><path d="M0 -352.1C17.6 -383.5 35.2 -414.9 50.9 -419.2C66.6 -423.4 80.4 -400.5 97 -393.6C113.7 -386.7 133.2 -395.9 148.9 -392.7C164.7 -389.5 176.8 -374 191 -363.9C205.2 -353.8 221.6 -349.2 233.3 -337.9C244.9 -326.7 251.8 -308.9 263.6 -297.5C275.4 -286.1 292.2 -281.1 308.5 -273.3C324.8 -265.4 340.7 -254.7 342.3 -236.2C343.8 -217.8 331 -191.5 333.7 -175.1C336.4 -158.8 354.7 -152.2 373.8 -141.8C392.8 -131.3 412.7 -117 401.2 -98.9C389.8 -80.8 347.2 -59.1 345.8 -42C344.5 -24.9 384.5 -12.4 424.5 0L0 0Z" fill="#c0b5b1"></path><path d="M0 -234.7C11.7 -255.7 23.5 -276.6 33.9 -279.4C44.4 -282.3 53.6 -267 64.7 -262.4C75.8 -257.8 88.8 -263.9 99.3 -261.8C109.8 -259.7 117.8 -249.3 127.3 -242.6C136.8 -235.9 147.7 -232.8 155.5 -225.3C163.3 -217.8 167.9 -205.9 175.7 -198.4C183.6 -190.8 194.8 -187.4 205.7 -182.2C216.5 -177 227.1 -169.8 228.2 -157.5C229.2 -145.2 220.7 -127.7 222.5 -116.8C224.3 -105.8 236.5 -101.5 249.2 -94.5C261.9 -87.5 275.1 -78 267.5 -65.9C259.9 -53.9 231.4 -39.4 230.6 -28C229.7 -16.6 256.3 -8.3 283 0L0 0Z" fill="#c5c0bc"></path><path d="M0 -117.4C5.9 -127.8 11.7 -138.3 17 -139.7C22.2 -141.1 26.8 -133.5 32.3 -131.2C37.9 -128.9 44.4 -132 49.6 -130.9C54.9 -129.8 58.9 -124.7 63.7 -121.3C68.4 -117.9 73.9 -116.4 77.8 -112.6C81.6 -108.9 83.9 -103 87.9 -99.2C91.8 -95.4 97.4 -93.7 102.8 -91.1C108.3 -88.5 113.6 -84.9 114.1 -78.7C114.6 -72.6 110.3 -63.8 111.2 -58.4C112.1 -52.9 118.2 -50.7 124.6 -47.3C130.9 -43.8 137.6 -39 133.7 -33C129.9 -26.9 115.7 -19.7 115.3 -14C114.8 -8.3 128.2 -4.1 141.5 0L0 0Z" fill="#c8c6c3"></path></g></svg>