<svg id="visual" viewBox="0 0 1920 1080" width="1920" height="1080" xmlns="http://www.w3.org/2000/svg" xmlns:xlink="http://www.w3.org/1999/xlink" version="1.1"><path d="M0 33L16 38.5C32 44 64 55 96 55C128 55 160 44 192 38.5C224 33 256 33 288 36.7C320 40.3 352 47.7 384 47.7C416 47.7 448 40.3 480 38.5C512 36.7 544 40.3 576 45.8C608 51.3 640 58.7 672 60.5C704 62.3 736 58.7 768 58.7C800 58.7 832 62.3 864 64.2C896 66 928 66 960 66C992 66 1024 66 1056 60.5C1088 55 1120 44 1152 40.3C1184 36.7 1216 40.3 1248 45.8C1280 51.3 1312 58.7 1344 62.3C1376 66 1408 66 1440 64.2C1472 62.3 1504 58.7 1536 56.8C1568 55 1600 55 1632 51.3C1664 47.7 1696 40.3 1728 40.3C1760 40.3 1792 47.7 1824 53.2C1856 58.7 1888 62.3 1904 64.2L1920 66L1920 0L1904 0C1888 0 1856 0 1824 0C1792 0 1760 0 1728 0C1696 0 1664 0 1632 0C1600 0 1568 0 1536 0C1504 0 1472 0 1440 0C1408 0 1376 0 1344 0C1312 0 1280 0 1248 0C1216 0 1184 0 1152 0C1120 0 1088 0 1056 0C1024 0 992 0 960 0C928 0 896 0 864 0C832 0 800 0 768 0C736 0 704 0 672 0C640 0 608 0 576 0C544 0 512 0 480 0C448 0 416 0 384 0C352 0 320 0 288 0C256 0 224 0 192 0C160 0 128 0 96 0C64 0 32 0 16 0L0 0Z" fill="#32665b"></path><path d="M0 109L16 110.8C32 112.7 64 116.3 96 120C128 123.7 160 127.3 192 125.5C224 123.7 256 116.3 288 112.7C320 109 352 109 384 110.8C416 112.7 448 116.3 480 121.7C512 127 544 134 576 137.5C608 141 640 141 672 141C704 141 736 141 768 137.5C800 134 832 127 864 121.7C896 116.3 928 112.7 960 112.7C992 112.7 1024 116.3 1056 111C1088 105.7 1120 91.3 1152 87.7C1184 84 1216 91 1248 98.2C1280 105.3 1312 112.7 1344 116.3C1376 120 1408 120 1440 123.5C1472 127 1504 134 1536 134C1568 134 1600 127 1632 119.8C1664 112.7 1696 105.3 1728 107.2C1760 109 1792 120 1824 123.7C1856 127.3 1888 123.7 1904 121.8L1920 120L1920 64L1904 62.2C1888 60.3 1856 56.7 1824 51.2C1792 45.7 1760 38.3 1728 38.3C1696 38.3 1664 45.7 1632 49.3C1600 53 1568 53 1536 54.8C1504 56.7 1472 60.3 1440 62.2C1408 64 1376 64 1344 60.3C1312 56.7 1280 49.3 1248 43.8C1216 38.3 1184 34.7 1152 38.3C1120 42 1088 53 1056 58.5C1024 64 992 64 960 64C928 64 896 64 864 62.2C832 60.3 800 56.7 768 56.7C736 56.7 704 60.3 672 58.5C640 56.7 608 49.3 576 43.8C544 38.3 512 34.7 480 36.5C448 38.3 416 45.7 384 45.7C352 45.7 320 38.3 288 34.7C256 31 224 31 192 36.5C160 42 128 53 96 53C64 53 32 42 16 36.5L0 31Z" fill="#436d5a"></path><path d="M0 282L16 283.8C32 285.7 64 289.3 96 278.5C128 267.7 160 242.3 192 224.3C224 206.3 256 195.7 288 192C320 188.3 352 191.7 384 202.3C416 213 448 231 480 247.3C512 263.7 544 278.3 576 283.8C608 289.3 640 285.7 672 283.8C704 282 736 282 768 280.2C800 278.3 832 274.7 864 267.5C896 260.3 928 249.7 960 247.8C992 246 1024 253 1056 242.2C1088 231.3 1120 202.7 1152 190.2C1184 177.7 1216 181.3 1248 183.2C1280 185 1312 185 1344 188.5C1376 192 1408 199 1440 206.2C1472 213.3 1504 220.7 1536 231.5C1568 242.3 1600 256.7 1632 260.2C1664 263.7 1696 256.3 1728 254.5C1760 252.7 1792 256.3 1824 251C1856 245.7 1888 231.3 1904 224.2L1920 217L1920 118L1904 119.8C1888 121.7 1856 125.3 1824 121.7C1792 118 1760 107 1728 105.2C1696 103.3 1664 110.7 1632 117.8C1600 125 1568 132 1536 132C1504 132 1472 125 1440 121.5C1408 118 1376 118 1344 114.3C1312 110.7 1280 103.3 1248 96.2C1216 89 1184 82 1152 85.7C1120 89.3 1088 103.7 1056 109C1024 114.3 992 110.7 960 110.7C928 110.7 896 114.3 864 119.7C832 125 800 132 768 135.5C736 139 704 139 672 139C640 139 608 139 576 135.5C544 132 512 125 480 119.7C448 114.3 416 110.7 384 108.8C352 107 320 107 288 110.7C256 114.3 224 121.7 192 123.5C160 125.3 128 121.7 96 118C64 114.3 32 110.7 16 108.8L0 107Z" fill="#54745b"></path><path d="M0 336L16 339.5C32 343 64 350 96 339.2C128 328.3 160 299.7 192 287.2C224 274.7 256 278.3 288 280.2C320 282 352 282 384 291C416 300 448 318 480 328.8C512 339.7 544 343.3 576 346.8C608 350.3 640 353.7 672 355.3C704 357 736 357 768 358.8C800 360.7 832 364.3 864 364.3C896 364.3 928 360.7 960 366.2C992 371.7 1024 386.3 1056 373.8C1088 361.3 1120 321.7 1152 307.2C1184 292.7 1216 303.3 1248 305.2C1280 307 1312 300 1344 305.5C1376 311 1408 329 1440 339.7C1472 350.3 1504 353.7 1536 359C1568 364.3 1600 371.7 1632 370C1664 368.3 1696 357.7 1728 348.7C1760 339.7 1792 332.3 1824 325C1856 317.7 1888 310.3 1904 306.7L1920 303L1920 215L1904 222.2C1888 229.3 1856 243.7 1824 249C1792 254.3 1760 250.7 1728 252.5C1696 254.3 1664 261.7 1632 258.2C1600 254.7 1568 240.3 1536 229.5C1504 218.7 1472 211.3 1440 204.2C1408 197 1376 190 1344 186.5C1312 183 1280 183 1248 181.2C1216 179.3 1184 175.7 1152 188.2C1120 200.7 1088 229.3 1056 240.2C1024 251 992 244 960 245.8C928 247.7 896 258.3 864 265.5C832 272.7 800 276.3 768 278.2C736 280 704 280 672 281.8C640 283.7 608 287.3 576 281.8C544 276.3 512 261.7 480 245.3C448 229 416 211 384 200.3C352 189.7 320 186.3 288 190C256 193.7 224 204.3 192 222.3C160 240.3 128 265.7 96 276.5C64 287.3 32 283.7 16 281.8L0 280Z" fill="#657a5c"></path><path d="M0 433L16 431.2C32 429.3 64 425.7 96 414.8C128 404 160 386 192 378.8C224 371.7 256 375.3 288 377.2C320 379 352 379 384 389.8C416 400.7 448 422.3 480 431.3C512 440.3 544 436.7 576 438.5C608 440.3 640 447.7 672 442.3C704 437 736 419 768 420.7C800 422.3 832 443.7 864 447.2C896 450.7 928 436.3 960 438.2C992 440 1024 458 1056 441.8C1088 425.7 1120 375.3 1152 362.8C1184 350.3 1216 375.7 1248 388.3C1280 401 1312 401 1344 406.3C1376 411.7 1408 422.3 1440 431.3C1472 440.3 1504 447.7 1536 453C1568 458.3 1600 461.7 1632 461.7C1664 461.7 1696 458.3 1728 445.8C1760 433.3 1792 411.7 1824 402.7C1856 393.7 1888 397.3 1904 399.2L1920 401L1920 301L1904 304.7C1888 308.3 1856 315.7 1824 323C1792 330.3 1760 337.7 1728 346.7C1696 355.7 1664 366.3 1632 368C1600 369.7 1568 362.3 1536 357C1504 351.7 1472 348.3 1440 337.7C1408 327 1376 309 1344 303.5C1312 298 1280 305 1248 303.2C1216 301.3 1184 290.7 1152 305.2C1120 319.7 1088 359.3 1056 371.8C1024 384.3 992 369.7 960 364.2C928 358.7 896 362.3 864 362.3C832 362.3 800 358.7 768 356.8C736 355 704 355 672 353.3C640 351.7 608 348.3 576 344.8C544 341.3 512 337.7 480 326.8C448 316 416 298 384 289C352 280 320 280 288 278.2C256 276.3 224 272.7 192 285.2C160 297.7 128 326.3 96 337.2C64 348 32 341 16 337.5L0 334Z" fill="#76805f"></path><path d="M0 455L16 456.7C32 458.3 64 461.7 96 452.7C128 443.7 160 422.3 192 411.7C224 401 256 401 288 404.5C320 408 352 415 384 431.2C416 447.3 448 472.7 480 479.8C512 487 544 476 576 474.2C608 472.3 640 479.7 672 472.5C704 465.3 736 443.7 768 449C800 454.3 832 486.7 864 493.8C896 501 928 483 960 479.5C992 476 1024 487 1056 472.7C1088 458.3 1120 418.7 1152 407.8C1184 397 1216 415 1248 424C1280 433 1312 433 1344 440.2C1376 447.3 1408 461.7 1440 470.7C1472 479.7 1504 483.3 1536 490.5C1568 497.7 1600 508.3 1632 510.2C1664 512 1696 505 1728 488.8C1760 472.7 1792 447.3 1824 438.3C1856 429.3 1888 436.7 1904 440.3L1920 444L1920 399L1904 397.2C1888 395.3 1856 391.7 1824 400.7C1792 409.7 1760 431.3 1728 443.8C1696 456.3 1664 459.7 1632 459.7C1600 459.7 1568 456.3 1536 451C1504 445.7 1472 438.3 1440 429.3C1408 420.3 1376 409.7 1344 404.3C1312 399 1280 399 1248 386.3C1216 373.7 1184 348.3 1152 360.8C1120 373.3 1088 423.7 1056 439.8C1024 456 992 438 960 436.2C928 434.3 896 448.7 864 445.2C832 441.7 800 420.3 768 418.7C736 417 704 435 672 440.3C640 445.7 608 438.3 576 436.5C544 434.7 512 438.3 480 429.3C448 420.3 416 398.7 384 387.8C352 377 320 377 288 375.2C256 373.3 224 369.7 192 376.8C160 384 128 402 96 412.8C64 423.7 32 427.3 16 429.2L0 431Z" fill="#878564"></path><path d="M0 530L16 526.5C32 523 64 516 96 499.8C128 483.7 160 458.3 192 454.7C224 451 256 469 288 476.2C320 483.3 352 479.7 384 490.5C416 501.3 448 526.7 480 532.2C512 537.7 544 523.3 576 525.2C608 527 640 545 672 543.2C704 541.3 736 519.7 768 525C800 530.3 832 562.7 864 568C896 573.3 928 551.7 960 542.7C992 533.7 1024 537.3 1056 524.8C1088 512.3 1120 483.7 1152 478.3C1184 473 1216 491 1248 494.5C1280 498 1312 487 1344 488.7C1376 490.3 1408 504.7 1440 511.8C1472 519 1504 519 1536 524.5C1568 530 1600 541 1632 544.7C1664 548.3 1696 544.7 1728 533.8C1760 523 1792 505 1824 499.7C1856 494.3 1888 501.7 1904 505.3L1920 509L1920 442L1904 438.3C1888 434.7 1856 427.3 1824 436.3C1792 445.3 1760 470.7 1728 486.8C1696 503 1664 510 1632 508.2C1600 506.3 1568 495.7 1536 488.5C1504 481.3 1472 477.7 1440 468.7C1408 459.7 1376 445.3 1344 438.2C1312 431 1280 431 1248 422C1216 413 1184 395 1152 405.8C1120 416.7 1088 456.3 1056 470.7C1024 485 992 474 960 477.5C928 481 896 499 864 491.8C832 484.7 800 452.3 768 447C736 441.7 704 463.3 672 470.5C640 477.7 608 470.3 576 472.2C544 474 512 485 480 477.8C448 470.7 416 445.3 384 429.2C352 413 320 406 288 402.5C256 399 224 399 192 409.7C160 420.3 128 441.7 96 450.7C64 459.7 32 456.3 16 454.7L0 453Z" fill="#978b6b"></path><path d="M0 563L16 557.5C32 552 64 541 96 526.5C128 512 160 494 192 492.2C224 490.3 256 504.7 288 513.7C320 522.7 352 526.3 384 540.8C416 555.3 448 580.7 480 584.3C512 588 544 570 576 570C608 570 640 588 672 588C704 588 736 570 768 571.8C800 573.7 832 595.3 864 597.2C896 599 928 581 960 577.3C992 573.7 1024 584.3 1056 571.7C1088 559 1120 523 1152 514C1184 505 1216 523 1248 530.2C1280 537.3 1312 533.7 1344 535.5C1376 537.3 1408 544.7 1440 551.8C1472 559 1504 566 1536 569.5C1568 573 1600 573 1632 576.7C1664 580.3 1696 587.7 1728 580.5C1760 573.3 1792 551.7 1824 542.7C1856 533.7 1888 537.3 1904 539.2L1920 541L1920 507L1904 503.3C1888 499.7 1856 492.3 1824 497.7C1792 503 1760 521 1728 531.8C1696 542.7 1664 546.3 1632 542.7C1600 539 1568 528 1536 522.5C1504 517 1472 517 1440 509.8C1408 502.7 1376 488.3 1344 486.7C1312 485 1280 496 1248 492.5C1216 489 1184 471 1152 476.3C1120 481.7 1088 510.3 1056 522.8C1024 535.3 992 531.7 960 540.7C928 549.7 896 571.3 864 566C832 560.7 800 528.3 768 523C736 517.7 704 539.3 672 541.2C640 543 608 525 576 523.2C544 521.3 512 535.7 480 530.2C448 524.7 416 499.3 384 488.5C352 477.7 320 481.3 288 474.2C256 467 224 449 192 452.7C160 456.3 128 481.7 96 497.8C64 514 32 521 16 524.5L0 528Z" fill="#a69074"></path><path d="M0 735L16 727.8C32 720.7 64 706.3 96 713.7C128 721 160 750 192 768C224 786 256 793 288 794.7C320 796.3 352 792.7 384 805.3C416 818 448 847 480 857.8C512 868.7 544 861.3 576 836.2C608 811 640 768 672 764.5C704 761 736 797 768 813.2C800 829.3 832 825.7 864 816.7C896 807.7 928 793.3 960 789.7C992 786 1024 793 1056 787.5C1088 782 1120 764 1152 765.8C1184 767.7 1216 789.3 1248 793C1280 796.7 1312 782.3 1344 764.3C1376 746.3 1408 724.7 1440 728.2C1472 731.7 1504 760.3 1536 785.5C1568 810.7 1600 832.3 1632 836C1664 839.7 1696 825.3 1728 805.5C1760 785.7 1792 760.3 1824 764C1856 767.7 1888 800.3 1904 816.7L1920 833L1920 539L1904 537.2C1888 535.3 1856 531.7 1824 540.7C1792 549.7 1760 571.3 1728 578.5C1696 585.7 1664 578.3 1632 574.7C1600 571 1568 571 1536 567.5C1504 564 1472 557 1440 549.8C1408 542.7 1376 535.3 1344 533.5C1312 531.7 1280 535.3 1248 528.2C1216 521 1184 503 1152 512C1120 521 1088 557 1056 569.7C1024 582.3 992 571.7 960 575.3C928 579 896 597 864 595.2C832 593.3 800 571.7 768 569.8C736 568 704 586 672 586C640 586 608 568 576 568C544 568 512 586 480 582.3C448 578.7 416 553.3 384 538.8C352 524.3 320 520.7 288 511.7C256 502.7 224 488.3 192 490.2C160 492 128 510 96 524.5C64 539 32 550 16 555.5L0 561Z" fill="#b5967f"></path><path d="M0 800L16 794.7C32 789.3 64 778.7 96 785.8C128 793 160 818 192 828.8C224 839.7 256 836.3 288 836.3C320 836.3 352 839.7 384 854C416 868.3 448 893.7 480 906.3C512 919 544 919 576 899.2C608 879.3 640 839.7 672 837.8C704 836 736 872 768 882.8C800 893.7 832 879.3 864 870.3C896 861.3 928 857.7 960 855.8C992 854 1024 854 1056 846.8C1088 839.7 1120 825.3 1152 830.8C1184 836.3 1216 861.7 1248 867C1280 872.3 1312 857.7 1344 836C1376 814.3 1408 785.7 1440 784C1472 782.3 1504 807.7 1536 829.3C1568 851 1600 869 1632 874.3C1664 879.7 1696 872.3 1728 856C1760 839.7 1792 814.3 1824 819.7C1856 825 1888 861 1904 879L1920 897L1920 831L1904 814.7C1888 798.3 1856 765.7 1824 762C1792 758.3 1760 783.7 1728 803.5C1696 823.3 1664 837.7 1632 834C1600 830.3 1568 808.7 1536 783.5C1504 758.3 1472 729.7 1440 726.2C1408 722.7 1376 744.3 1344 762.3C1312 780.3 1280 794.7 1248 791C1216 787.3 1184 765.7 1152 763.8C1120 762 1088 780 1056 785.5C1024 791 992 784 960 787.7C928 791.3 896 805.7 864 814.7C832 823.7 800 827.3 768 811.2C736 795 704 759 672 762.5C640 766 608 809 576 834.2C544 859.3 512 866.7 480 855.8C448 845 416 816 384 803.3C352 790.7 320 794.3 288 792.7C256 791 224 784 192 766C160 748 128 719 96 711.7C64 704.3 32 718.7 16 725.8L0 733Z" fill="#c29c8c"></path><path d="M0 1027L16 1030.7C32 1034.3 64 1041.7 96 1039.8C128 1038 160 1027 192 1019.7C224 1012.3 256 1008.7 288 1010.5C320 1012.3 352 1019.7 384 1027C416 1034.3 448 1041.7 480 1043.5C512 1045.3 544 1041.7 576 1038C608 1034.3 640 1030.7 672 1030.7C704 1030.7 736 1034.3 768 1032.5C800 1030.7 832 1023.3 864 1019.7C896 1016 928 1016 960 1017.8C992 1019.7 1024 1023.3 1056 1023.3C1088 1023.3 1120 1019.7 1152 1021.5C1184 1023.3 1216 1030.7 1248 1034.3C1280 1038 1312 1038 1344 1036.2C1376 1034.3 1408 1030.7 1440 1030.7C1472 1030.7 1504 1034.3 1536 1032.5C1568 1030.7 1600 1023.3 1632 1023.3C1664 1023.3 1696 1030.7 1728 1030.7C1760 1030.7 1792 1023.3 1824 1025.2C1856 1027 1888 1038 1904 1043.5L1920 1049L1920 895L1904 877C1888 859 1856 823 1824 817.7C1792 812.3 1760 837.7 1728 854C1696 870.3 1664 877.7 1632 872.3C1600 867 1568 849 1536 827.3C1504 805.7 1472 780.3 1440 782C1408 783.7 1376 812.3 1344 834C1312 855.7 1280 870.3 1248 865C1216 859.7 1184 834.3 1152 828.8C1120 823.3 1088 837.7 1056 844.8C1024 852 992 852 960 853.8C928 855.7 896 859.3 864 868.3C832 877.3 800 891.7 768 880.8C736 870 704 834 672 835.8C640 837.7 608 877.3 576 897.2C544 917 512 917 480 904.3C448 891.7 416 866.3 384 852C352 837.7 320 834.3 288 834.3C256 834.3 224 837.7 192 826.8C160 816 128 791 96 783.8C64 776.7 32 787.3 16 792.7L0 798Z" fill="#cda39b"></path><path d="M0 1081L16 1081C32 1081 64 1081 96 1081C128 1081 160 1081 192 1081C224 1081 256 1081 288 1081C320 1081 352 1081 384 1081C416 1081 448 1081 480 1081C512 1081 544 1081 576 1081C608 1081 640 1081 672 1081C704 1081 736 1081 768 1081C800 1081 832 1081 864 1081C896 1081 928 1081 960 1081C992 1081 1024 1081 1056 1081C1088 1081 1120 1081 1152 1081C1184 1081 1216 1081 1248 1081C1280 1081 1312 1081 1344 1081C1376 1081 1408 1081 1440 1081C1472 1081 1504 1081 1536 1081C1568 1081 1600 1081 1632 1081C1664 1081 1696 1081 1728 1081C1760 1081 1792 1081 1824 1081C1856 1081 1888 1081 1904 1081L1920 1081L1920 1047L1904 1041.5C1888 1036 1856 1025 1824 1023.2C1792 1021.3 1760 1028.7 1728 1028.7C1696 1028.7 1664 1021.3 1632 1021.3C1600 1021.3 1568 1028.7 1536 1030.5C1504 1032.3 1472 1028.7 1440 1028.7C1408 1028.7 1376 1032.3 1344 1034.2C1312 1036 1280 1036 1248 1032.3C1216 1028.7 1184 1021.3 1152 1019.5C1120 1017.7 1088 1021.3 1056 1021.3C1024 1021.3 992 1017.7 960 1015.8C928 1014 896 1014 864 1017.7C832 1021.3 800 1028.7 768 1030.5C736 1032.3 704 1028.7 672 1028.7C640 1028.7 608 1032.3 576 1036C544 1039.7 512 1043.3 480 1041.5C448 1039.7 416 1032.3 384 1025C352 1017.7 320 1010.3 288 1008.5C256 1006.7 224 1010.3 192 1017.7C160 1025 128 1036 96 1037.8C64 1039.7 32 1032.3 16 1028.7L0 1025Z" fill="#d6aaaa"></path></svg>