<svg id="visual" viewBox="0 0 1920 1080" width="1920" height="1080" xmlns="http://www.w3.org/2000/svg" xmlns:xlink="http://www.w3.org/1999/xlink" version="1.1"><path d="M0 55L13.8 55C27.7 55 55.3 55 83.2 53.2C111 51.3 139 47.7 166.8 45.8C194.7 44 222.3 44 250.2 44C278 44 306 44 333.8 45.8C361.7 47.7 389.3 51.3 417.2 53.2C445 55 473 55 500.8 55C528.7 55 556.3 55 584.2 55C612 55 640 55 667.8 55C695.7 55 723.3 55 751.2 55C779 55 807 55 834.8 53.2C862.7 51.3 890.3 47.7 918.2 47.7C946 47.7 974 51.3 1001.8 53.2C1029.7 55 1057.3 55 1085.2 53.2C1113 51.3 1141 47.7 1168.8 45.8C1196.7 44 1224.3 44 1252.2 45.8C1280 47.7 1308 51.3 1335.8 53.2C1363.7 55 1391.3 55 1419.2 55C1447 55 1475 55 1502.8 55C1530.7 55 1558.3 55 1586.2 53.2C1614 51.3 1642 47.7 1669.8 47.7C1697.7 47.7 1725.3 51.3 1753.2 51.3C1781 51.3 1809 47.7 1836.8 47.7C1864.7 47.7 1892.3 51.3 1906.2 53.2L1920 55L1920 0L1906.2 0C1892.3 0 1864.7 0 1836.8 0C1809 0 1781 0 1753.2 0C1725.3 0 1697.7 0 1669.8 0C1642 0 1614 0 1586.2 0C1558.3 0 1530.7 0 1502.8 0C1475 0 1447 0 1419.2 0C1391.3 0 1363.7 0 1335.8 0C1308 0 1280 0 1252.2 0C1224.3 0 1196.7 0 1168.8 0C1141 0 1113 0 1085.2 0C1057.3 0 1029.7 0 1001.8 0C974 0 946 0 918.2 0C890.3 0 862.7 0 834.8 0C807 0 779 0 751.2 0C723.3 0 695.7 0 667.8 0C640 0 612 0 584.2 0C556.3 0 528.7 0 500.8 0C473 0 445 0 417.2 0C389.3 0 361.7 0 333.8 0C306 0 278 0 250.2 0C222.3 0 194.7 0 166.8 0C139 0 111 0 83.2 0C55.3 0 27.7 0 13.8 0L0 0Z" fill="#c3afaf"></path><path d="M0 260L13.8 263.7C27.7 267.3 55.3 274.7 83.2 280.2C111 285.7 139 289.3 166.8 289.3C194.7 289.3 222.3 285.7 250.2 273C278 260.3 306 238.7 333.8 235C361.7 231.3 389.3 245.7 417.2 258.3C445 271 473 282 500.8 283.8C528.7 285.7 556.3 278.3 584.2 276.5C612 274.7 640 278.3 667.8 274.7C695.7 271 723.3 260 751.2 251C779 242 807 235 834.8 227.8C862.7 220.7 890.3 213.3 918.2 211.5C946 209.7 974 213.3 1001.8 218.8C1029.7 224.3 1057.3 231.7 1085.2 240.7C1113 249.7 1141 260.3 1168.8 262C1196.7 263.7 1224.3 256.3 1252.2 251C1280 245.7 1308 242.3 1335.8 251.3C1363.7 260.3 1391.3 281.7 1419.2 283.3C1447 285 1475 267 1502.8 263.5C1530.7 260 1558.3 271 1586.2 271C1614 271 1642 260 1669.8 254.5C1697.7 249 1725.3 249 1753.2 256.3C1781 263.7 1809 278.3 1836.8 285.7C1864.7 293 1892.3 293 1906.2 293L1920 293L1920 53L1906.2 51.2C1892.3 49.3 1864.7 45.7 1836.8 45.7C1809 45.7 1781 49.3 1753.2 49.3C1725.3 49.3 1697.7 45.7 1669.8 45.7C1642 45.7 1614 49.3 1586.2 51.2C1558.3 53 1530.7 53 1502.8 53C1475 53 1447 53 1419.2 53C1391.3 53 1363.7 53 1335.8 51.2C1308 49.3 1280 45.7 1252.2 43.8C1224.3 42 1196.7 42 1168.8 43.8C1141 45.7 1113 49.3 1085.2 51.2C1057.3 53 1029.7 53 1001.8 51.2C974 49.3 946 45.7 918.2 45.7C890.3 45.7 862.7 49.3 834.8 51.2C807 53 779 53 751.2 53C723.3 53 695.7 53 667.8 53C640 53 612 53 584.2 53C556.3 53 528.7 53 500.8 53C473 53 445 53 417.2 51.2C389.3 49.3 361.7 45.7 333.8 43.8C306 42 278 42 250.2 42C222.3 42 194.7 42 166.8 43.8C139 45.7 111 49.3 83.2 51.2C55.3 53 27.7 53 13.8 53L0 53Z" fill="#baa8ab"></path><path d="M0 411L13.8 409.3C27.7 407.7 55.3 404.3 83.2 402.7C111 401 139 401 166.8 397.3C194.7 393.7 222.3 386.3 250.2 379C278 371.7 306 364.3 333.8 364.3C361.7 364.3 389.3 371.7 417.2 384.3C445 397 473 415 500.8 418.7C528.7 422.3 556.3 411.7 584.2 408C612 404.3 640 407.7 667.8 405.8C695.7 404 723.3 397 751.2 384.5C779 372 807 354 834.8 345C862.7 336 890.3 336 918.2 339.5C946 343 974 350 1001.8 357.2C1029.7 364.3 1057.3 371.7 1085.2 382.5C1113 393.3 1141 407.7 1168.8 404C1196.7 400.3 1224.3 378.7 1252.2 366.2C1280 353.7 1308 350.3 1335.8 363C1363.7 375.7 1391.3 404.3 1419.2 409.7C1447 415 1475 397 1502.8 391.7C1530.7 386.3 1558.3 393.7 1586.2 390C1614 386.3 1642 371.7 1669.8 371.7C1697.7 371.7 1725.3 386.3 1753.2 399C1781 411.7 1809 422.3 1836.8 424C1864.7 425.7 1892.3 418.3 1906.2 414.7L1920 411L1920 291L1906.2 291C1892.3 291 1864.7 291 1836.8 283.7C1809 276.3 1781 261.7 1753.2 254.3C1725.3 247 1697.7 247 1669.8 252.5C1642 258 1614 269 1586.2 269C1558.3 269 1530.7 258 1502.8 261.5C1475 265 1447 283 1419.2 281.3C1391.3 279.7 1363.7 258.3 1335.8 249.3C1308 240.3 1280 243.7 1252.2 249C1224.3 254.3 1196.7 261.7 1168.8 260C1141 258.3 1113 247.7 1085.2 238.7C1057.3 229.7 1029.7 222.3 1001.8 216.8C974 211.3 946 207.7 918.2 209.5C890.3 211.3 862.7 218.7 834.8 225.8C807 233 779 240 751.2 249C723.3 258 695.7 269 667.8 272.7C640 276.3 612 272.7 584.2 274.5C556.3 276.3 528.7 283.7 500.8 281.8C473 280 445 269 417.2 256.3C389.3 243.7 361.7 229.3 333.8 233C306 236.7 278 258.3 250.2 271C222.3 283.7 194.7 287.3 166.8 287.3C139 287.3 111 283.7 83.2 278.2C55.3 272.7 27.7 265.3 13.8 261.7L0 258Z" fill="#b1a0a7"></path><path d="M0 476L13.8 474.2C27.7 472.3 55.3 468.7 83.2 465.2C111 461.7 139 458.3 166.8 453C194.7 447.7 222.3 440.3 250.2 434.8C278 429.3 306 425.7 333.8 425.7C361.7 425.7 389.3 429.3 417.2 440.2C445 451 473 469 500.8 474.3C528.7 479.7 556.3 472.3 584.2 468.7C612 465 640 465 667.8 463.3C695.7 461.7 723.3 458.3 751.2 445.8C779 433.3 807 411.7 834.8 400.8C862.7 390 890.3 390 918.2 395.3C946 400.7 974 411.3 1001.8 420.3C1029.7 429.3 1057.3 436.7 1085.2 445.7C1113 454.7 1141 465.3 1168.8 459.8C1196.7 454.3 1224.3 432.7 1252.2 423.7C1280 414.7 1308 418.3 1335.8 431C1363.7 443.7 1391.3 465.3 1419.2 467.2C1447 469 1475 451 1502.8 447.3C1530.7 443.7 1558.3 454.3 1586.2 450.7C1614 447 1642 429 1669.8 427.3C1697.7 425.7 1725.3 440.3 1753.2 453C1781 465.7 1809 476.3 1836.8 478C1864.7 479.7 1892.3 472.3 1906.2 468.7L1920 465L1920 409L1906.2 412.7C1892.3 416.3 1864.7 423.7 1836.8 422C1809 420.3 1781 409.7 1753.2 397C1725.3 384.3 1697.7 369.7 1669.8 369.7C1642 369.7 1614 384.3 1586.2 388C1558.3 391.7 1530.7 384.3 1502.8 389.7C1475 395 1447 413 1419.2 407.7C1391.3 402.3 1363.7 373.7 1335.8 361C1308 348.3 1280 351.7 1252.2 364.2C1224.3 376.7 1196.7 398.3 1168.8 402C1141 405.7 1113 391.3 1085.2 380.5C1057.3 369.7 1029.7 362.3 1001.8 355.2C974 348 946 341 918.2 337.5C890.3 334 862.7 334 834.8 343C807 352 779 370 751.2 382.5C723.3 395 695.7 402 667.8 403.8C640 405.7 612 402.3 584.2 406C556.3 409.7 528.7 420.3 500.8 416.7C473 413 445 395 417.2 382.3C389.3 369.7 361.7 362.3 333.8 362.3C306 362.3 278 369.7 250.2 377C222.3 384.3 194.7 391.7 166.8 395.3C139 399 111 399 83.2 400.7C55.3 402.3 27.7 405.7 13.8 407.3L0 409Z" fill="#a79aa3"></path><path d="M0 509L13.8 507.2C27.7 505.3 55.3 501.7 83.2 498C111 494.3 139 490.7 166.8 487C194.7 483.3 222.3 479.7 250.2 476C278 472.3 306 468.7 333.8 468.7C361.7 468.7 389.3 472.3 417.2 483.2C445 494 473 512 500.8 515.7C528.7 519.3 556.3 508.7 584.2 505.2C612 501.7 640 505.3 667.8 503.5C695.7 501.7 723.3 494.3 751.2 481.7C779 469 807 451 834.8 442C862.7 433 890.3 433 918.2 438.3C946 443.7 974 454.3 1001.8 463.3C1029.7 472.3 1057.3 479.7 1085.2 488.7C1113 497.7 1141 508.3 1168.8 503C1196.7 497.7 1224.3 476.3 1252.2 465.7C1280 455 1308 455 1335.8 465.7C1363.7 476.3 1391.3 497.7 1419.2 501.2C1447 504.7 1475 490.3 1502.8 486.8C1530.7 483.3 1558.3 490.7 1586.2 487.2C1614 483.7 1642 469.3 1669.8 469.3C1697.7 469.3 1725.3 483.7 1753.2 494.3C1781 505 1809 512 1836.8 513.8C1864.7 515.7 1892.3 512.3 1906.2 510.7L1920 509L1920 463L1906.2 466.7C1892.3 470.3 1864.7 477.7 1836.8 476C1809 474.3 1781 463.7 1753.2 451C1725.3 438.3 1697.7 423.7 1669.8 425.3C1642 427 1614 445 1586.2 448.7C1558.3 452.3 1530.7 441.7 1502.8 445.3C1475 449 1447 467 1419.2 465.2C1391.3 463.3 1363.7 441.7 1335.8 429C1308 416.3 1280 412.7 1252.2 421.7C1224.3 430.7 1196.7 452.3 1168.8 457.8C1141 463.3 1113 452.7 1085.2 443.7C1057.3 434.7 1029.7 427.3 1001.8 418.3C974 409.3 946 398.7 918.2 393.3C890.3 388 862.7 388 834.8 398.8C807 409.7 779 431.3 751.2 443.8C723.3 456.3 695.7 459.7 667.8 461.3C640 463 612 463 584.2 466.7C556.3 470.3 528.7 477.7 500.8 472.3C473 467 445 449 417.2 438.2C389.3 427.3 361.7 423.7 333.8 423.7C306 423.7 278 427.3 250.2 432.8C222.3 438.3 194.7 445.7 166.8 451C139 456.3 111 459.7 83.2 463.2C55.3 466.7 27.7 470.3 13.8 472.2L0 474Z" fill="#9c939e"></path><path d="M0 552L13.8 548.3C27.7 544.7 55.3 537.3 83.2 531.8C111 526.3 139 522.7 166.8 520.8C194.7 519 222.3 519 250.2 515.5C278 512 306 505 333.8 505C361.7 505 389.3 512 417.2 522.8C445 533.7 473 548.3 500.8 552C528.7 555.7 556.3 548.3 584.2 544.7C612 541 640 541 667.8 539.2C695.7 537.3 723.3 533.7 751.2 522.8C779 512 807 494 834.8 485C862.7 476 890.3 476 918.2 479.7C946 483.3 974 490.7 1001.8 499.7C1029.7 508.7 1057.3 519.3 1085.2 528.3C1113 537.3 1141 544.7 1168.8 537.5C1196.7 530.3 1224.3 508.7 1252.2 499.7C1280 490.7 1308 494.3 1335.8 507C1363.7 519.7 1391.3 541.3 1419.2 543.2C1447 545 1475 527 1502.8 523.3C1530.7 519.7 1558.3 530.3 1586.2 526.7C1614 523 1642 505 1669.8 505C1697.7 505 1725.3 523 1753.2 535.7C1781 548.3 1809 555.7 1836.8 555.7C1864.7 555.7 1892.3 548.3 1906.2 544.7L1920 541L1920 507L1906.2 508.7C1892.3 510.3 1864.7 513.7 1836.8 511.8C1809 510 1781 503 1753.2 492.3C1725.3 481.7 1697.7 467.3 1669.8 467.3C1642 467.3 1614 481.7 1586.2 485.2C1558.3 488.7 1530.7 481.3 1502.8 484.8C1475 488.3 1447 502.7 1419.2 499.2C1391.3 495.7 1363.7 474.3 1335.8 463.7C1308 453 1280 453 1252.2 463.7C1224.3 474.3 1196.7 495.7 1168.8 501C1141 506.3 1113 495.7 1085.2 486.7C1057.3 477.7 1029.7 470.3 1001.8 461.3C974 452.3 946 441.7 918.2 436.3C890.3 431 862.7 431 834.8 440C807 449 779 467 751.2 479.7C723.3 492.3 695.7 499.7 667.8 501.5C640 503.3 612 499.7 584.2 503.2C556.3 506.7 528.7 517.3 500.8 513.7C473 510 445 492 417.2 481.2C389.3 470.3 361.7 466.7 333.8 466.7C306 466.7 278 470.3 250.2 474C222.3 477.7 194.7 481.3 166.8 485C139 488.7 111 492.3 83.2 496C55.3 499.7 27.7 503.3 13.8 505.2L0 507Z" fill="#918d99"></path><path d="M0 606L13.8 604.2C27.7 602.3 55.3 598.7 83.2 595C111 591.3 139 587.7 166.8 584C194.7 580.3 222.3 576.7 250.2 571.3C278 566 306 559 333.8 562.7C361.7 566.3 389.3 580.7 417.2 595C445 609.3 473 623.7 500.8 625.5C528.7 627.3 556.3 616.7 584.2 613.2C612 609.7 640 613.3 667.8 613.3C695.7 613.3 723.3 609.7 751.2 598.8C779 588 807 570 834.8 559.2C862.7 548.3 890.3 544.7 918.2 546.5C946 548.3 974 555.7 1001.8 562.8C1029.7 570 1057.3 577 1085.2 589.5C1113 602 1141 620 1168.8 614.7C1196.7 609.3 1224.3 580.7 1252.2 568.2C1280 555.7 1308 559.3 1335.8 570.2C1363.7 581 1391.3 599 1419.2 602.5C1447 606 1475 595 1502.8 595C1530.7 595 1558.3 606 1586.2 602.5C1614 599 1642 581 1669.8 579.2C1697.7 577.3 1725.3 591.7 1753.2 600.7C1781 609.7 1809 613.3 1836.8 611.5C1864.7 609.7 1892.3 602.3 1906.2 598.7L1920 595L1920 539L1906.2 542.7C1892.3 546.3 1864.7 553.7 1836.8 553.7C1809 553.7 1781 546.3 1753.2 533.7C1725.3 521 1697.7 503 1669.8 503C1642 503 1614 521 1586.2 524.7C1558.3 528.3 1530.7 517.7 1502.8 521.3C1475 525 1447 543 1419.2 541.2C1391.3 539.3 1363.7 517.7 1335.8 505C1308 492.3 1280 488.7 1252.2 497.7C1224.3 506.7 1196.7 528.3 1168.8 535.5C1141 542.7 1113 535.3 1085.2 526.3C1057.3 517.3 1029.7 506.7 1001.8 497.7C974 488.7 946 481.3 918.2 477.7C890.3 474 862.7 474 834.8 483C807 492 779 510 751.2 520.8C723.3 531.7 695.7 535.3 667.8 537.2C640 539 612 539 584.2 542.7C556.3 546.3 528.7 553.7 500.8 550C473 546.3 445 531.7 417.2 520.8C389.3 510 361.7 503 333.8 503C306 503 278 510 250.2 513.5C222.3 517 194.7 517 166.8 518.8C139 520.7 111 524.3 83.2 529.8C55.3 535.3 27.7 542.7 13.8 546.3L0 550Z" fill="#868793"></path><path d="M0 660L13.8 658.2C27.7 656.3 55.3 652.7 83.2 649C111 645.3 139 641.7 166.8 638C194.7 634.3 222.3 630.7 250.2 625.3C278 620 306 613 333.8 616.7C361.7 620.3 389.3 634.7 417.2 647.2C445 659.7 473 670.3 500.8 672.2C528.7 674 556.3 667 584.2 663.5C612 660 640 660 667.8 658.2C695.7 656.3 723.3 652.7 751.2 641.8C779 631 807 613 834.8 602.2C862.7 591.3 890.3 587.7 918.2 589.5C946 591.3 974 598.7 1001.8 607.7C1029.7 616.7 1057.3 627.3 1085.2 639.8C1113 652.3 1141 666.7 1168.8 659.5C1196.7 652.3 1224.3 623.7 1252.2 611.2C1280 598.7 1308 602.3 1335.8 613.2C1363.7 624 1391.3 642 1419.2 647.3C1447 652.7 1475 645.3 1502.8 645.3C1530.7 645.3 1558.3 652.7 1586.2 649.2C1614 645.7 1642 631.3 1669.8 629.5C1697.7 627.7 1725.3 638.3 1753.2 647.3C1781 656.3 1809 663.7 1836.8 663.7C1864.7 663.7 1892.3 656.3 1906.2 652.7L1920 649L1920 593L1906.2 596.7C1892.3 600.3 1864.7 607.7 1836.8 609.5C1809 611.3 1781 607.7 1753.2 598.7C1725.3 589.7 1697.7 575.3 1669.8 577.2C1642 579 1614 597 1586.2 600.5C1558.3 604 1530.7 593 1502.8 593C1475 593 1447 604 1419.2 600.5C1391.3 597 1363.7 579 1335.8 568.2C1308 557.3 1280 553.7 1252.2 566.2C1224.3 578.7 1196.7 607.3 1168.8 612.7C1141 618 1113 600 1085.2 587.5C1057.3 575 1029.7 568 1001.8 560.8C974 553.7 946 546.3 918.2 544.5C890.3 542.7 862.7 546.3 834.8 557.2C807 568 779 586 751.2 596.8C723.3 607.7 695.7 611.3 667.8 611.3C640 611.3 612 607.7 584.2 611.2C556.3 614.7 528.7 625.3 500.8 623.5C473 621.7 445 607.3 417.2 593C389.3 578.7 361.7 564.3 333.8 560.7C306 557 278 564 250.2 569.3C222.3 574.7 194.7 578.3 166.8 582C139 585.7 111 589.3 83.2 593C55.3 596.7 27.7 600.3 13.8 602.2L0 604Z" fill="#7b818c"></path><path d="M0 854L13.8 854C27.7 854 55.3 854 83.2 855.8C111 857.7 139 861.3 166.8 856C194.7 850.7 222.3 836.3 250.2 832.7C278 829 306 836 333.8 841.3C361.7 846.7 389.3 850.3 417.2 854C445 857.7 473 861.3 500.8 861.3C528.7 861.3 556.3 857.7 584.2 854C612 850.3 640 846.7 667.8 844.8C695.7 843 723.3 843 751.2 844.8C779 846.7 807 850.3 834.8 850.3C862.7 850.3 890.3 846.7 918.2 848.5C946 850.3 974 857.7 1001.8 861.3C1029.7 865 1057.3 865 1085.2 865C1113 865 1141 865 1168.8 861.3C1196.7 857.7 1224.3 850.3 1252.2 845C1280 839.7 1308 836.3 1335.8 836.3C1363.7 836.3 1391.3 839.7 1419.2 841.3C1447 843 1475 843 1502.8 844.8C1530.7 846.7 1558.3 850.3 1586.2 852.2C1614 854 1642 854 1669.8 855.8C1697.7 857.7 1725.3 861.3 1753.2 861.3C1781 861.3 1809 857.7 1836.8 854C1864.7 850.3 1892.3 846.7 1906.2 844.8L1920 843L1920 647L1906.2 650.7C1892.3 654.3 1864.7 661.7 1836.8 661.7C1809 661.7 1781 654.3 1753.2 645.3C1725.3 636.3 1697.7 625.7 1669.8 627.5C1642 629.3 1614 643.7 1586.2 647.2C1558.3 650.7 1530.7 643.3 1502.8 643.3C1475 643.3 1447 650.7 1419.2 645.3C1391.3 640 1363.7 622 1335.8 611.2C1308 600.3 1280 596.7 1252.2 609.2C1224.3 621.7 1196.7 650.3 1168.8 657.5C1141 664.7 1113 650.3 1085.2 637.8C1057.3 625.3 1029.7 614.7 1001.8 605.7C974 596.7 946 589.3 918.2 587.5C890.3 585.7 862.7 589.3 834.8 600.2C807 611 779 629 751.2 639.8C723.3 650.7 695.7 654.3 667.8 656.2C640 658 612 658 584.2 661.5C556.3 665 528.7 672 500.8 670.2C473 668.3 445 657.7 417.2 645.2C389.3 632.7 361.7 618.3 333.8 614.7C306 611 278 618 250.2 623.3C222.3 628.7 194.7 632.3 166.8 636C139 639.7 111 643.3 83.2 647C55.3 650.7 27.7 654.3 13.8 656.2L0 658Z" fill="#717b84"></path><path d="M0 941L13.8 941C27.7 941 55.3 941 83.2 942.7C111 944.3 139 947.7 166.8 944C194.7 940.3 222.3 929.7 250.2 929.7C278 929.7 306 940.3 333.8 947.5C361.7 954.7 389.3 958.3 417.2 960.2C445 962 473 962 500.8 960.2C528.7 958.3 556.3 954.7 584.2 954.7C612 954.7 640 958.3 667.8 958.3C695.7 958.3 723.3 954.7 751.2 949.3C779 944 807 937 834.8 933.5C862.7 930 890.3 930 918.2 937.2C946 944.3 974 958.7 1001.8 960.5C1029.7 962.3 1057.3 951.7 1085.2 946.3C1113 941 1141 941 1168.8 944.5C1196.7 948 1224.3 955 1252.2 955C1280 955 1308 948 1335.8 944.5C1363.7 941 1391.3 941 1419.2 942.7C1447 944.3 1475 947.7 1502.8 951.2C1530.7 954.7 1558.3 958.3 1586.2 954.8C1614 951.3 1642 940.7 1669.8 938.8C1697.7 937 1725.3 944 1753.2 945.8C1781 947.7 1809 944.3 1836.8 946.2C1864.7 948 1892.3 955 1906.2 958.5L1920 962L1920 841L1906.2 842.8C1892.3 844.7 1864.7 848.3 1836.8 852C1809 855.7 1781 859.3 1753.2 859.3C1725.3 859.3 1697.7 855.7 1669.8 853.8C1642 852 1614 852 1586.2 850.2C1558.3 848.3 1530.7 844.7 1502.8 842.8C1475 841 1447 841 1419.2 839.3C1391.3 837.7 1363.7 834.3 1335.8 834.3C1308 834.3 1280 837.7 1252.2 843C1224.3 848.3 1196.7 855.7 1168.8 859.3C1141 863 1113 863 1085.2 863C1057.3 863 1029.7 863 1001.8 859.3C974 855.7 946 848.3 918.2 846.5C890.3 844.7 862.7 848.3 834.8 848.3C807 848.3 779 844.7 751.2 842.8C723.3 841 695.7 841 667.8 842.8C640 844.7 612 848.3 584.2 852C556.3 855.7 528.7 859.3 500.8 859.3C473 859.3 445 855.7 417.2 852C389.3 848.3 361.7 844.7 333.8 839.3C306 834 278 827 250.2 830.7C222.3 834.3 194.7 848.7 166.8 854C139 859.3 111 855.7 83.2 853.8C55.3 852 27.7 852 13.8 852L0 852Z" fill="#68757c"></path><path d="M0 1005L13.8 1005C27.7 1005 55.3 1005 83.2 1003.3C111 1001.7 139 998.3 166.8 994.8C194.7 991.3 222.3 987.7 250.2 987.7C278 987.7 306 991.3 333.8 996.7C361.7 1002 389.3 1009 417.2 1012.5C445 1016 473 1016 500.8 1016C528.7 1016 556.3 1016 584.2 1014.2C612 1012.3 640 1008.7 667.8 1005.2C695.7 1001.7 723.3 998.3 751.2 996.7C779 995 807 995 834.8 995C862.7 995 890.3 995 918.2 998.5C946 1002 974 1009 1001.8 1007.2C1029.7 1005.3 1057.3 994.7 1085.2 989.3C1113 984 1141 984 1168.8 989.3C1196.7 994.7 1224.3 1005.3 1252.2 1005.3C1280 1005.3 1308 994.7 1335.8 992.8C1363.7 991 1391.3 998 1419.2 1001.5C1447 1005 1475 1005 1502.8 1006.8C1530.7 1008.7 1558.3 1012.3 1586.2 1010.7C1614 1009 1642 1002 1669.8 1002C1697.7 1002 1725.3 1009 1753.2 1009C1781 1009 1809 1002 1836.8 1000.2C1864.7 998.3 1892.3 1001.7 1906.2 1003.3L1920 1005L1920 960L1906.2 956.5C1892.3 953 1864.7 946 1836.8 944.2C1809 942.3 1781 945.7 1753.2 943.8C1725.3 942 1697.7 935 1669.8 936.8C1642 938.7 1614 949.3 1586.2 952.8C1558.3 956.3 1530.7 952.7 1502.8 949.2C1475 945.7 1447 942.3 1419.2 940.7C1391.3 939 1363.7 939 1335.8 942.5C1308 946 1280 953 1252.2 953C1224.3 953 1196.7 946 1168.8 942.5C1141 939 1113 939 1085.2 944.3C1057.3 949.7 1029.7 960.3 1001.8 958.5C974 956.7 946 942.3 918.2 935.2C890.3 928 862.7 928 834.8 931.5C807 935 779 942 751.2 947.3C723.3 952.7 695.7 956.3 667.8 956.3C640 956.3 612 952.7 584.2 952.7C556.3 952.7 528.7 956.3 500.8 958.2C473 960 445 960 417.2 958.2C389.3 956.3 361.7 952.7 333.8 945.5C306 938.3 278 927.7 250.2 927.7C222.3 927.7 194.7 938.3 166.8 942C139 945.7 111 942.3 83.2 940.7C55.3 939 27.7 939 13.8 939L0 939Z" fill="#5f6e73"></path><path d="M0 1081L13.8 1081C27.7 1081 55.3 1081 83.2 1081C111 1081 139 1081 166.8 1081C194.7 1081 222.3 1081 250.2 1081C278 1081 306 1081 333.8 1081C361.7 1081 389.3 1081 417.2 1081C445 1081 473 1081 500.8 1081C528.7 1081 556.3 1081 584.2 1081C612 1081 640 1081 667.8 1081C695.7 1081 723.3 1081 751.2 1081C779 1081 807 1081 834.8 1081C862.7 1081 890.3 1081 918.2 1081C946 1081 974 1081 1001.8 1081C1029.7 1081 1057.3 1081 1085.2 1081C1113 1081 1141 1081 1168.8 1081C1196.7 1081 1224.3 1081 1252.2 1081C1280 1081 1308 1081 1335.8 1081C1363.7 1081 1391.3 1081 1419.2 1081C1447 1081 1475 1081 1502.8 1081C1530.7 1081 1558.3 1081 1586.2 1081C1614 1081 1642 1081 1669.8 1081C1697.7 1081 1725.3 1081 1753.2 1081C1781 1081 1809 1081 1836.8 1081C1864.7 1081 1892.3 1081 1906.2 1081L1920 1081L1920 1003L1906.2 1001.3C1892.3 999.7 1864.7 996.3 1836.8 998.2C1809 1000 1781 1007 1753.2 1007C1725.3 1007 1697.7 1000 1669.8 1000C1642 1000 1614 1007 1586.2 1008.7C1558.3 1010.3 1530.7 1006.7 1502.8 1004.8C1475 1003 1447 1003 1419.2 999.5C1391.3 996 1363.7 989 1335.8 990.8C1308 992.7 1280 1003.3 1252.2 1003.3C1224.3 1003.3 1196.7 992.7 1168.8 987.3C1141 982 1113 982 1085.2 987.3C1057.3 992.7 1029.7 1003.3 1001.8 1005.2C974 1007 946 1000 918.2 996.5C890.3 993 862.7 993 834.8 993C807 993 779 993 751.2 994.7C723.3 996.3 695.7 999.7 667.8 1003.2C640 1006.7 612 1010.3 584.2 1012.2C556.3 1014 528.7 1014 500.8 1014C473 1014 445 1014 417.2 1010.5C389.3 1007 361.7 1000 333.8 994.7C306 989.3 278 985.7 250.2 985.7C222.3 985.7 194.7 989.3 166.8 992.8C139 996.3 111 999.7 83.2 1001.3C55.3 1003 27.7 1003 13.8 1003L0 1003Z" fill="#58686a"></path></svg>