<svg xmlns="http://www.w3.org/2000/svg" xmlns:xlink="http://www.w3.org/1999/xlink" width="1422" zoomAndPan="magnify" viewBox="0 0 1066.5 593.249981" height="791" preserveAspectRatio="xMidYMid meet" version="1.0"><defs><clipPath id="6ba8a59b52"><path d="M 0.421875 0 L 1065.578125 0 L 1065.578125 592.5 L 0.421875 592.5 Z M 0.421875 0 " clip-rule="nonzero"/></clipPath><clipPath id="91536945a5"><path d="M 0.421875 0 L 1065.578125 0 L 1065.578125 150 L 0.421875 150 Z M 0.421875 0 " clip-rule="nonzero"/></clipPath><clipPath id="5c90b1da83"><path d="M 0.421875 60 L 1065.578125 60 L 1065.578125 173 L 0.421875 173 Z M 0.421875 60 " clip-rule="nonzero"/></clipPath><clipPath id="b029866945"><path d="M 0.421875 85 L 1065.578125 85 L 1065.578125 286 L 0.421875 286 Z M 0.421875 85 " clip-rule="nonzero"/></clipPath><clipPath id="6e47ebf04e"><path d="M 0.421875 206 L 1065.578125 206 L 1065.578125 320 L 0.421875 320 Z M 0.421875 206 " clip-rule="nonzero"/></clipPath><clipPath id="27dc5bc963"><path d="M 0.421875 259 L 1065.578125 259 L 1065.578125 353 L 0.421875 353 Z M 0.421875 259 " clip-rule="nonzero"/></clipPath><clipPath id="1b1fd2a73d"><path d="M 0.421875 282 L 1065.578125 282 L 1065.578125 391 L 0.421875 391 Z M 0.421875 282 " clip-rule="nonzero"/></clipPath><clipPath id="e68856aaac"><path d="M 0.421875 325 L 1065.578125 325 L 1065.578125 440 L 0.421875 440 Z M 0.421875 325 " clip-rule="nonzero"/></clipPath><clipPath id="de71972d06"><path d="M 0.421875 378 L 1065.578125 378 L 1065.578125 471 L 0.421875 471 Z M 0.421875 378 " clip-rule="nonzero"/></clipPath><clipPath id="9b0093e604"><path d="M 0.421875 414 L 1065.578125 414 L 1065.578125 523 L 0.421875 523 Z M 0.421875 414 " clip-rule="nonzero"/></clipPath><clipPath id="9bdb58377e"><path d="M 0.421875 493 L 1065.578125 493 L 1065.578125 546 L 0.421875 546 Z M 0.421875 493 " clip-rule="nonzero"/></clipPath><clipPath id="a0ec7abf65"><path d="M 0.421875 520 L 1065.578125 520 L 1065.578125 571 L 0.421875 571 Z M 0.421875 520 " clip-rule="nonzero"/></clipPath><clipPath id="49112710c0"><path d="M 0.421875 550 L 1065.578125 550 L 1065.578125 592.5 L 0.421875 592.5 Z M 0.421875 550 " clip-rule="nonzero"/></clipPath></defs><g clip-path="url(#6ba8a59b52)"><path fill="#ffffff" d="M 0.421875 0 L 1065.578125 0 L 1065.578125 592.5 L 0.421875 592.5 Z M 0.421875 0 " fill-opacity="1" fill-rule="nonzero"/><path fill="#ffffff" d="M 0.421875 0 L 1065.578125 0 L 1065.578125 592.5 L 0.421875 592.5 Z M 0.421875 0 " fill-opacity="1" fill-rule="nonzero"/></g><g clip-path="url(#91536945a5)"><path fill="#35558c" d="M 1065.578125 71.910156 L 1054.492188 68.914062 C 1043.332031 65.917969 1021.160156 59.925781 998.910156 62.921875 C 976.664062 65.917969 954.492188 77.902344 932.246094 93.78125 C 910 109.585938 887.828125 129.363281 865.578125 138.199219 C 843.332031 147.039062 821.160156 145.089844 799.0625 133.179688 C 776.96875 121.347656 754.945312 99.625 732.847656 94.605469 C 710.75 89.660156 688.578125 101.347656 666.332031 111.234375 C 644.085938 121.121094 621.914062 129.0625 599.667969 130.109375 C 577.417969 131.085938 555.246094 125.09375 533 129.0625 C 510.753906 133.105469 488.582031 147.039062 466.335938 149.0625 C 444.085938 151.085938 421.914062 141.046875 399.667969 134.082031 C 377.421875 127.113281 355.25 123.070312 333.003906 124.117188 C 310.757812 125.09375 288.585938 131.085938 266.488281 129.0625 C 244.390625 127.113281 222.367188 117.078125 200.269531 111.085938 C 178.175781 105.09375 156.003906 103.144531 133.753906 96.253906 C 111.507812 89.363281 89.335938 77.675781 67.089844 82.621094 C 44.84375 87.640625 22.671875 109.363281 11.507812 120.222656 L 0.421875 131.085938 L 0.421875 0 L 11.507812 0 C 22.671875 0 44.84375 0 67.089844 0 C 89.335938 0 111.507812 0 133.753906 0 C 156.003906 0 178.175781 0 200.269531 0 C 222.367188 0 244.390625 0 266.488281 0 C 288.585938 0 310.757812 0 333.003906 0 C 355.25 0 377.421875 0 399.667969 0 C 421.914062 0 444.085938 0 466.335938 0 C 488.582031 0 510.753906 0 533 0 C 555.246094 0 577.417969 0 599.667969 0 C 621.914062 0 644.085938 0 666.332031 0 C 688.578125 0 710.75 0 732.847656 0 C 754.945312 0 776.96875 0 799.0625 0 C 821.160156 0 843.332031 0 865.578125 0 C 887.828125 0 910 0 932.246094 0 C 954.492188 0 976.664062 0 998.910156 0 C 1021.160156 0 1043.332031 0 1054.492188 0 L 1065.578125 0 Z M 1065.578125 71.910156 " fill-opacity="1" fill-rule="nonzero"/></g><g clip-path="url(#5c90b1da83)"><path fill="#505a90" d="M 1065.578125 95.878906 L 1054.492188 92.882812 C 1043.332031 89.886719 1021.160156 83.894531 998.910156 87.789062 C 976.664062 91.609375 954.492188 105.390625 932.246094 122.09375 C 910 138.800781 887.828125 158.574219 865.578125 167.414062 C 843.332031 176.253906 821.160156 174.304688 799.0625 162.394531 C 776.96875 150.558594 754.945312 128.835938 732.847656 123.96875 C 710.75 119.097656 688.578125 131.085938 666.332031 140.972656 C 644.085938 150.785156 621.914062 158.574219 599.667969 158.574219 C 577.417969 158.574219 555.246094 150.785156 533 153.78125 C 510.753906 156.777344 488.582031 170.558594 466.335938 171.53125 C 444.085938 172.507812 421.914062 160.820312 399.667969 153.929688 C 377.421875 147.039062 355.25 145.089844 333.003906 146.066406 C 310.757812 147.039062 288.585938 151.085938 266.488281 149.0625 C 244.390625 147.039062 222.367188 139.097656 200.269531 135.054688 C 178.175781 131.085938 156.003906 131.085938 133.753906 125.242188 C 111.507812 119.324219 89.335938 107.640625 67.089844 109.585938 C 44.84375 111.609375 22.671875 127.339844 11.507812 135.203125 L 0.421875 143.070312 L 0.421875 129.585938 L 11.507812 118.726562 C 22.671875 107.863281 44.84375 86.140625 67.089844 81.121094 C 89.335938 76.179688 111.507812 87.863281 133.753906 94.753906 C 156.003906 101.648438 178.175781 103.59375 200.269531 109.585938 C 222.367188 115.578125 244.390625 125.617188 266.488281 127.5625 C 288.585938 129.585938 310.757812 123.59375 333.003906 122.621094 C 355.25 121.570312 377.421875 125.617188 399.667969 132.582031 C 421.914062 139.546875 444.085938 149.585938 466.335938 147.5625 C 488.582031 145.539062 510.753906 131.609375 533 127.5625 C 555.246094 123.59375 577.417969 129.585938 599.667969 128.613281 C 621.914062 127.5625 644.085938 119.625 666.332031 109.734375 C 688.578125 99.847656 710.75 88.164062 732.847656 93.105469 C 754.945312 98.125 776.96875 119.847656 799.0625 131.683594 C 821.160156 143.59375 843.332031 145.539062 865.578125 136.703125 C 887.828125 127.863281 910 108.089844 932.246094 92.285156 C 954.492188 76.402344 976.664062 64.417969 998.910156 61.421875 C 1021.160156 58.425781 1043.332031 64.417969 1054.492188 67.414062 L 1065.578125 70.410156 Z M 1065.578125 95.878906 " fill-opacity="1" fill-rule="nonzero"/></g><g clip-path="url(#b029866945)"><path fill="#665f93" d="M 1065.578125 237.449219 L 1054.492188 232.582031 C 1043.332031 227.710938 1021.160156 217.972656 998.910156 224.941406 C 976.664062 231.980469 954.492188 255.652344 932.246094 266.511719 C 910 277.375 887.828125 275.425781 865.578125 272.429688 C 843.332031 269.433594 821.160156 265.390625 799.0625 262.394531 C 776.96875 259.398438 754.945312 257.449219 732.847656 250.558594 C 710.75 243.667969 688.578125 231.980469 666.332031 232.957031 C 644.085938 233.929688 621.914062 247.710938 599.667969 260.519531 C 577.417969 273.40625 555.246094 285.390625 533 285.390625 C 510.753906 285.390625 488.582031 273.40625 466.335938 260.519531 C 444.085938 247.710938 421.914062 233.929688 399.667969 227.113281 C 377.421875 220.222656 355.25 220.222656 333.003906 227.113281 C 310.757812 233.929688 288.585938 247.710938 266.488281 254.527344 C 244.390625 261.417969 222.367188 261.417969 200.269531 253.554688 C 178.175781 245.6875 156.003906 229.960938 133.753906 220.070312 C 111.507812 210.257812 89.335938 206.214844 67.089844 208.238281 C 44.84375 210.257812 22.671875 218.199219 11.507812 222.242188 L 0.421875 226.214844 L 0.421875 141.570312 L 11.507812 133.707031 C 22.671875 125.839844 44.84375 110.109375 67.089844 108.089844 C 89.335938 106.140625 111.507812 117.824219 133.753906 123.742188 C 156.003906 129.585938 178.175781 129.585938 200.269531 133.554688 C 222.367188 137.601562 244.390625 145.539062 266.488281 147.5625 C 288.585938 149.585938 310.757812 145.539062 333.003906 144.566406 C 355.25 143.59375 377.421875 145.539062 399.667969 152.433594 C 421.914062 159.324219 444.085938 171.007812 466.335938 170.035156 C 488.582031 169.0625 510.753906 155.277344 533 152.28125 C 555.246094 149.285156 577.417969 157.078125 599.667969 157.078125 C 621.914062 157.078125 644.085938 149.285156 666.332031 139.472656 C 688.578125 129.585938 710.75 117.601562 732.847656 122.46875 C 754.945312 127.339844 776.96875 149.0625 799.0625 160.898438 C 821.160156 172.804688 843.332031 174.753906 865.578125 165.914062 C 887.828125 157.078125 910 137.300781 932.246094 120.597656 C 954.492188 103.894531 976.664062 90.109375 998.910156 86.289062 C 1021.160156 82.394531 1043.332031 88.386719 1054.492188 91.382812 L 1065.578125 94.378906 Z M 1065.578125 237.449219 " fill-opacity="1" fill-rule="nonzero"/></g><g clip-path="url(#6e47ebf04e)"><path fill="#786495" d="M 1065.578125 273.40625 L 1054.492188 271.382812 C 1043.332031 269.433594 1021.160156 265.390625 998.910156 270.257812 C 976.664062 275.128906 954.492188 288.910156 932.246094 297.75 C 910 306.585938 887.828125 310.632812 865.578125 308.757812 C 843.332031 306.886719 821.160156 299.097656 799.0625 294.226562 C 776.96875 289.359375 754.945312 287.410156 732.847656 281.417969 C 710.75 275.425781 688.578125 265.390625 666.332031 265.390625 C 644.085938 265.390625 621.914062 275.425781 599.667969 287.261719 C 577.417969 299.097656 555.246094 312.878906 533 317.75 C 510.753906 322.617188 488.582031 318.570312 466.335938 310.707031 C 444.085938 302.84375 421.914062 291.15625 399.667969 286.289062 C 377.421875 281.417969 355.25 283.367188 333.003906 289.285156 C 310.757812 295.125 288.585938 304.863281 266.488281 310.707031 C 244.390625 316.625 222.367188 318.570312 200.269531 311.757812 C 178.175781 304.863281 156.003906 289.132812 133.753906 278.273438 C 111.507812 267.410156 89.335938 261.417969 67.089844 261.417969 C 44.84375 261.417969 22.671875 267.410156 11.507812 270.40625 L 0.421875 273.40625 L 0.421875 224.714844 L 11.507812 220.746094 C 22.671875 216.699219 44.84375 208.761719 67.089844 206.738281 C 89.335938 204.714844 111.507812 208.761719 133.753906 218.574219 C 156.003906 228.460938 178.175781 244.191406 200.269531 252.054688 C 222.367188 259.921875 244.390625 259.921875 266.488281 253.03125 C 288.585938 246.214844 310.757812 232.429688 333.003906 225.613281 C 355.25 218.722656 377.421875 218.722656 399.667969 225.613281 C 421.914062 232.429688 444.085938 246.214844 466.335938 259.023438 C 488.582031 271.90625 510.753906 283.890625 533 283.890625 C 555.246094 283.890625 577.417969 271.90625 599.667969 259.023438 C 621.914062 246.214844 644.085938 232.429688 666.332031 231.457031 C 688.578125 230.484375 710.75 242.167969 732.847656 249.058594 C 754.945312 255.953125 776.96875 257.898438 799.0625 260.894531 C 821.160156 263.890625 843.332031 267.9375 865.578125 270.933594 C 887.828125 273.929688 910 275.875 932.246094 265.015625 C 954.492188 254.152344 976.664062 230.484375 998.910156 223.441406 C 1021.160156 216.476562 1043.332031 226.214844 1054.492188 231.082031 L 1065.578125 235.953125 Z M 1065.578125 273.40625 " fill-opacity="1" fill-rule="nonzero"/></g><g clip-path="url(#27dc5bc963)"><path fill="#896a96" d="M 1065.578125 302.617188 L 1054.492188 300.746094 C 1043.332031 298.871094 1021.160156 295.125 998.910156 301.121094 C 976.664062 307.113281 954.492188 322.84375 932.246094 332.730469 C 910 342.542969 887.828125 346.585938 865.578125 344.5625 C 843.332031 342.542969 821.160156 334.601562 799.0625 327.5625 C 776.96875 320.59375 754.945312 314.601562 732.847656 307.710938 C 710.75 300.894531 688.578125 293.105469 666.332031 295.125 C 644.085938 297.148438 621.914062 308.835938 599.667969 320.746094 C 577.417969 332.578125 555.246094 344.5625 533 349.582031 C 510.753906 354.527344 488.582031 352.578125 466.335938 344.5625 C 444.085938 336.550781 421.914062 322.617188 399.667969 316.625 C 377.421875 310.632812 355.25 312.578125 333.003906 318.570312 C 310.757812 324.566406 288.585938 334.601562 266.488281 339.546875 C 244.390625 344.5625 222.367188 344.5625 200.269531 335.726562 C 178.175781 326.8125 156.003906 309.132812 133.753906 298.273438 C 111.507812 287.410156 89.335938 283.367188 67.089844 284.414062 C 44.84375 285.390625 22.671875 291.382812 11.507812 294.378906 L 0.421875 297.375 L 0.421875 271.90625 L 11.507812 268.910156 C 22.671875 265.914062 44.84375 259.921875 67.089844 259.921875 C 89.335938 259.921875 111.507812 265.914062 133.753906 276.773438 C 156.003906 287.636719 178.175781 303.367188 200.269531 310.257812 C 222.367188 317.074219 244.390625 315.125 266.488281 309.210938 C 288.585938 303.367188 310.757812 293.628906 333.003906 287.785156 C 355.25 281.867188 377.421875 279.921875 399.667969 284.789062 C 421.914062 289.660156 444.085938 301.34375 466.335938 309.210938 C 488.582031 317.074219 510.753906 321.117188 533 316.25 C 555.246094 311.382812 577.417969 297.597656 599.667969 285.765625 C 621.914062 273.929688 644.085938 263.890625 666.332031 263.890625 C 688.578125 263.890625 710.75 273.929688 732.847656 279.921875 C 754.945312 285.914062 776.96875 287.859375 799.0625 292.730469 C 821.160156 297.597656 843.332031 305.390625 865.578125 307.261719 C 887.828125 309.132812 910 305.089844 932.246094 296.25 C 954.492188 287.410156 976.664062 273.628906 998.910156 268.761719 C 1021.160156 263.890625 1043.332031 267.9375 1054.492188 269.882812 L 1065.578125 271.90625 Z M 1065.578125 302.617188 " fill-opacity="1" fill-rule="nonzero"/></g><g clip-path="url(#1b1fd2a73d)"><path fill="#987097" d="M 1065.578125 344.5625 L 1054.492188 344.5625 C 1043.332031 344.5625 1021.160156 344.5625 998.910156 349.433594 C 976.664062 354.300781 954.492188 364.039062 932.246094 372.878906 C 910 381.792969 887.828125 389.730469 865.578125 388.757812 C 843.332031 387.785156 821.160156 377.746094 799.0625 367.933594 C 776.96875 358.046875 754.945312 348.308594 732.847656 343.441406 C 710.75 338.570312 688.578125 338.570312 666.332031 343.441406 C 644.085938 348.308594 621.914062 358.046875 599.667969 366.886719 C 577.417969 375.800781 555.246094 383.738281 533 387.785156 C 510.753906 391.753906 488.582031 391.753906 466.335938 384.863281 C 444.085938 378.046875 421.914062 364.265625 399.667969 355.425781 C 377.421875 346.585938 355.25 342.542969 333.003906 345.464844 C 310.757812 348.308594 288.585938 358.046875 266.488281 365.914062 C 244.390625 373.777344 222.367188 379.769531 200.269531 372.878906 C 178.175781 366.0625 156.003906 346.289062 133.753906 336.476562 C 111.507812 326.585938 89.335938 326.585938 67.089844 326.585938 C 44.84375 326.585938 22.671875 326.585938 11.507812 326.585938 L 0.421875 326.585938 L 0.421875 295.875 L 11.507812 292.878906 C 22.671875 289.882812 44.84375 283.890625 67.089844 282.917969 C 89.335938 281.867188 111.507812 285.914062 133.753906 296.773438 C 156.003906 307.636719 178.175781 325.3125 200.269531 334.226562 C 222.367188 343.066406 244.390625 343.066406 266.488281 338.046875 C 288.585938 333.105469 310.757812 323.066406 333.003906 317.074219 C 355.25 311.082031 377.421875 309.132812 399.667969 315.125 C 421.914062 321.117188 444.085938 335.050781 466.335938 343.066406 C 488.582031 351.082031 510.753906 353.027344 533 348.085938 C 555.246094 343.066406 577.417969 331.082031 599.667969 319.246094 C 621.914062 307.335938 644.085938 295.652344 666.332031 293.628906 C 688.578125 291.605469 710.75 299.398438 732.847656 306.210938 C 754.945312 313.105469 776.96875 319.097656 799.0625 326.0625 C 821.160156 333.105469 843.332031 341.042969 865.578125 343.066406 C 887.828125 345.089844 910 341.042969 932.246094 331.230469 C 954.492188 321.34375 976.664062 305.613281 998.910156 299.621094 C 1021.160156 293.628906 1043.332031 297.375 1054.492188 299.246094 L 1065.578125 301.121094 Z M 1065.578125 344.5625 " fill-opacity="1" fill-rule="nonzero"/></g><g clip-path="url(#e68856aaac)"><path fill="#a57899" d="M 1065.578125 415.722656 L 1054.492188 414.75 C 1043.332031 413.703125 1021.160156 411.753906 998.910156 414.601562 C 976.664062 417.445312 954.492188 425.238281 932.246094 431.078125 C 910 436.921875 887.828125 440.96875 865.578125 438.046875 C 843.332031 435.199219 821.160156 425.460938 799.0625 419.621094 C 776.96875 413.703125 754.945312 411.753906 732.847656 410.707031 C 710.75 409.730469 688.578125 409.730469 666.332031 412.726562 C 644.085938 415.722656 621.914062 421.71875 599.667969 425.613281 C 577.417969 429.433594 555.246094 431.230469 533 432.054688 C 510.753906 432.953125 488.582031 432.953125 466.335938 428.082031 C 444.085938 423.214844 421.914062 413.476562 399.667969 408.609375 C 377.421875 403.738281 355.25 403.738281 333.003906 407.710938 C 310.757812 411.753906 288.585938 419.695312 266.488281 422.691406 C 244.390625 425.6875 222.367188 423.738281 200.269531 416.699219 C 178.175781 409.730469 156.003906 397.746094 133.753906 392.726562 C 111.507812 387.785156 89.335938 389.730469 67.089844 388.757812 C 44.84375 387.785156 22.671875 383.738281 11.507812 381.792969 L 0.421875 379.769531 L 0.421875 325.089844 L 11.507812 325.089844 C 22.671875 325.089844 44.84375 325.089844 67.089844 325.089844 C 89.335938 325.089844 111.507812 325.089844 133.753906 334.976562 C 156.003906 344.789062 178.175781 364.5625 200.269531 371.378906 C 222.367188 378.273438 244.390625 372.28125 266.488281 364.414062 C 288.585938 356.550781 310.757812 346.8125 333.003906 343.964844 C 355.25 341.042969 377.421875 345.089844 399.667969 353.925781 C 421.914062 362.765625 444.085938 376.550781 466.335938 383.367188 C 488.582031 390.257812 510.753906 390.257812 533 386.285156 C 555.246094 382.242188 577.417969 374.300781 599.667969 365.386719 C 621.914062 356.550781 644.085938 346.8125 666.332031 341.941406 C 688.578125 337.074219 710.75 337.074219 732.847656 341.941406 C 754.945312 346.8125 776.96875 356.550781 799.0625 366.4375 C 821.160156 376.25 843.332031 386.285156 865.578125 387.261719 C 887.828125 388.234375 910 380.292969 932.246094 371.378906 C 954.492188 362.542969 976.664062 352.804688 998.910156 347.933594 C 1021.160156 343.066406 1043.332031 343.066406 1054.492188 343.066406 L 1065.578125 343.066406 Z M 1065.578125 415.722656 " fill-opacity="1" fill-rule="nonzero"/></g><g clip-path="url(#de71972d06)"><path fill="#b1809a" d="M 1065.578125 438.945312 L 1054.492188 439.917969 C 1043.332031 440.96875 1021.160156 442.914062 998.910156 446.960938 C 976.664062 450.929688 954.492188 456.921875 932.246094 461.941406 C 910 466.882812 887.828125 470.929688 865.578125 466.882812 C 843.332031 462.914062 821.160156 450.929688 799.0625 443.066406 C 776.96875 435.199219 754.945312 431.453125 732.847656 429.582031 C 710.75 427.710938 688.578125 427.710938 666.332031 432.578125 C 644.085938 437.445312 621.914062 447.183594 599.667969 454.074219 C 577.417969 460.890625 555.246094 464.9375 533 467.933594 C 510.753906 470.929688 488.582031 472.878906 466.335938 465.011719 C 444.085938 457.148438 421.914062 439.46875 399.667969 431.605469 C 377.421875 423.738281 355.25 425.6875 333.003906 432.578125 C 310.757812 439.46875 288.585938 451.15625 266.488281 455.050781 C 244.390625 458.945312 222.367188 454.898438 200.269531 448.082031 C 178.175781 441.191406 156.003906 431.453125 133.753906 428.457031 C 111.507812 425.460938 89.335938 429.207031 67.089844 428.234375 C 44.84375 427.183594 22.671875 421.492188 11.507812 418.570312 L 0.421875 415.722656 L 0.421875 378.273438 L 11.507812 380.292969 C 22.671875 382.242188 44.84375 386.285156 67.089844 387.261719 C 89.335938 388.234375 111.507812 386.285156 133.753906 391.230469 C 156.003906 396.25 178.175781 408.234375 200.269531 415.199219 C 222.367188 422.242188 244.390625 424.1875 266.488281 421.191406 C 288.585938 418.195312 310.757812 410.257812 333.003906 406.210938 C 355.25 402.242188 377.421875 402.242188 399.667969 407.109375 C 421.914062 411.980469 444.085938 421.71875 466.335938 426.585938 C 488.582031 431.453125 510.753906 431.453125 533 430.554688 C 555.246094 429.730469 577.417969 427.933594 599.667969 424.113281 C 621.914062 420.21875 644.085938 414.226562 666.332031 411.230469 C 688.578125 408.234375 710.75 408.234375 732.847656 409.207031 C 754.945312 410.257812 776.96875 412.203125 799.0625 418.121094 C 821.160156 423.964844 843.332031 433.703125 865.578125 436.546875 C 887.828125 439.46875 910 435.425781 932.246094 429.582031 C 954.492188 423.738281 976.664062 415.949219 998.910156 413.101562 C 1021.160156 410.257812 1043.332031 412.203125 1054.492188 413.253906 L 1065.578125 414.226562 Z M 1065.578125 438.945312 " fill-opacity="1" fill-rule="nonzero"/></g><g clip-path="url(#9b0093e604)"><path fill="#bc889c" d="M 1065.578125 522.089844 L 1054.492188 522.089844 C 1043.332031 522.089844 1021.160156 522.089844 998.910156 520.066406 C 976.664062 518.121094 954.492188 514.074219 932.246094 514.074219 C 910 514.074219 887.828125 518.121094 865.578125 516.097656 C 843.332031 514.074219 821.160156 506.136719 799.0625 505.085938 C 776.96875 504.113281 754.945312 510.105469 732.847656 513.101562 C 710.75 516.097656 688.578125 516.097656 666.332031 516.097656 C 644.085938 516.097656 621.914062 516.097656 599.667969 516.097656 C 577.417969 516.097656 555.246094 516.097656 533 518.121094 C 510.753906 520.066406 488.582031 524.113281 466.335938 522.089844 C 444.085938 520.066406 421.914062 512.128906 399.667969 510.105469 C 377.421875 508.082031 355.25 512.128906 333.003906 512.128906 C 310.757812 512.128906 288.585938 508.082031 266.488281 504.261719 C 244.390625 500.367188 222.367188 496.621094 200.269531 495.648438 C 178.175781 494.601562 156.003906 496.398438 133.753906 499.242188 C 111.507812 502.089844 89.335938 506.136719 67.089844 508.082031 C 44.84375 510.105469 22.671875 510.105469 11.507812 510.105469 L 0.421875 510.105469 L 0.421875 414.226562 L 11.507812 417.074219 C 22.671875 419.992188 44.84375 425.6875 67.089844 426.734375 C 89.335938 427.710938 111.507812 423.964844 133.753906 426.960938 C 156.003906 429.957031 178.175781 439.695312 200.269531 446.585938 C 222.367188 453.402344 244.390625 457.445312 266.488281 453.550781 C 288.585938 449.65625 310.757812 437.972656 333.003906 431.078125 C 355.25 424.1875 377.421875 422.242188 399.667969 430.105469 C 421.914062 437.972656 444.085938 455.648438 466.335938 463.515625 C 488.582031 471.378906 510.753906 469.429688 533 466.433594 C 555.246094 463.4375 577.417969 459.394531 599.667969 452.578125 C 621.914062 445.6875 644.085938 435.949219 666.332031 431.078125 C 688.578125 426.210938 710.75 426.210938 732.847656 428.082031 C 754.945312 429.957031 776.96875 433.703125 799.0625 441.566406 C 821.160156 449.433594 843.332031 461.417969 865.578125 465.386719 C 887.828125 469.429688 910 465.386719 932.246094 460.441406 C 954.492188 455.425781 976.664062 449.433594 998.910156 445.460938 C 1021.160156 441.417969 1043.332031 439.46875 1054.492188 438.421875 L 1065.578125 437.445312 Z M 1065.578125 522.089844 " fill-opacity="1" fill-rule="nonzero"/></g><g clip-path="url(#9bdb58377e)"><path fill="#c5919e" d="M 1065.578125 534.074219 L 1054.492188 537.070312 C 1043.332031 540.066406 1021.160156 546.058594 998.910156 545.085938 C 976.664062 544.039062 954.492188 536.097656 932.246094 533.101562 C 910 530.105469 887.828125 532.050781 865.578125 532.050781 C 843.332031 532.050781 821.160156 530.105469 799.0625 532.050781 C 776.96875 534.074219 754.945312 540.066406 732.847656 543.0625 C 710.75 546.058594 688.578125 546.058594 666.332031 545.085938 C 644.085938 544.039062 621.914062 542.089844 599.667969 541.039062 C 577.417969 540.066406 555.246094 540.066406 533 540.066406 C 510.753906 540.066406 488.582031 540.066406 466.335938 537.070312 C 444.085938 534.074219 421.914062 528.082031 399.667969 529.054688 C 377.421875 530.105469 355.25 538.042969 333.003906 538.042969 C 310.757812 538.042969 288.585938 530.105469 266.488281 526.058594 C 244.390625 522.089844 222.367188 522.089844 200.269531 522.089844 C 178.175781 522.089844 156.003906 522.089844 133.753906 524.113281 C 111.507812 526.058594 89.335938 530.105469 67.089844 532.050781 C 44.84375 534.074219 22.671875 534.074219 11.507812 534.074219 L 0.421875 534.074219 L 0.421875 508.605469 L 11.507812 508.605469 C 22.671875 508.605469 44.84375 508.605469 67.089844 506.585938 C 89.335938 504.636719 111.507812 500.59375 133.753906 497.746094 C 156.003906 494.898438 178.175781 493.101562 200.269531 494.148438 C 222.367188 495.125 244.390625 498.871094 266.488281 502.765625 C 288.585938 506.585938 310.757812 510.628906 333.003906 510.628906 C 355.25 510.628906 377.421875 506.585938 399.667969 508.605469 C 421.914062 510.628906 444.085938 518.570312 466.335938 520.59375 C 488.582031 522.613281 510.753906 518.570312 533 516.621094 C 555.246094 514.597656 577.417969 514.597656 599.667969 514.597656 C 621.914062 514.597656 644.085938 514.597656 666.332031 514.597656 C 688.578125 514.597656 710.75 514.597656 732.847656 511.601562 C 754.945312 508.605469 776.96875 502.613281 799.0625 503.589844 C 821.160156 504.636719 843.332031 512.578125 865.578125 514.597656 C 887.828125 516.621094 910 512.578125 932.246094 512.578125 C 954.492188 512.578125 976.664062 516.621094 998.910156 518.570312 C 1021.160156 520.59375 1043.332031 520.59375 1054.492188 520.59375 L 1065.578125 520.59375 Z M 1065.578125 534.074219 " fill-opacity="1" fill-rule="nonzero"/></g><g clip-path="url(#a0ec7abf65)"><path fill="#cd9ba1" d="M 1065.578125 552.050781 L 1054.492188 554.898438 C 1043.332031 557.820312 1021.160156 563.511719 998.910156 564.5625 C 976.664062 565.535156 954.492188 561.789062 932.246094 559.917969 C 910 558.042969 887.828125 558.042969 865.578125 557.070312 C 843.332031 556.023438 821.160156 554.074219 799.0625 556.921875 C 776.96875 559.765625 754.945312 567.558594 732.847656 569.429688 C 710.75 571.304688 688.578125 567.257812 666.332031 567.257812 C 644.085938 567.257812 621.914062 571.304688 599.667969 570.402344 C 577.417969 569.503906 555.246094 563.8125 533 562.761719 C 510.753906 561.789062 488.582031 565.535156 466.335938 563.511719 C 444.085938 561.566406 421.914062 553.773438 399.667969 552.800781 C 377.421875 551.828125 355.25 557.519531 333.003906 558.570312 C 310.757812 559.542969 288.585938 555.796875 266.488281 553.925781 C 244.390625 552.050781 222.367188 552.050781 200.269531 553.027344 C 178.175781 554.074219 156.003906 556.023438 133.753906 557.070312 C 111.507812 558.042969 89.335938 558.042969 67.089844 558.042969 C 44.84375 558.042969 22.671875 558.042969 11.507812 558.042969 L 0.421875 558.042969 L 0.421875 532.578125 L 11.507812 532.578125 C 22.671875 532.578125 44.84375 532.578125 67.089844 530.554688 C 89.335938 528.605469 111.507812 524.5625 133.753906 522.613281 C 156.003906 520.59375 178.175781 520.59375 200.269531 520.59375 C 222.367188 520.59375 244.390625 520.59375 266.488281 524.5625 C 288.585938 528.605469 310.757812 536.546875 333.003906 536.546875 C 355.25 536.546875 377.421875 528.605469 399.667969 527.558594 C 421.914062 526.585938 444.085938 532.578125 466.335938 535.574219 C 488.582031 538.570312 510.753906 538.570312 533 538.570312 C 555.246094 538.570312 577.417969 538.570312 599.667969 539.542969 C 621.914062 540.589844 644.085938 542.539062 666.332031 543.585938 C 688.578125 544.5625 710.75 544.5625 732.847656 541.566406 C 754.945312 538.570312 776.96875 532.578125 799.0625 530.554688 C 821.160156 528.605469 843.332031 530.554688 865.578125 530.554688 C 887.828125 530.554688 910 528.605469 932.246094 531.601562 C 954.492188 534.597656 976.664062 542.539062 998.910156 543.585938 C 1021.160156 544.5625 1043.332031 538.570312 1054.492188 535.574219 L 1065.578125 532.578125 Z M 1065.578125 552.050781 " fill-opacity="1" fill-rule="nonzero"/></g><g clip-path="url(#49112710c0)"><path fill="#d4a5a5" d="M 1065.578125 593.25 L 1054.492188 593.25 C 1043.332031 593.25 1021.160156 593.25 998.910156 593.25 C 976.664062 593.25 954.492188 593.25 932.246094 593.25 C 910 593.25 887.828125 593.25 865.578125 593.25 C 843.332031 593.25 821.160156 593.25 799.0625 593.25 C 776.96875 593.25 754.945312 593.25 732.847656 593.25 C 710.75 593.25 688.578125 593.25 666.332031 593.25 C 644.085938 593.25 621.914062 593.25 599.667969 593.25 C 577.417969 593.25 555.246094 593.25 533 593.25 C 510.753906 593.25 488.582031 593.25 466.335938 593.25 C 444.085938 593.25 421.914062 593.25 399.667969 593.25 C 377.421875 593.25 355.25 593.25 333.003906 593.25 C 310.757812 593.25 288.585938 593.25 266.488281 593.25 C 244.390625 593.25 222.367188 593.25 200.269531 593.25 C 178.175781 593.25 156.003906 593.25 133.753906 593.25 C 111.507812 593.25 89.335938 593.25 67.089844 593.25 C 44.84375 593.25 22.671875 593.25 11.507812 593.25 L 0.421875 593.25 L 0.421875 556.546875 L 11.507812 556.546875 C 22.671875 556.546875 44.84375 556.546875 67.089844 556.546875 C 89.335938 556.546875 111.507812 556.546875 133.753906 555.574219 C 156.003906 554.523438 178.175781 552.578125 200.269531 551.527344 C 222.367188 550.554688 244.390625 550.554688 266.488281 552.425781 C 288.585938 554.300781 310.757812 558.042969 333.003906 557.070312 C 355.25 556.023438 377.421875 550.328125 399.667969 551.304688 C 421.914062 552.277344 444.085938 560.066406 466.335938 562.015625 C 488.582031 564.035156 510.753906 560.292969 533 561.265625 C 555.246094 562.3125 577.417969 568.007812 599.667969 568.90625 C 621.914062 569.804688 644.085938 565.757812 666.332031 565.757812 C 688.578125 565.757812 710.75 569.804688 732.847656 567.933594 C 754.945312 566.058594 776.96875 558.269531 799.0625 555.421875 C 821.160156 552.578125 843.332031 554.523438 865.578125 555.574219 C 887.828125 556.546875 910 556.546875 932.246094 558.417969 C 954.492188 560.292969 976.664062 564.035156 998.910156 563.0625 C 1021.160156 562.015625 1043.332031 556.320312 1054.492188 553.398438 L 1065.578125 550.554688 Z M 1065.578125 593.25 " fill-opacity="1" fill-rule="nonzero"/></g></svg>