<svg id="visual" viewBox="0 0 1422 791" width="1422" height="791" xmlns="http://www.w3.org/2000/svg" xmlns:xlink="http://www.w3.org/1999/xlink" version="1.1"><path d="M0 96L14.8 92C29.7 88 59.3 80 89 84C118.7 88 148.3 104 178 125.2C207.7 146.3 237.3 172.7 267 184.5C296.7 196.3 326.3 193.7 355.8 177.8C385.3 162 414.7 133 444.2 126.3C473.7 119.7 503.3 135.3 533 148.5C562.7 161.7 592.3 172.3 622 173.7C651.7 175 681.3 167 711 172.3C740.7 177.7 770.3 196.3 800 199C829.7 201.7 859.3 188.3 889 179C918.7 169.7 948.3 164.3 978 165.7C1007.7 167 1037.3 175 1066.8 172.3C1096.3 169.7 1125.7 156.3 1155.2 148.3C1184.7 140.3 1214.3 137.7 1244 128.5C1273.7 119.3 1303.3 103.7 1333 110.3C1362.7 117 1392.3 146 1407.2 160.5L1422 175L1422 0L1407.2 0C1392.3 0 1362.7 0 1333 0C1303.3 0 1273.7 0 1244 0C1214.3 0 1184.7 0 1155.2 0C1125.7 0 1096.3 0 1066.8 0C1037.3 0 1007.7 0 978 0C948.3 0 918.7 0 889 0C859.3 0 829.7 0 800 0C770.3 0 740.7 0 711 0C681.3 0 651.7 0 622 0C592.3 0 562.7 0 533 0C503.3 0 473.7 0 444.2 0C414.7 0 385.3 0 355.8 0C326.3 0 296.7 0 267 0C237.3 0 207.7 0 178 0C148.3 0 118.7 0 89 0C59.3 0 29.7 0 14.8 0L0 0Z" fill="#35558c"></path><path d="M0 128L14.8 124C29.7 120 59.3 112 89 117.2C118.7 122.3 148.3 140.7 178 163C207.7 185.3 237.3 211.7 267 223.5C296.7 235.3 326.3 232.7 355.8 216.8C385.3 201 414.7 172 444.2 165.5C473.7 159 503.3 175 533 188.2C562.7 201.3 592.3 211.7 622 211.7C651.7 211.7 681.3 201.3 711 205.3C740.7 209.3 770.3 227.7 800 229C829.7 230.3 859.3 214.7 889 205.5C918.7 196.3 948.3 193.7 978 195C1007.7 196.3 1037.3 201.7 1066.8 199C1096.3 196.3 1125.7 185.7 1155.2 180.3C1184.7 175 1214.3 175 1244 167.2C1273.7 159.3 1303.3 143.7 1333 146.3C1362.7 149 1392.3 170 1407.2 180.5L1422 191L1422 173L1407.2 158.5C1392.3 144 1362.7 115 1333 108.3C1303.3 101.7 1273.7 117.3 1244 126.5C1214.3 135.7 1184.7 138.3 1155.2 146.3C1125.7 154.3 1096.3 167.7 1066.8 170.3C1037.3 173 1007.7 165 978 163.7C948.3 162.3 918.7 167.7 889 177C859.3 186.3 829.7 199.7 800 197C770.3 194.3 740.7 175.7 711 170.3C681.3 165 651.7 173 622 171.7C592.3 170.3 562.7 159.7 533 146.5C503.3 133.3 473.7 117.7 444.2 124.3C414.7 131 385.3 160 355.8 175.8C326.3 191.7 296.7 194.3 267 182.5C237.3 170.7 207.7 144.3 178 123.2C148.3 102 118.7 86 89 82C59.3 78 29.7 86 14.8 90L0 94Z" fill="#505a90"></path><path d="M0 317L14.8 310.5C29.7 304 59.3 291 89 300.3C118.7 309.7 148.3 341.3 178 355.8C207.7 370.3 237.3 367.7 267 363.7C296.7 359.7 326.3 354.3 355.8 350.3C385.3 346.3 414.7 343.7 444.2 334.5C473.7 325.3 503.3 309.7 533 311C562.7 312.3 592.3 330.7 622 347.8C651.7 365 681.3 381 711 381C740.7 381 770.3 365 800 347.8C829.7 330.7 859.3 312.3 889 303.2C918.7 294 948.3 294 978 303.2C1007.7 312.3 1037.3 330.7 1066.8 339.8C1096.3 349 1125.7 349 1155.2 338.5C1184.7 328 1214.3 307 1244 293.8C1273.7 280.7 1303.3 275.3 1333 278C1362.7 280.7 1392.3 291.3 1407.2 296.7L1422 302L1422 189L1407.2 178.5C1392.3 168 1362.7 147 1333 144.3C1303.3 141.7 1273.7 157.3 1244 165.2C1214.3 173 1184.7 173 1155.2 178.3C1125.7 183.7 1096.3 194.3 1066.8 197C1037.3 199.7 1007.7 194.3 978 193C948.3 191.7 918.7 194.3 889 203.5C859.3 212.7 829.7 228.3 800 227C770.3 225.7 740.7 207.3 711 203.3C681.3 199.3 651.7 209.7 622 209.7C592.3 209.7 562.7 199.3 533 186.2C503.3 173 473.7 157 444.2 163.5C414.7 170 385.3 199 355.8 214.8C326.3 230.7 296.7 233.3 267 221.5C237.3 209.7 207.7 183.3 178 161C148.3 138.7 118.7 120.3 89 115.2C59.3 110 29.7 118 14.8 122L0 126Z" fill="#665f93"></path><path d="M0 365L14.8 362.3C29.7 359.7 59.3 354.3 89 360.8C118.7 367.3 148.3 385.7 178 397.5C207.7 409.3 237.3 414.7 267 412.2C296.7 409.7 326.3 399.3 355.8 392.8C385.3 386.3 414.7 383.7 444.2 375.7C473.7 367.7 503.3 354.3 533 354.3C562.7 354.3 592.3 367.7 622 383.5C651.7 399.3 681.3 417.7 711 424.2C740.7 430.7 770.3 425.3 800 414.8C829.7 404.3 859.3 388.7 889 382.2C918.7 375.7 948.3 378.3 978 386.2C1007.7 394 1037.3 407 1066.8 414.8C1096.3 422.7 1125.7 425.3 1155.2 416.2C1184.7 407 1214.3 386 1244 371.5C1273.7 357 1303.3 349 1333 349C1362.7 349 1392.3 357 1407.2 361L1422 365L1422 300L1407.2 294.7C1392.3 289.3 1362.7 278.7 1333 276C1303.3 273.3 1273.7 278.7 1244 291.8C1214.3 305 1184.7 326 1155.2 336.5C1125.7 347 1096.3 347 1066.8 337.8C1037.3 328.7 1007.7 310.3 978 301.2C948.3 292 918.7 292 889 301.2C859.3 310.3 829.7 328.7 800 345.8C770.3 363 740.7 379 711 379C681.3 379 651.7 363 622 345.8C592.3 328.7 562.7 310.3 533 309C503.3 307.7 473.7 323.3 444.2 332.5C414.7 341.7 385.3 344.3 355.8 348.3C326.3 352.3 296.7 357.7 267 361.7C237.3 365.7 207.7 368.3 178 353.8C148.3 339.3 118.7 307.7 89 298.3C59.3 289 29.7 302 14.8 308.5L0 315Z" fill="#786495"></path><path d="M0 404L14.8 401.5C29.7 399 59.3 394 89 402C118.7 410 148.3 431 178 444.2C207.7 457.3 237.3 462.7 267 460C296.7 457.3 326.3 446.7 355.8 437.3C385.3 428 414.7 420 444.2 410.8C473.7 401.7 503.3 391.3 533 394C562.7 396.7 592.3 412.3 622 428.2C651.7 444 681.3 460 711 466.7C740.7 473.3 770.3 470.7 800 460C829.7 449.3 859.3 430.7 889 422.7C918.7 414.7 948.3 417.3 978 425.3C1007.7 433.3 1037.3 446.7 1066.8 453.3C1096.3 460 1125.7 460 1155.2 448.2C1184.7 436.3 1214.3 412.7 1244 398.2C1273.7 383.7 1303.3 378.3 1333 379.7C1362.7 381 1392.3 389 1407.2 393L1422 397L1422 363L1407.2 359C1392.3 355 1362.7 347 1333 347C1303.3 347 1273.7 355 1244 369.5C1214.3 384 1184.7 405 1155.2 414.2C1125.7 423.3 1096.3 420.7 1066.8 412.8C1037.3 405 1007.7 392 978 384.2C948.3 376.3 918.7 373.7 889 380.2C859.3 386.7 829.7 402.3 800 412.8C770.3 423.3 740.7 428.7 711 422.2C681.3 415.7 651.7 397.3 622 381.5C592.3 365.7 562.7 352.3 533 352.3C503.3 352.3 473.7 365.7 444.2 373.7C414.7 381.7 385.3 384.3 355.8 390.8C326.3 397.3 296.7 407.7 267 410.2C237.3 412.7 207.7 407.3 178 395.5C148.3 383.7 118.7 365.3 89 358.8C59.3 352.3 29.7 357.7 14.8 360.3L0 363Z" fill="#896a96"></path><path d="M0 460L14.8 460C29.7 460 59.3 460 89 466.5C118.7 473 148.3 486 178 497.8C207.7 509.7 237.3 520.3 267 519C296.7 517.7 326.3 504.3 355.8 491.2C385.3 478 414.7 465 444.2 458.5C473.7 452 503.3 452 533 458.5C562.7 465 592.3 478 622 489.8C651.7 501.7 681.3 512.3 711 517.7C740.7 523 770.3 523 800 513.8C829.7 504.7 859.3 486.3 889 474.5C918.7 462.7 948.3 457.3 978 461.2C1007.7 465 1037.3 478 1066.8 488.5C1096.3 499 1125.7 507 1155.2 497.8C1184.7 488.7 1214.3 462.3 1244 449.2C1273.7 436 1303.3 436 1333 436C1362.7 436 1392.3 436 1407.2 436L1422 436L1422 395L1407.2 391C1392.3 387 1362.7 379 1333 377.7C1303.3 376.3 1273.7 381.7 1244 396.2C1214.3 410.7 1184.7 434.3 1155.2 446.2C1125.7 458 1096.3 458 1066.8 451.3C1037.3 444.7 1007.7 431.3 978 423.3C948.3 415.3 918.7 412.7 889 420.7C859.3 428.7 829.7 447.3 800 458C770.3 468.7 740.7 471.3 711 464.7C681.3 458 651.7 442 622 426.2C592.3 410.3 562.7 394.7 533 392C503.3 389.3 473.7 399.7 444.2 408.8C414.7 418 385.3 426 355.8 435.3C326.3 444.7 296.7 455.3 267 458C237.3 460.7 207.7 455.3 178 442.2C148.3 429 118.7 408 89 400C59.3 392 29.7 397 14.8 399.5L0 402Z" fill="#987097"></path><path d="M0 555L14.8 553.7C29.7 552.3 59.3 549.7 89 553.5C118.7 557.3 148.3 567.7 178 575.5C207.7 583.3 237.3 588.7 267 584.8C296.7 581 326.3 568 355.8 560.2C385.3 552.3 414.7 549.7 444.2 548.3C473.7 547 503.3 547 533 551C562.7 555 592.3 563 622 568.2C651.7 573.3 681.3 575.7 711 576.8C740.7 578 770.3 578 800 571.5C829.7 565 859.3 552 889 545.5C918.7 539 948.3 539 978 544.3C1007.7 549.7 1037.3 560.3 1066.8 564.3C1096.3 568.3 1125.7 565.7 1155.2 556.3C1184.7 547 1214.3 531 1244 524.3C1273.7 517.7 1303.3 520.3 1333 519C1362.7 517.7 1392.3 512.3 1407.2 509.7L1422 507L1422 434L1407.2 434C1392.3 434 1362.7 434 1333 434C1303.3 434 1273.7 434 1244 447.2C1214.3 460.3 1184.7 486.7 1155.2 495.8C1125.7 505 1096.3 497 1066.8 486.5C1037.3 476 1007.7 463 978 459.2C948.3 455.3 918.7 460.7 889 472.5C859.3 484.3 829.7 502.7 800 511.8C770.3 521 740.7 521 711 515.7C681.3 510.3 651.7 499.7 622 487.8C592.3 476 562.7 463 533 456.5C503.3 450 473.7 450 444.2 456.5C414.7 463 385.3 476 355.8 489.2C326.3 502.3 296.7 515.7 267 517C237.3 518.3 207.7 507.7 178 495.8C148.3 484 118.7 471 89 464.5C59.3 458 29.7 458 14.8 458L0 458Z" fill="#a57899"></path><path d="M0 586L14.8 587.3C29.7 588.7 59.3 591.3 89 596.7C118.7 602 148.3 610 178 616.7C207.7 623.3 237.3 628.7 267 623.3C296.7 618 326.3 602 355.8 591.5C385.3 581 414.7 576 444.2 573.5C473.7 571 503.3 571 533 577.5C562.7 584 592.3 597 622 606.2C651.7 615.3 681.3 620.7 711 624.7C740.7 628.7 770.3 631.3 800 620.8C829.7 610.3 859.3 586.7 889 576.2C918.7 565.7 948.3 568.3 978 577.5C1007.7 586.7 1037.3 602.3 1066.8 607.5C1096.3 612.7 1125.7 607.3 1155.2 598.2C1184.7 589 1214.3 576 1244 572C1273.7 568 1303.3 573 1333 571.7C1362.7 570.3 1392.3 562.7 1407.2 558.8L1422 555L1422 505L1407.2 507.7C1392.3 510.3 1362.7 515.7 1333 517C1303.3 518.3 1273.7 515.7 1244 522.3C1214.3 529 1184.7 545 1155.2 554.3C1125.7 563.7 1096.3 566.3 1066.8 562.3C1037.3 558.3 1007.7 547.7 978 542.3C948.3 537 918.7 537 889 543.5C859.3 550 829.7 563 800 569.5C770.3 576 740.7 576 711 574.8C681.3 573.7 651.7 571.3 622 566.2C592.3 561 562.7 553 533 549C503.3 545 473.7 545 444.2 546.3C414.7 547.7 385.3 550.3 355.8 558.2C326.3 566 296.7 579 267 582.8C237.3 586.7 207.7 581.3 178 573.5C148.3 565.7 118.7 555.3 89 551.5C59.3 547.7 29.7 550.3 14.8 551.7L0 553Z" fill="#b1809a"></path><path d="M0 697L14.8 697C29.7 697 59.3 697 89 694.3C118.7 691.7 148.3 686.3 178 686.3C207.7 686.3 237.3 691.7 267 689C296.7 686.3 326.3 675.7 355.8 674.3C385.3 673 414.7 681 444.2 685C473.7 689 503.3 689 533 689C562.7 689 592.3 689 622 689C651.7 689 681.3 689 711 691.7C740.7 694.3 770.3 699.7 800 697C829.7 694.3 859.3 683.7 889 681C918.7 678.3 948.3 683.7 978 683.7C1007.7 683.7 1037.3 678.3 1066.8 673.2C1096.3 668 1125.7 663 1155.2 661.7C1184.7 660.3 1214.3 662.7 1244 666.5C1273.7 670.3 1303.3 675.7 1333 678.3C1362.7 681 1392.3 681 1407.2 681L1422 681L1422 553L1407.2 556.8C1392.3 560.7 1362.7 568.3 1333 569.7C1303.3 571 1273.7 566 1244 570C1214.3 574 1184.7 587 1155.2 596.2C1125.7 605.3 1096.3 610.7 1066.8 605.5C1037.3 600.3 1007.7 584.7 978 575.5C948.3 566.3 918.7 563.7 889 574.2C859.3 584.7 829.7 608.3 800 618.8C770.3 629.3 740.7 626.7 711 622.7C681.3 618.7 651.7 613.3 622 604.2C592.3 595 562.7 582 533 575.5C503.3 569 473.7 569 444.2 571.5C414.7 574 385.3 579 355.8 589.5C326.3 600 296.7 616 267 621.3C237.3 626.7 207.7 621.3 178 614.7C148.3 608 118.7 600 89 594.7C59.3 589.3 29.7 586.7 14.8 585.3L0 584Z" fill="#bc889c"></path><path d="M0 713L14.8 717C29.7 721 59.3 729 89 727.7C118.7 726.3 148.3 715.7 178 711.7C207.7 707.7 237.3 710.3 267 710.3C296.7 710.3 326.3 707.7 355.8 710.3C385.3 713 414.7 721 444.2 725C473.7 729 503.3 729 533 727.7C562.7 726.3 592.3 723.7 622 722.3C651.7 721 681.3 721 711 721C740.7 721 770.3 721 800 717C829.7 713 859.3 705 889 706.3C918.7 707.7 948.3 718.3 978 718.3C1007.7 718.3 1037.3 707.7 1066.8 702.3C1096.3 697 1125.7 697 1155.2 697C1184.7 697 1214.3 697 1244 699.7C1273.7 702.3 1303.3 707.7 1333 710.3C1362.7 713 1392.3 713 1407.2 713L1422 713L1422 679L1407.2 679C1392.3 679 1362.7 679 1333 676.3C1303.3 673.7 1273.7 668.3 1244 664.5C1214.3 660.7 1184.7 658.3 1155.2 659.7C1125.7 661 1096.3 666 1066.8 671.2C1037.3 676.3 1007.7 681.7 978 681.7C948.3 681.7 918.7 676.3 889 679C859.3 681.7 829.7 692.3 800 695C770.3 697.7 740.7 692.3 711 689.7C681.3 687 651.7 687 622 687C592.3 687 562.7 687 533 687C503.3 687 473.7 687 444.2 683C414.7 679 385.3 671 355.8 672.3C326.3 673.7 296.7 684.3 267 687C237.3 689.7 207.7 684.3 178 684.3C148.3 684.3 118.7 689.7 89 692.3C59.3 695 29.7 695 14.8 695L0 695Z" fill="#c5919e"></path><path d="M0 737L14.8 740.8C29.7 744.7 59.3 752.3 89 753.7C118.7 755 148.3 750 178 747.5C207.7 745 237.3 745 267 743.7C296.7 742.3 326.3 739.7 355.8 743.5C385.3 747.3 414.7 757.7 444.2 760.2C473.7 762.7 503.3 757.3 533 757.3C562.7 757.3 592.3 762.7 622 761.5C651.7 760.3 681.3 752.7 711 751.3C740.7 750 770.3 755 800 752.3C829.7 749.7 859.3 739.3 889 738C918.7 736.7 948.3 744.3 978 745.7C1007.7 747 1037.3 742 1066.8 739.5C1096.3 737 1125.7 737 1155.2 738.3C1184.7 739.7 1214.3 742.3 1244 743.7C1273.7 745 1303.3 745 1333 745C1362.7 745 1392.3 745 1407.2 745L1422 745L1422 711L1407.2 711C1392.3 711 1362.7 711 1333 708.3C1303.3 705.7 1273.7 700.3 1244 697.7C1214.3 695 1184.7 695 1155.2 695C1125.7 695 1096.3 695 1066.8 700.3C1037.3 705.7 1007.7 716.3 978 716.3C948.3 716.3 918.7 705.7 889 704.3C859.3 703 829.7 711 800 715C770.3 719 740.7 719 711 719C681.3 719 651.7 719 622 720.3C592.3 721.7 562.7 724.3 533 725.7C503.3 727 473.7 727 444.2 723C414.7 719 385.3 711 355.8 708.3C326.3 705.7 296.7 708.3 267 708.3C237.3 708.3 207.7 705.7 178 709.7C148.3 713.7 118.7 724.3 89 725.7C59.3 727 29.7 719 14.8 715L0 711Z" fill="#cd9ba1"></path><path d="M0 792L14.8 792C29.7 792 59.3 792 89 792C118.7 792 148.3 792 178 792C207.7 792 237.3 792 267 792C296.7 792 326.3 792 355.8 792C385.3 792 414.7 792 444.2 792C473.7 792 503.3 792 533 792C562.7 792 592.3 792 622 792C651.7 792 681.3 792 711 792C740.7 792 770.3 792 800 792C829.7 792 859.3 792 889 792C918.7 792 948.3 792 978 792C1007.7 792 1037.3 792 1066.8 792C1096.3 792 1125.7 792 1155.2 792C1184.7 792 1214.3 792 1244 792C1273.7 792 1303.3 792 1333 792C1362.7 792 1392.3 792 1407.2 792L1422 792L1422 743L1407.2 743C1392.3 743 1362.7 743 1333 743C1303.3 743 1273.7 743 1244 741.7C1214.3 740.3 1184.7 737.7 1155.2 736.3C1125.7 735 1096.3 735 1066.8 737.5C1037.3 740 1007.7 745 978 743.7C948.3 742.3 918.7 734.7 889 736C859.3 737.3 829.7 747.7 800 750.3C770.3 753 740.7 748 711 749.3C681.3 750.7 651.7 758.3 622 759.5C592.3 760.7 562.7 755.3 533 755.3C503.3 755.3 473.7 760.7 444.2 758.2C414.7 755.7 385.3 745.3 355.8 741.5C326.3 737.7 296.7 740.3 267 741.7C237.3 743 207.7 743 178 745.5C148.3 748 118.7 753 89 751.7C59.3 750.3 29.7 742.7 14.8 738.8L0 735Z" fill="#d4a5a5"></path></svg>