<svg id="visual" viewBox="0 0 1800 900" width="1800" height="900" xmlns="http://www.w3.org/2000/svg" xmlns:xlink="http://www.w3.org/1999/xlink" version="1.1"><path d="M0 64L13 65.5C26 67 52 70 78.2 64C104.3 58 130.7 43 156.8 37C183 31 209 34 235 35.5C261 37 287 37 313 43C339 49 365 61 391.2 61C417.3 61 443.7 49 469.8 41.5C496 34 522 31 548 32.5C574 34 600 40 626 44.5C652 49 678 52 704.2 56.5C730.3 61 756.7 67 782.8 65.5C809 64 835 55 861 55C887 55 913 64 939 67C965 70 991 67 1017.2 61C1043.3 55 1069.7 46 1095.8 43C1122 40 1148 43 1174 44.5C1200 46 1226 46 1252 46C1278 46 1304 46 1330.2 46C1356.3 46 1382.7 46 1408.8 44.5C1435 43 1461 40 1487 44.5C1513 49 1539 61 1565 61C1591 61 1617 49 1643.2 47.5C1669.3 46 1695.7 55 1721.8 56.5C1748 58 1774 52 1787 49L1800 46L1800 0L1787 0C1774 0 1748 0 1721.8 0C1695.7 0 1669.3 0 1643.2 0C1617 0 1591 0 1565 0C1539 0 1513 0 1487 0C1461 0 1435 0 1408.8 0C1382.7 0 1356.3 0 1330.2 0C1304 0 1278 0 1252 0C1226 0 1200 0 1174 0C1148 0 1122 0 1095.8 0C1069.7 0 1043.3 0 1017.2 0C991 0 965 0 939 0C913 0 887 0 861 0C835 0 809 0 782.8 0C756.7 0 730.3 0 704.2 0C678 0 652 0 626 0C600 0 574 0 548 0C522 0 496 0 469.8 0C443.7 0 417.3 0 391.2 0C365 0 339 0 313 0C287 0 261 0 235 0C209 0 183 0 156.8 0C130.7 0 104.3 0 78.2 0C52 0 26 0 13 0L0 0Z" fill="#6c6088"></path><path d="M0 181L13 182.5C26 184 52 187 78.2 181C104.3 175 130.7 160 156.8 163C183 166 209 187 235 205C261 223 287 238 313 245.5C339 253 365 253 391.2 236.5C417.3 220 443.7 187 469.8 193C496 199 522 244 548 259C574 274 600 259 626 235C652 211 678 178 704.2 185.5C730.3 193 756.7 241 782.8 262C809 283 835 277 861 271C887 265 913 259 939 260.5C965 262 991 271 1017.2 271C1043.3 271 1069.7 262 1095.8 250C1122 238 1148 223 1174 208C1200 193 1226 178 1252 172C1278 166 1304 169 1330.2 166C1356.3 163 1382.7 154 1408.8 146.5C1435 139 1461 133 1487 142C1513 151 1539 175 1565 190C1591 205 1617 211 1643.2 220C1669.3 229 1695.7 241 1721.8 250C1748 259 1774 265 1787 268L1800 271L1800 44L1787 47C1774 50 1748 56 1721.8 54.5C1695.7 53 1669.3 44 1643.2 45.5C1617 47 1591 59 1565 59C1539 59 1513 47 1487 42.5C1461 38 1435 41 1408.8 42.5C1382.7 44 1356.3 44 1330.2 44C1304 44 1278 44 1252 44C1226 44 1200 44 1174 42.5C1148 41 1122 38 1095.8 41C1069.7 44 1043.3 53 1017.2 59C991 65 965 68 939 65C913 62 887 53 861 53C835 53 809 62 782.8 63.5C756.7 65 730.3 59 704.2 54.5C678 50 652 47 626 42.5C600 38 574 32 548 30.5C522 29 496 32 469.8 39.5C443.7 47 417.3 59 391.2 59C365 59 339 47 313 41C287 35 261 35 235 33.5C209 32 183 29 156.8 35C130.7 41 104.3 56 78.2 62C52 68 26 65 13 63.5L0 62Z" fill="#876b8c"></path><path d="M0 208L13 211C26 214 52 220 78.2 217C104.3 214 130.7 202 156.8 205C183 208 209 226 235 245.5C261 265 287 286 313 292C339 298 365 289 391.2 269.5C417.3 250 443.7 220 469.8 229C496 238 522 286 548 302.5C574 319 600 304 626 280C652 256 678 223 704.2 229C730.3 235 756.7 280 782.8 298C809 316 835 307 861 299.5C887 292 913 286 939 290.5C965 295 991 310 1017.2 310C1043.3 310 1069.7 295 1095.8 283C1122 271 1148 262 1174 248.5C1200 235 1226 217 1252 208C1278 199 1304 199 1330.2 196C1356.3 193 1382.7 187 1408.8 179.5C1435 172 1461 163 1487 172C1513 181 1539 208 1565 224.5C1591 241 1617 247 1643.2 254.5C1669.3 262 1695.7 271 1721.8 281.5C1748 292 1774 304 1787 310L1800 316L1800 269L1787 266C1774 263 1748 257 1721.8 248C1695.7 239 1669.3 227 1643.2 218C1617 209 1591 203 1565 188C1539 173 1513 149 1487 140C1461 131 1435 137 1408.8 144.5C1382.7 152 1356.3 161 1330.2 164C1304 167 1278 164 1252 170C1226 176 1200 191 1174 206C1148 221 1122 236 1095.8 248C1069.7 260 1043.3 269 1017.2 269C991 269 965 260 939 258.5C913 257 887 263 861 269C835 275 809 281 782.8 260C756.7 239 730.3 191 704.2 183.5C678 176 652 209 626 233C600 257 574 272 548 257C522 242 496 197 469.8 191C443.7 185 417.3 218 391.2 234.5C365 251 339 251 313 243.5C287 236 261 221 235 203C209 185 183 164 156.8 161C130.7 158 104.3 173 78.2 179C52 185 26 182 13 180.5L0 179Z" fill="#9e7890"></path><path d="M0 271L13 283C26 295 52 319 78.2 323.5C104.3 328 130.7 313 156.8 311.5C183 310 209 322 235 338.5C261 355 287 376 313 377.5C339 379 365 361 391.2 343C417.3 325 443.7 307 469.8 323.5C496 340 522 391 548 409C574 427 600 412 626 379C652 346 678 295 704.2 293.5C730.3 292 756.7 340 782.8 364C809 388 835 388 861 382C887 376 913 364 939 370C965 376 991 400 1017.2 403C1043.3 406 1069.7 388 1095.8 377.5C1122 367 1148 364 1174 353.5C1200 343 1226 325 1252 313C1278 301 1304 295 1330.2 292C1356.3 289 1382.7 289 1408.8 283C1435 277 1461 265 1487 274C1513 283 1539 313 1565 322C1591 331 1617 319 1643.2 325C1669.3 331 1695.7 355 1721.8 365.5C1748 376 1774 373 1787 371.5L1800 370L1800 314L1787 308C1774 302 1748 290 1721.8 279.5C1695.7 269 1669.3 260 1643.2 252.5C1617 245 1591 239 1565 222.5C1539 206 1513 179 1487 170C1461 161 1435 170 1408.8 177.5C1382.7 185 1356.3 191 1330.2 194C1304 197 1278 197 1252 206C1226 215 1200 233 1174 246.5C1148 260 1122 269 1095.8 281C1069.7 293 1043.3 308 1017.2 308C991 308 965 293 939 288.5C913 284 887 290 861 297.5C835 305 809 314 782.8 296C756.7 278 730.3 233 704.2 227C678 221 652 254 626 278C600 302 574 317 548 300.5C522 284 496 236 469.8 227C443.7 218 417.3 248 391.2 267.5C365 287 339 296 313 290C287 284 261 263 235 243.5C209 224 183 206 156.8 203C130.7 200 104.3 212 78.2 215C52 218 26 212 13 209L0 206Z" fill="#b08795"></path><path d="M0 325L13 337C26 349 52 373 78.2 377.5C104.3 382 130.7 367 156.8 364C183 361 209 370 235 382C261 394 287 409 313 409C339 409 365 394 391.2 379C417.3 364 443.7 349 469.8 367C496 385 522 436 548 454C574 472 600 457 626 425.5C652 394 678 346 704.2 346C730.3 346 756.7 394 782.8 415C809 436 835 430 861 421C887 412 913 400 939 404.5C965 409 991 430 1017.2 434.5C1043.3 439 1069.7 427 1095.8 416.5C1122 406 1148 397 1174 388C1200 379 1226 370 1252 362.5C1278 355 1304 349 1330.2 346C1356.3 343 1382.7 343 1408.8 332.5C1435 322 1461 301 1487 305.5C1513 310 1539 340 1565 355C1591 370 1617 370 1643.2 376C1669.3 382 1695.7 394 1721.8 398.5C1748 403 1774 400 1787 398.5L1800 397L1800 368L1787 369.5C1774 371 1748 374 1721.8 363.5C1695.7 353 1669.3 329 1643.2 323C1617 317 1591 329 1565 320C1539 311 1513 281 1487 272C1461 263 1435 275 1408.8 281C1382.7 287 1356.3 287 1330.2 290C1304 293 1278 299 1252 311C1226 323 1200 341 1174 351.5C1148 362 1122 365 1095.8 375.5C1069.7 386 1043.3 404 1017.2 401C991 398 965 374 939 368C913 362 887 374 861 380C835 386 809 386 782.8 362C756.7 338 730.3 290 704.2 291.5C678 293 652 344 626 377C600 410 574 425 548 407C522 389 496 338 469.8 321.5C443.7 305 417.3 323 391.2 341C365 359 339 377 313 375.5C287 374 261 353 235 336.5C209 320 183 308 156.8 309.5C130.7 311 104.3 326 78.2 321.5C52 317 26 293 13 281L0 269Z" fill="#bf979b"></path><path d="M0 568L13 580C26 592 52 616 78.2 617.5C104.3 619 130.7 598 156.8 586C183 574 209 571 235 575.5C261 580 287 592 313 589C339 586 365 568 391.2 572.5C417.3 577 443.7 604 469.8 614.5C496 625 522 619 548 611.5C574 604 600 595 626 581.5C652 568 678 550 704.2 547C730.3 544 756.7 556 782.8 562C809 568 835 568 861 566.5C887 565 913 562 939 560.5C965 559 991 559 1017.2 557.5C1043.3 556 1069.7 553 1095.8 554.5C1122 556 1148 562 1174 560.5C1200 559 1226 550 1252 545.5C1278 541 1304 541 1330.2 539.5C1356.3 538 1382.7 535 1408.8 529C1435 523 1461 514 1487 527.5C1513 541 1539 577 1565 592C1591 607 1617 601 1643.2 589C1669.3 577 1695.7 559 1721.8 547C1748 535 1774 529 1787 526L1800 523L1800 395L1787 396.5C1774 398 1748 401 1721.8 396.5C1695.7 392 1669.3 380 1643.2 374C1617 368 1591 368 1565 353C1539 338 1513 308 1487 303.5C1461 299 1435 320 1408.8 330.5C1382.7 341 1356.3 341 1330.2 344C1304 347 1278 353 1252 360.5C1226 368 1200 377 1174 386C1148 395 1122 404 1095.8 414.5C1069.7 425 1043.3 437 1017.2 432.5C991 428 965 407 939 402.5C913 398 887 410 861 419C835 428 809 434 782.8 413C756.7 392 730.3 344 704.2 344C678 344 652 392 626 423.5C600 455 574 470 548 452C522 434 496 383 469.8 365C443.7 347 417.3 362 391.2 377C365 392 339 407 313 407C287 407 261 392 235 380C209 368 183 359 156.8 362C130.7 365 104.3 380 78.2 375.5C52 371 26 347 13 335L0 323Z" fill="#c49e9e"></path><path d="M0 613L13 625C26 637 52 661 78.2 661C104.3 661 130.7 637 156.8 625C183 613 209 613 235 620.5C261 628 287 643 313 643C339 643 365 628 391.2 629.5C417.3 631 443.7 649 469.8 656.5C496 664 522 661 548 653.5C574 646 600 634 626 625C652 616 678 610 704.2 610C730.3 610 756.7 616 782.8 620.5C809 625 835 628 861 625C887 622 913 613 939 607C965 601 991 598 1017.2 602.5C1043.3 607 1069.7 619 1095.8 626.5C1122 634 1148 637 1174 631C1200 625 1226 610 1252 605.5C1278 601 1304 607 1330.2 608.5C1356.3 610 1382.7 607 1408.8 602.5C1435 598 1461 592 1487 605.5C1513 619 1539 652 1565 659.5C1591 667 1617 649 1643.2 632.5C1669.3 616 1695.7 601 1721.8 589C1748 577 1774 568 1787 563.5L1800 559L1800 521L1787 524C1774 527 1748 533 1721.8 545C1695.7 557 1669.3 575 1643.2 587C1617 599 1591 605 1565 590C1539 575 1513 539 1487 525.5C1461 512 1435 521 1408.8 527C1382.7 533 1356.3 536 1330.2 537.5C1304 539 1278 539 1252 543.5C1226 548 1200 557 1174 558.5C1148 560 1122 554 1095.8 552.5C1069.7 551 1043.3 554 1017.2 555.5C991 557 965 557 939 558.5C913 560 887 563 861 564.5C835 566 809 566 782.8 560C756.7 554 730.3 542 704.2 545C678 548 652 566 626 579.5C600 593 574 602 548 609.5C522 617 496 623 469.8 612.5C443.7 602 417.3 575 391.2 570.5C365 566 339 584 313 587C287 590 261 578 235 573.5C209 569 183 572 156.8 584C130.7 596 104.3 617 78.2 615.5C52 614 26 590 13 578L0 566Z" fill="#c49e9e"></path><path d="M0 703L13 715C26 727 52 751 78.2 748C104.3 745 130.7 715 156.8 703C183 691 209 697 235 703C261 709 287 715 313 721C339 727 365 733 391.2 734.5C417.3 736 443.7 733 469.8 731.5C496 730 522 730 548 724C574 718 600 706 626 703C652 700 678 706 704.2 712C730.3 718 756.7 724 782.8 734.5C809 745 835 760 861 760C887 760 913 745 939 736C965 727 991 724 1017.2 721C1043.3 718 1069.7 715 1095.8 718C1122 721 1148 730 1174 730C1200 730 1226 721 1252 724C1278 727 1304 742 1330.2 746.5C1356.3 751 1382.7 745 1408.8 737.5C1435 730 1461 721 1487 722.5C1513 724 1539 736 1565 739C1591 742 1617 736 1643.2 734.5C1669.3 733 1695.7 736 1721.8 736C1748 736 1774 733 1787 731.5L1800 730L1800 557L1787 561.5C1774 566 1748 575 1721.8 587C1695.7 599 1669.3 614 1643.2 630.5C1617 647 1591 665 1565 657.5C1539 650 1513 617 1487 603.5C1461 590 1435 596 1408.8 600.5C1382.7 605 1356.3 608 1330.2 606.5C1304 605 1278 599 1252 603.5C1226 608 1200 623 1174 629C1148 635 1122 632 1095.8 624.5C1069.7 617 1043.3 605 1017.2 600.5C991 596 965 599 939 605C913 611 887 620 861 623C835 626 809 623 782.8 618.5C756.7 614 730.3 608 704.2 608C678 608 652 614 626 623C600 632 574 644 548 651.5C522 659 496 662 469.8 654.5C443.7 647 417.3 629 391.2 627.5C365 626 339 641 313 641C287 641 261 626 235 618.5C209 611 183 611 156.8 623C130.7 635 104.3 659 78.2 659C52 659 26 635 13 623L0 611Z" fill="#bf979b"></path><path d="M0 721L13 734.5C26 748 52 775 78.2 773.5C104.3 772 130.7 742 156.8 731.5C183 721 209 730 235 734.5C261 739 287 739 313 742C339 745 365 751 391.2 757C417.3 763 443.7 769 469.8 772C496 775 522 775 548 766C574 757 600 739 626 733C652 727 678 733 704.2 739C730.3 745 756.7 751 782.8 760C809 769 835 781 861 781C887 781 913 769 939 763C965 757 991 757 1017.2 754C1043.3 751 1069.7 745 1095.8 746.5C1122 748 1148 757 1174 758.5C1200 760 1226 754 1252 757C1278 760 1304 772 1330.2 776.5C1356.3 781 1382.7 778 1408.8 773.5C1435 769 1461 763 1487 761.5C1513 760 1539 763 1565 761.5C1591 760 1617 754 1643.2 754C1669.3 754 1695.7 760 1721.8 763C1748 766 1774 766 1787 766L1800 766L1800 728L1787 729.5C1774 731 1748 734 1721.8 734C1695.7 734 1669.3 731 1643.2 732.5C1617 734 1591 740 1565 737C1539 734 1513 722 1487 720.5C1461 719 1435 728 1408.8 735.5C1382.7 743 1356.3 749 1330.2 744.5C1304 740 1278 725 1252 722C1226 719 1200 728 1174 728C1148 728 1122 719 1095.8 716C1069.7 713 1043.3 716 1017.2 719C991 722 965 725 939 734C913 743 887 758 861 758C835 758 809 743 782.8 732.5C756.7 722 730.3 716 704.2 710C678 704 652 698 626 701C600 704 574 716 548 722C522 728 496 728 469.8 729.5C443.7 731 417.3 734 391.2 732.5C365 731 339 725 313 719C287 713 261 707 235 701C209 695 183 689 156.8 701C130.7 713 104.3 743 78.2 746C52 749 26 725 13 713L0 701Z" fill="#b08795"></path><path d="M0 811L13 817C26 823 52 835 78.2 833.5C104.3 832 130.7 817 156.8 814C183 811 209 820 235 826C261 832 287 835 313 833.5C339 832 365 826 391.2 823C417.3 820 443.7 820 469.8 823C496 826 522 832 548 832C574 832 600 826 626 823C652 820 678 820 704.2 824.5C730.3 829 756.7 838 782.8 841C809 844 835 841 861 832C887 823 913 808 939 805C965 802 991 811 1017.2 817C1043.3 823 1069.7 826 1095.8 829C1122 832 1148 835 1174 833.5C1200 832 1226 826 1252 824.5C1278 823 1304 826 1330.2 829C1356.3 832 1382.7 835 1408.8 829C1435 823 1461 808 1487 806.5C1513 805 1539 817 1565 826C1591 835 1617 841 1643.2 839.5C1669.3 838 1695.7 829 1721.8 829C1748 829 1774 838 1787 842.5L1800 847L1800 764L1787 764C1774 764 1748 764 1721.8 761C1695.7 758 1669.3 752 1643.2 752C1617 752 1591 758 1565 759.5C1539 761 1513 758 1487 759.5C1461 761 1435 767 1408.8 771.5C1382.7 776 1356.3 779 1330.2 774.5C1304 770 1278 758 1252 755C1226 752 1200 758 1174 756.5C1148 755 1122 746 1095.8 744.5C1069.7 743 1043.3 749 1017.2 752C991 755 965 755 939 761C913 767 887 779 861 779C835 779 809 767 782.8 758C756.7 749 730.3 743 704.2 737C678 731 652 725 626 731C600 737 574 755 548 764C522 773 496 773 469.8 770C443.7 767 417.3 761 391.2 755C365 749 339 743 313 740C287 737 261 737 235 732.5C209 728 183 719 156.8 729.5C130.7 740 104.3 770 78.2 771.5C52 773 26 746 13 732.5L0 719Z" fill="#9e7890"></path><path d="M0 874L13 874C26 874 52 874 78.2 872.5C104.3 871 130.7 868 156.8 868C183 868 209 871 235 872.5C261 874 287 874 313 871C339 868 365 862 391.2 862C417.3 862 443.7 868 469.8 869.5C496 871 522 868 548 868C574 868 600 871 626 872.5C652 874 678 874 704.2 874C730.3 874 756.7 874 782.8 872.5C809 871 835 868 861 865C887 862 913 859 939 859C965 859 991 862 1017.2 865C1043.3 868 1069.7 871 1095.8 874C1122 877 1148 880 1174 881.5C1200 883 1226 883 1252 878.5C1278 874 1304 865 1330.2 862C1356.3 859 1382.7 862 1408.8 862C1435 862 1461 859 1487 859C1513 859 1539 862 1565 866.5C1591 871 1617 877 1643.2 877C1669.3 877 1695.7 871 1721.8 869.5C1748 868 1774 871 1787 872.5L1800 874L1800 845L1787 840.5C1774 836 1748 827 1721.8 827C1695.7 827 1669.3 836 1643.2 837.5C1617 839 1591 833 1565 824C1539 815 1513 803 1487 804.5C1461 806 1435 821 1408.8 827C1382.7 833 1356.3 830 1330.2 827C1304 824 1278 821 1252 822.5C1226 824 1200 830 1174 831.5C1148 833 1122 830 1095.8 827C1069.7 824 1043.3 821 1017.2 815C991 809 965 800 939 803C913 806 887 821 861 830C835 839 809 842 782.8 839C756.7 836 730.3 827 704.2 822.5C678 818 652 818 626 821C600 824 574 830 548 830C522 830 496 824 469.8 821C443.7 818 417.3 818 391.2 821C365 824 339 830 313 831.5C287 833 261 830 235 824C209 818 183 809 156.8 812C130.7 815 104.3 830 78.2 831.5C52 833 26 821 13 815L0 809Z" fill="#876b8c"></path><path d="M0 901L13 901C26 901 52 901 78.2 901C104.3 901 130.7 901 156.8 901C183 901 209 901 235 901C261 901 287 901 313 901C339 901 365 901 391.2 901C417.3 901 443.7 901 469.8 901C496 901 522 901 548 901C574 901 600 901 626 901C652 901 678 901 704.2 901C730.3 901 756.7 901 782.8 901C809 901 835 901 861 901C887 901 913 901 939 901C965 901 991 901 1017.2 901C1043.3 901 1069.7 901 1095.8 901C1122 901 1148 901 1174 901C1200 901 1226 901 1252 901C1278 901 1304 901 1330.2 901C1356.3 901 1382.7 901 1408.8 901C1435 901 1461 901 1487 901C1513 901 1539 901 1565 901C1591 901 1617 901 1643.2 901C1669.3 901 1695.7 901 1721.8 901C1748 901 1774 901 1787 901L1800 901L1800 872L1787 870.5C1774 869 1748 866 1721.8 867.5C1695.7 869 1669.3 875 1643.2 875C1617 875 1591 869 1565 864.5C1539 860 1513 857 1487 857C1461 857 1435 860 1408.8 860C1382.7 860 1356.3 857 1330.2 860C1304 863 1278 872 1252 876.5C1226 881 1200 881 1174 879.5C1148 878 1122 875 1095.8 872C1069.7 869 1043.3 866 1017.2 863C991 860 965 857 939 857C913 857 887 860 861 863C835 866 809 869 782.8 870.5C756.7 872 730.3 872 704.2 872C678 872 652 872 626 870.5C600 869 574 866 548 866C522 866 496 869 469.8 867.5C443.7 866 417.3 860 391.2 860C365 860 339 866 313 869C287 872 261 872 235 870.5C209 869 183 866 156.8 866C130.7 866 104.3 869 78.2 870.5C52 872 26 872 13 872L0 872Z" fill="#6c6088"></path></svg>