<svg id="visual" viewBox="0 0 1920 1200" width="1920" height="1200" xmlns="http://www.w3.org/2000/svg" xmlns:xlink="http://www.w3.org/1999/xlink" version="1.1"><path d="M0 169L13.8 151C27.7 133 55.3 97 83.2 77C111 57 139 53 166.8 67C194.7 81 222.3 113 250.2 129C278 145 306 145 333.8 135C361.7 125 389.3 105 417.2 101C445 97 473 109 500.8 109C528.7 109 556.3 97 584.2 95C612 93 640 101 667.8 105C695.7 109 723.3 109 751.2 105C779 101 807 93 834.8 101C862.7 109 890.3 133 918.2 139C946 145 974 133 1001.8 109C1029.7 85 1057.3 49 1085.2 37C1113 25 1141 37 1168.8 51C1196.7 65 1224.3 81 1252.2 89C1280 97 1308 97 1335.8 99C1363.7 101 1391.3 105 1419.2 99C1447 93 1475 77 1502.8 61C1530.7 45 1558.3 29 1586.2 18.8C1614 8.7 1642 4.3 1669.8 14.3C1697.7 24.3 1725.3 48.7 1753.2 62.8C1781 77 1809 81 1836.8 83C1864.7 85 1892.3 85 1906.2 85L1920 85L1920 0L1906.2 0C1892.3 0 1864.7 0 1836.8 0C1809 0 1781 0 1753.2 0C1725.3 0 1697.7 0 1669.8 0C1642 0 1614 0 1586.2 0C1558.3 0 1530.7 0 1502.8 0C1475 0 1447 0 1419.2 0C1391.3 0 1363.7 0 1335.8 0C1308 0 1280 0 1252.2 0C1224.3 0 1196.7 0 1168.8 0C1141 0 1113 0 1085.2 0C1057.3 0 1029.7 0 1001.8 0C974 0 946 0 918.2 0C890.3 0 862.7 0 834.8 0C807 0 779 0 751.2 0C723.3 0 695.7 0 667.8 0C640 0 612 0 584.2 0C556.3 0 528.7 0 500.8 0C473 0 445 0 417.2 0C389.3 0 361.7 0 333.8 0C306 0 278 0 250.2 0C222.3 0 194.7 0 166.8 0C139 0 111 0 83.2 0C55.3 0 27.7 0 13.8 0L0 0Z" fill="#94a3af"></path><path d="M0 193L13.8 191C27.7 189 55.3 185 83.2 193C111 201 139 221 166.8 225C194.7 229 222.3 217 250.2 211C278 205 306 205 333.8 213C361.7 221 389.3 237 417.2 245C445 253 473 253 500.8 229C528.7 205 556.3 157 584.2 139C612 121 640 133 667.8 147C695.7 161 723.3 177 751.2 205C779 233 807 273 834.8 285C862.7 297 890.3 281 918.2 269C946 257 974 249 1001.8 239C1029.7 229 1057.3 217 1085.2 217C1113 217 1141 229 1168.8 211C1196.7 193 1224.3 145 1252.2 129C1280 113 1308 129 1335.8 143C1363.7 157 1391.3 169 1419.2 177C1447 185 1475 189 1502.8 171C1530.7 153 1558.3 113 1586.2 93C1614 73 1642 73 1669.8 85C1697.7 97 1725.3 121 1753.2 123C1781 125 1809 105 1836.8 105C1864.7 105 1892.3 125 1906.2 135L1920 145L1920 83L1906.2 83C1892.3 83 1864.7 83 1836.8 81C1809 79 1781 75 1753.2 61.2C1725.3 47.3 1697.7 23.7 1669.8 13.7C1642 3.7 1614 7.3 1586.2 17.2C1558.3 27 1530.7 43 1502.8 59C1475 75 1447 91 1419.2 97C1391.3 103 1363.7 99 1335.8 97C1308 95 1280 95 1252.2 87C1224.3 79 1196.7 63 1168.8 49C1141 35 1113 23 1085.2 35C1057.3 47 1029.7 83 1001.8 107C974 131 946 143 918.2 137C890.3 131 862.7 107 834.8 99C807 91 779 99 751.2 103C723.3 107 695.7 107 667.8 103C640 99 612 91 584.2 93C556.3 95 528.7 107 500.8 107C473 107 445 95 417.2 99C389.3 103 361.7 123 333.8 133C306 143 278 143 250.2 127C222.3 111 194.7 79 166.8 65C139 51 111 55 83.2 75C55.3 95 27.7 131 13.8 149L0 167Z" fill="#9ba7b6"></path><path d="M0 229L13.8 235C27.7 241 55.3 253 83.2 257C111 261 139 257 166.8 263C194.7 269 222.3 285 250.2 291C278 297 306 293 333.8 295C361.7 297 389.3 305 417.2 305C445 305 473 297 500.8 273C528.7 249 556.3 209 584.2 187C612 165 640 161 667.8 185C695.7 209 723.3 261 751.2 291C779 321 807 329 834.8 329C862.7 329 890.3 321 918.2 317C946 313 974 313 1001.8 307C1029.7 301 1057.3 289 1085.2 281C1113 273 1141 269 1168.8 239C1196.7 209 1224.3 153 1252.2 143C1280 133 1308 169 1335.8 195C1363.7 221 1391.3 237 1419.2 237C1447 237 1475 221 1502.8 207C1530.7 193 1558.3 181 1586.2 165C1614 149 1642 129 1669.8 141C1697.7 153 1725.3 197 1753.2 197C1781 197 1809 153 1836.8 139C1864.7 125 1892.3 141 1906.2 149L1920 157L1920 143L1906.2 133C1892.3 123 1864.7 103 1836.8 103C1809 103 1781 123 1753.2 121C1725.3 119 1697.7 95 1669.8 83C1642 71 1614 71 1586.2 91C1558.3 111 1530.7 151 1502.8 169C1475 187 1447 183 1419.2 175C1391.3 167 1363.7 155 1335.8 141C1308 127 1280 111 1252.2 127C1224.3 143 1196.7 191 1168.8 209C1141 227 1113 215 1085.2 215C1057.3 215 1029.7 227 1001.8 237C974 247 946 255 918.2 267C890.3 279 862.7 295 834.8 283C807 271 779 231 751.2 203C723.3 175 695.7 159 667.8 145C640 131 612 119 584.2 137C556.3 155 528.7 203 500.8 227C473 251 445 251 417.2 243C389.3 235 361.7 219 333.8 211C306 203 278 203 250.2 209C222.3 215 194.7 227 166.8 223C139 219 111 199 83.2 191C55.3 183 27.7 187 13.8 189L0 191Z" fill="#a2aabc"></path><path d="M0 349L13.8 343C27.7 337 55.3 325 83.2 311C111 297 139 281 166.8 285C194.7 289 222.3 313 250.2 323C278 333 306 329 333.8 325C361.7 321 389.3 317 417.2 359C445 401 473 489 500.8 485C528.7 481 556.3 385 584.2 339C612 293 640 297 667.8 381C695.7 465 723.3 629 751.2 655C779 681 807 569 834.8 519C862.7 469 890.3 481 918.2 473C946 465 974 437 1001.8 459C1029.7 481 1057.3 553 1085.2 609C1113 665 1141 705 1168.8 647C1196.7 589 1224.3 433 1252.2 383C1280 333 1308 389 1335.8 401C1363.7 413 1391.3 381 1419.2 395C1447 409 1475 469 1502.8 459C1530.7 449 1558.3 369 1586.2 321C1614 273 1642 257 1669.8 259C1697.7 261 1725.3 281 1753.2 321C1781 361 1809 421 1836.8 449C1864.7 477 1892.3 473 1906.2 471L1920 469L1920 155L1906.2 147C1892.3 139 1864.7 123 1836.8 137C1809 151 1781 195 1753.2 195C1725.3 195 1697.7 151 1669.8 139C1642 127 1614 147 1586.2 163C1558.3 179 1530.7 191 1502.8 205C1475 219 1447 235 1419.2 235C1391.3 235 1363.7 219 1335.8 193C1308 167 1280 131 1252.2 141C1224.3 151 1196.7 207 1168.8 237C1141 267 1113 271 1085.2 279C1057.3 287 1029.7 299 1001.8 305C974 311 946 311 918.2 315C890.3 319 862.7 327 834.8 327C807 327 779 319 751.2 289C723.3 259 695.7 207 667.8 183C640 159 612 163 584.2 185C556.3 207 528.7 247 500.8 271C473 295 445 303 417.2 303C389.3 303 361.7 295 333.8 293C306 291 278 295 250.2 289C222.3 283 194.7 267 166.8 261C139 255 111 259 83.2 255C55.3 251 27.7 239 13.8 233L0 227Z" fill="#abaec1"></path><path d="M0 349L13.8 349C27.7 349 55.3 349 83.2 335C111 321 139 293 166.8 293C194.7 293 222.3 321 250.2 345C278 369 306 389 333.8 393C361.7 397 389.3 385 417.2 413C445 441 473 509 500.8 511C528.7 513 556.3 449 584.2 419C612 389 640 393 667.8 465C695.7 537 723.3 677 751.2 703C779 729 807 641 834.8 601C862.7 561 890.3 569 918.2 555C946 541 974 505 1001.8 515C1029.7 525 1057.3 581 1085.2 637C1113 693 1141 749 1168.8 697C1196.7 645 1224.3 485 1252.2 439C1280 393 1308 461 1335.8 479C1363.7 497 1391.3 465 1419.2 473C1447 481 1475 529 1502.8 521C1530.7 513 1558.3 449 1586.2 407C1614 365 1642 345 1669.8 335C1697.7 325 1725.3 325 1753.2 353C1781 381 1809 437 1836.8 469C1864.7 501 1892.3 509 1906.2 513L1920 517L1920 467L1906.2 469C1892.3 471 1864.7 475 1836.8 447C1809 419 1781 359 1753.2 319C1725.3 279 1697.7 259 1669.8 257C1642 255 1614 271 1586.2 319C1558.3 367 1530.7 447 1502.8 457C1475 467 1447 407 1419.2 393C1391.3 379 1363.7 411 1335.8 399C1308 387 1280 331 1252.2 381C1224.3 431 1196.7 587 1168.8 645C1141 703 1113 663 1085.2 607C1057.3 551 1029.7 479 1001.8 457C974 435 946 463 918.2 471C890.3 479 862.7 467 834.8 517C807 567 779 679 751.2 653C723.3 627 695.7 463 667.8 379C640 295 612 291 584.2 337C556.3 383 528.7 479 500.8 483C473 487 445 399 417.2 357C389.3 315 361.7 319 333.8 323C306 327 278 331 250.2 321C222.3 311 194.7 287 166.8 283C139 279 111 295 83.2 309C55.3 323 27.7 335 13.8 341L0 347Z" fill="#b5b1c6"></path><path d="M0 493L13.8 489C27.7 485 55.3 477 83.2 449C111 421 139 373 166.8 375C194.7 377 222.3 429 250.2 447C278 465 306 449 333.8 437C361.7 425 389.3 417 417.2 461C445 505 473 601 500.8 603C528.7 605 556.3 513 584.2 477C612 441 640 461 667.8 527C695.7 593 723.3 705 751.2 721C779 737 807 657 834.8 621C862.7 585 890.3 593 918.2 579C946 565 974 529 1001.8 537C1029.7 545 1057.3 597 1085.2 653C1113 709 1141 769 1168.8 725C1196.7 681 1224.3 533 1252.2 483C1280 433 1308 481 1335.8 499C1363.7 517 1391.3 505 1419.2 529C1447 553 1475 613 1502.8 607C1530.7 601 1558.3 529 1586.2 471C1614 413 1642 369 1669.8 351C1697.7 333 1725.3 341 1753.2 383C1781 425 1809 501 1836.8 553C1864.7 605 1892.3 633 1906.2 647L1920 661L1920 515L1906.2 511C1892.3 507 1864.7 499 1836.8 467C1809 435 1781 379 1753.2 351C1725.3 323 1697.7 323 1669.8 333C1642 343 1614 363 1586.2 405C1558.3 447 1530.7 511 1502.8 519C1475 527 1447 479 1419.2 471C1391.3 463 1363.7 495 1335.8 477C1308 459 1280 391 1252.2 437C1224.3 483 1196.7 643 1168.8 695C1141 747 1113 691 1085.2 635C1057.3 579 1029.7 523 1001.8 513C974 503 946 539 918.2 553C890.3 567 862.7 559 834.8 599C807 639 779 727 751.2 701C723.3 675 695.7 535 667.8 463C640 391 612 387 584.2 417C556.3 447 528.7 511 500.8 509C473 507 445 439 417.2 411C389.3 383 361.7 395 333.8 391C306 387 278 367 250.2 343C222.3 319 194.7 291 166.8 291C139 291 111 319 83.2 333C55.3 347 27.7 347 13.8 347L0 347Z" fill="#bfb4ca"></path><path d="M0 493L13.8 509C27.7 525 55.3 557 83.2 551C111 545 139 501 166.8 505C194.7 509 222.3 561 250.2 573C278 585 306 557 333.8 529C361.7 501 389.3 473 417.2 525C445 577 473 709 500.8 711C528.7 713 556.3 585 584.2 555C612 525 640 593 667.8 659C695.7 725 723.3 789 751.2 813C779 837 807 821 834.8 809C862.7 797 890.3 789 918.2 747C946 705 974 629 1001.8 611C1029.7 593 1057.3 633 1085.2 695C1113 757 1141 841 1168.8 801C1196.7 761 1224.3 597 1252.2 551C1280 505 1308 577 1335.8 615C1363.7 653 1391.3 657 1419.2 677C1447 697 1475 733 1502.8 709C1530.7 685 1558.3 601 1586.2 537C1614 473 1642 429 1669.8 435C1697.7 441 1725.3 497 1753.2 569C1781 641 1809 729 1836.8 751C1864.7 773 1892.3 729 1906.2 707L1920 685L1920 659L1906.2 645C1892.3 631 1864.7 603 1836.8 551C1809 499 1781 423 1753.2 381C1725.3 339 1697.7 331 1669.8 349C1642 367 1614 411 1586.2 469C1558.3 527 1530.7 599 1502.8 605C1475 611 1447 551 1419.2 527C1391.3 503 1363.7 515 1335.8 497C1308 479 1280 431 1252.2 481C1224.3 531 1196.7 679 1168.8 723C1141 767 1113 707 1085.2 651C1057.3 595 1029.7 543 1001.8 535C974 527 946 563 918.2 577C890.3 591 862.7 583 834.8 619C807 655 779 735 751.2 719C723.3 703 695.7 591 667.8 525C640 459 612 439 584.2 475C556.3 511 528.7 603 500.8 601C473 599 445 503 417.2 459C389.3 415 361.7 423 333.8 435C306 447 278 463 250.2 445C222.3 427 194.7 375 166.8 373C139 371 111 419 83.2 447C55.3 475 27.7 483 13.8 487L0 491Z" fill="#c9b8cc"></path><path d="M0 553L13.8 577C27.7 601 55.3 649 83.2 633C111 617 139 537 166.8 537C194.7 537 222.3 617 250.2 643C278 669 306 641 333.8 623C361.7 605 389.3 597 417.2 641C445 685 473 781 500.8 769C528.7 757 556.3 637 584.2 615C612 593 640 669 667.8 727C695.7 785 723.3 825 751.2 837C779 849 807 833 834.8 829C862.7 825 890.3 833 918.2 813C946 793 974 745 1001.8 743C1029.7 741 1057.3 785 1085.2 833C1113 881 1141 933 1168.8 887C1196.7 841 1224.3 697 1252.2 649C1280 601 1308 649 1335.8 687C1363.7 725 1391.3 753 1419.2 773C1447 793 1475 805 1502.8 775C1530.7 745 1558.3 673 1586.2 605C1614 537 1642 473 1669.8 475C1697.7 477 1725.3 545 1753.2 615C1781 685 1809 757 1836.8 785C1864.7 813 1892.3 797 1906.2 789L1920 781L1920 683L1906.2 705C1892.3 727 1864.7 771 1836.8 749C1809 727 1781 639 1753.2 567C1725.3 495 1697.7 439 1669.8 433C1642 427 1614 471 1586.2 535C1558.3 599 1530.7 683 1502.8 707C1475 731 1447 695 1419.2 675C1391.3 655 1363.7 651 1335.8 613C1308 575 1280 503 1252.2 549C1224.3 595 1196.7 759 1168.8 799C1141 839 1113 755 1085.2 693C1057.3 631 1029.7 591 1001.8 609C974 627 946 703 918.2 745C890.3 787 862.7 795 834.8 807C807 819 779 835 751.2 811C723.3 787 695.7 723 667.8 657C640 591 612 523 584.2 553C556.3 583 528.7 711 500.8 709C473 707 445 575 417.2 523C389.3 471 361.7 499 333.8 527C306 555 278 583 250.2 571C222.3 559 194.7 507 166.8 503C139 499 111 543 83.2 549C55.3 555 27.7 523 13.8 507L0 491Z" fill="#d4bbce"></path><path d="M0 721L13.8 733C27.7 745 55.3 769 83.2 735C111 701 139 609 166.8 631C194.7 653 222.3 789 250.2 821C278 853 306 781 333.8 739C361.7 697 389.3 685 417.2 729C445 773 473 873 500.8 895C528.7 917 556.3 861 584.2 825C612 789 640 773 667.8 797C695.7 821 723.3 885 751.2 909C779 933 807 917 834.8 905C862.7 893 890.3 885 918.2 851C946 817 974 757 1001.8 775C1029.7 793 1057.3 889 1085.2 955C1113 1021 1141 1057 1168.8 1027C1196.7 997 1224.3 901 1252.2 885C1280 869 1308 933 1335.8 931C1363.7 929 1391.3 861 1419.2 859C1447 857 1475 921 1502.8 931C1530.7 941 1558.3 897 1586.2 827C1614 757 1642 661 1669.8 655C1697.7 649 1725.3 733 1753.2 819C1781 905 1809 993 1836.8 1027C1864.7 1061 1892.3 1041 1906.2 1031L1920 1021L1920 779L1906.2 787C1892.3 795 1864.7 811 1836.8 783C1809 755 1781 683 1753.2 613C1725.3 543 1697.7 475 1669.8 473C1642 471 1614 535 1586.2 603C1558.3 671 1530.7 743 1502.8 773C1475 803 1447 791 1419.2 771C1391.3 751 1363.7 723 1335.8 685C1308 647 1280 599 1252.2 647C1224.3 695 1196.7 839 1168.8 885C1141 931 1113 879 1085.2 831C1057.3 783 1029.7 739 1001.8 741C974 743 946 791 918.2 811C890.3 831 862.7 823 834.8 827C807 831 779 847 751.2 835C723.3 823 695.7 783 667.8 725C640 667 612 591 584.2 613C556.3 635 528.7 755 500.8 767C473 779 445 683 417.2 639C389.3 595 361.7 603 333.8 621C306 639 278 667 250.2 641C222.3 615 194.7 535 166.8 535C139 535 111 615 83.2 631C55.3 647 27.7 599 13.8 575L0 551Z" fill="#debece"></path><path d="M0 757L13.8 775C27.7 793 55.3 829 83.2 807C111 785 139 705 166.8 717C194.7 729 222.3 833 250.2 863C278 893 306 849 333.8 815C361.7 781 389.3 757 417.2 799C445 841 473 949 500.8 967C528.7 985 556.3 913 584.2 877C612 841 640 841 667.8 869C695.7 897 723.3 953 751.2 963C779 973 807 937 834.8 923C862.7 909 890.3 917 918.2 895C946 873 974 821 1001.8 833C1029.7 845 1057.3 921 1085.2 975C1113 1029 1141 1061 1168.8 1045C1196.7 1029 1224.3 965 1252.2 955C1280 945 1308 989 1335.8 973C1363.7 957 1391.3 881 1419.2 885C1447 889 1475 973 1502.8 981C1530.7 989 1558.3 921 1586.2 847C1614 773 1642 693 1669.8 703C1697.7 713 1725.3 813 1753.2 893C1781 973 1809 1033 1836.8 1051C1864.7 1069 1892.3 1045 1906.2 1033L1920 1021L1920 1019L1906.2 1029C1892.3 1039 1864.7 1059 1836.8 1025C1809 991 1781 903 1753.2 817C1725.3 731 1697.7 647 1669.8 653C1642 659 1614 755 1586.2 825C1558.3 895 1530.7 939 1502.8 929C1475 919 1447 855 1419.2 857C1391.3 859 1363.7 927 1335.8 929C1308 931 1280 867 1252.2 883C1224.3 899 1196.7 995 1168.8 1025C1141 1055 1113 1019 1085.2 953C1057.3 887 1029.7 791 1001.8 773C974 755 946 815 918.2 849C890.3 883 862.7 891 834.8 903C807 915 779 931 751.2 907C723.3 883 695.7 819 667.8 795C640 771 612 787 584.2 823C556.3 859 528.7 915 500.8 893C473 871 445 771 417.2 727C389.3 683 361.7 695 333.8 737C306 779 278 851 250.2 819C222.3 787 194.7 651 166.8 629C139 607 111 699 83.2 733C55.3 767 27.7 743 13.8 731L0 719Z" fill="#e7c1cd"></path><path d="M0 1177L13.8 1179C27.7 1181 55.3 1185 83.2 1183C111 1181 139 1173 166.8 1175C194.7 1177 222.3 1189 250.2 1191C278 1193 306 1185 333.8 1185C361.7 1185 389.3 1193 417.2 1179C445 1165 473 1129 500.8 1125C528.7 1121 556.3 1149 584.2 1151C612 1153 640 1129 667.8 1133C695.7 1137 723.3 1169 751.2 1185C779 1201 807 1201 834.8 1185C862.7 1169 890.3 1137 918.2 1133C946 1129 974 1153 1001.8 1155C1029.7 1157 1057.3 1137 1085.2 1131C1113 1125 1141 1133 1168.8 1135C1196.7 1137 1224.3 1133 1252.2 1129C1280 1125 1308 1121 1335.8 1123C1363.7 1125 1391.3 1133 1419.2 1135C1447 1137 1475 1133 1502.8 1143C1530.7 1153 1558.3 1177 1586.2 1173C1614 1169 1642 1137 1669.8 1125C1697.7 1113 1725.3 1121 1753.2 1129C1781 1137 1809 1145 1836.8 1157C1864.7 1169 1892.3 1185 1906.2 1193L1920 1201L1920 1019L1906.2 1031C1892.3 1043 1864.7 1067 1836.8 1049C1809 1031 1781 971 1753.2 891C1725.3 811 1697.7 711 1669.8 701C1642 691 1614 771 1586.2 845C1558.3 919 1530.7 987 1502.8 979C1475 971 1447 887 1419.2 883C1391.3 879 1363.7 955 1335.8 971C1308 987 1280 943 1252.2 953C1224.3 963 1196.7 1027 1168.8 1043C1141 1059 1113 1027 1085.2 973C1057.3 919 1029.7 843 1001.8 831C974 819 946 871 918.2 893C890.3 915 862.7 907 834.8 921C807 935 779 971 751.2 961C723.3 951 695.7 895 667.8 867C640 839 612 839 584.2 875C556.3 911 528.7 983 500.8 965C473 947 445 839 417.2 797C389.3 755 361.7 779 333.8 813C306 847 278 891 250.2 861C222.3 831 194.7 727 166.8 715C139 703 111 783 83.2 805C55.3 827 27.7 791 13.8 773L0 755Z" fill="#f0c5cc"></path><path d="M0 1201L13.8 1201C27.7 1201 55.3 1201 83.2 1201C111 1201 139 1201 166.8 1201C194.7 1201 222.3 1201 250.2 1201C278 1201 306 1201 333.8 1201C361.7 1201 389.3 1201 417.2 1201C445 1201 473 1201 500.8 1201C528.7 1201 556.3 1201 584.2 1201C612 1201 640 1201 667.8 1201C695.7 1201 723.3 1201 751.2 1201C779 1201 807 1201 834.8 1201C862.7 1201 890.3 1201 918.2 1201C946 1201 974 1201 1001.8 1201C1029.7 1201 1057.3 1201 1085.2 1201C1113 1201 1141 1201 1168.8 1201C1196.7 1201 1224.3 1201 1252.2 1201C1280 1201 1308 1201 1335.8 1201C1363.7 1201 1391.3 1201 1419.2 1201C1447 1201 1475 1201 1502.8 1201C1530.7 1201 1558.3 1201 1586.2 1201C1614 1201 1642 1201 1669.8 1201C1697.7 1201 1725.3 1201 1753.2 1201C1781 1201 1809 1201 1836.8 1201C1864.7 1201 1892.3 1201 1906.2 1201L1920 1201L1920 1199L1906.2 1191C1892.3 1183 1864.7 1167 1836.8 1155C1809 1143 1781 1135 1753.2 1127C1725.3 1119 1697.7 1111 1669.8 1123C1642 1135 1614 1167 1586.2 1171C1558.3 1175 1530.7 1151 1502.8 1141C1475 1131 1447 1135 1419.2 1133C1391.3 1131 1363.7 1123 1335.8 1121C1308 1119 1280 1123 1252.2 1127C1224.3 1131 1196.7 1135 1168.8 1133C1141 1131 1113 1123 1085.2 1129C1057.3 1135 1029.7 1155 1001.8 1153C974 1151 946 1127 918.2 1131C890.3 1135 862.7 1167 834.8 1183C807 1199 779 1199 751.2 1183C723.3 1167 695.7 1135 667.8 1131C640 1127 612 1151 584.2 1149C556.3 1147 528.7 1119 500.8 1123C473 1127 445 1163 417.2 1177C389.3 1191 361.7 1183 333.8 1183C306 1183 278 1191 250.2 1189C222.3 1187 194.7 1175 166.8 1173C139 1171 111 1179 83.2 1181C55.3 1183 27.7 1179 13.8 1177L0 1175Z" fill="#f7caca"></path></svg>